<svg width="248" height="251" viewBox="0 0 248 251" fill="none" xmlns="http://www.w3.org/2000/svg">
<path fill-rule="evenodd" clip-rule="evenodd" d="M248 11.3909C248 52.0676 235.623 89.1079 215.348 116.877C213.144 119.895 213.144 124.013 215.348 127.032C235.623 154.801 248 191.841 248 232.518C248 236.105 247.904 239.664 247.714 243.19C247.492 247.321 244.02 250.475 239.883 250.475H8.11698C3.97999 250.475 0.507581 247.321 0.285685 243.19C0.0962521 239.664 0 236.105 0 232.518C0 191.841 12.3771 154.801 32.6522 127.032C34.8559 124.013 34.8559 119.895 32.6522 116.877C12.3771 89.1078 0 52.0676 0 11.3909C0 10.2719 0.00936687 9.15562 0.0280074 8.04223C0.0991134 3.7951 3.62363 0.475098 7.87135 0.475098H240.129C244.376 0.475098 247.901 3.7951 247.972 8.04224C247.991 9.15562 248 10.2719 248 11.3909Z" fill="#FDFCF3"/>
</svg>
