<svg width="248" height="345" viewBox="0 0 248 345" fill="none" xmlns="http://www.w3.org/2000/svg">
<path fill-rule="evenodd" clip-rule="evenodd" d="M248 15.0433C248 72.5586 234.97 124.798 213.749 163.375C212.367 165.888 212.367 168.934 213.749 171.447C234.97 210.023 248 262.263 248 319.778C248 325.592 247.867 331.351 247.606 337.048C247.413 341.257 243.912 344.525 239.699 344.525H8.30129C4.08789 344.525 0.587361 341.257 0.394357 337.048C0.133118 331.351 0 325.592 0 319.778C0 262.263 13.0296 210.023 34.2509 171.447C35.6331 168.934 35.6331 165.888 34.2509 163.375C13.0296 124.798 0 72.5586 0 15.0433C0 12.5803 0.0238955 10.1269 0.0713065 7.68382C0.154627 3.39035 3.69199 0 7.98626 0H240.014C244.308 0 247.845 3.39035 247.929 7.68381C247.976 10.1269 248 12.5803 248 15.0433Z" fill="#FDFCF3"/>
</svg>
