<svg width="324" height="355" viewBox="0 0 324 355" fill="none" xmlns="http://www.w3.org/2000/svg">
<ellipse cx="138.181" cy="148.997" rx="138.181" ry="148.997" transform="matrix(0.975113 0.221708 -0.179152 0.983821 53.9414 0.0722656)" fill="#6AA2FF"/>
<g style="mix-blend-mode:multiply">
<path d="M226.789 138.185C226.443 136.416 224.706 137.136 223.693 137.359C222.894 137.537 222.094 137.721 221.289 137.891C219.782 138.217 218.269 138.542 216.763 138.861C213.689 139.514 210.595 140.098 207.494 140.608C205.92 140.869 204.341 141.114 202.76 141.337C201.329 141.536 199.869 141.643 198.456 141.962C197.125 142.263 195.694 142.894 194.851 144.112C193.903 145.471 193.24 147.881 193.825 149.567C194.181 150.59 194.796 149.788 195.002 149.13C194.91 149.418 194.638 149.565 195.144 149.22C195.371 149.063 195.589 148.882 195.813 148.703C196.336 148.304 196.85 148.054 197.477 147.88C198.814 147.508 200.244 147.424 201.616 147.225C204.576 146.798 207.528 146.304 210.472 145.744C213.417 145.184 216.359 144.601 219.26 143.88C220.77 143.504 222.287 143.123 223.782 142.679C224.445 142.485 225.346 142.294 225.891 141.807C226.73 141.048 227.015 139.301 226.795 138.186L226.789 138.185Z" fill="#D2E9EB"/>
<path d="M194.592 155.991C195.156 158.01 195.452 160.235 195.407 162.116C195.394 162.695 195.357 163.262 195.325 163.837C195.264 164.751 195.362 163.558 195.304 164.099C195.274 164.336 195.244 164.574 195.214 164.812C195.129 165.382 195.033 165.95 194.917 166.513C195.011 166.067 194.912 166.541 194.898 166.617C194.811 166.985 194.717 167.359 194.617 167.725C193.406 172.16 191.134 176.433 188.965 180.65C184.631 189.092 181.386 198.055 180.468 207.777C179.625 216.726 180.984 225.966 185.158 233.862C188.964 241.063 194.84 246.98 201.589 250.794C216.609 259.286 234.941 257.535 249.534 249.276C256.315 245.438 262.202 239.938 266.795 233.302C271.387 226.666 274.778 219.519 275.872 211.405C276.922 203.604 276.176 195.395 273.487 188.016C272.187 184.449 270.492 181.014 268.307 177.986C266.121 174.958 263.742 172.195 260.736 170.447C260.06 170.056 259.309 169.713 258.585 169.476C258.206 169.347 257.833 169.291 257.438 169.244C257.07 169.196 256.472 169.283 256.139 169.114C255.54 168.813 254.985 171.167 255.755 171.551C255.864 171.605 256.074 171.94 256.156 172.038C256.331 172.236 256.509 172.42 256.686 172.611C256.978 172.929 257.263 173.253 257.566 173.552C258.234 174.2 258.907 174.864 259.608 175.476C260.921 176.616 262.209 177.822 263.402 179.107C265.683 181.575 267.587 184.445 269.131 187.508C270.676 190.57 271.775 193.79 272.568 197.278C272.624 197.514 272.673 197.755 272.721 197.996C272.89 198.775 272.649 197.555 272.789 198.349C272.861 198.754 272.934 199.152 272.998 199.562C273.14 200.45 273.255 201.346 273.343 202.243C273.393 202.729 273.429 203.22 273.466 203.71C273.476 203.87 273.485 204.038 273.496 204.198C273.548 205.001 273.488 203.693 273.508 204.496C273.535 205.437 273.541 206.38 273.515 207.324C273.499 207.773 273.483 208.223 273.454 208.676C273.443 208.882 273.425 209.087 273.409 209.284C273.397 209.425 273.344 209.967 273.398 209.418C273.299 210.396 273.175 211.367 273.012 212.337C272.879 213.14 272.72 213.939 272.549 214.734C272.679 214.166 272.49 214.95 272.48 215.006C272.414 215.257 272.354 215.516 272.288 215.768C272.157 216.27 272.012 216.776 271.862 217.274C270.82 220.705 269.485 224.011 267.532 227.113C263.566 233.388 258.028 238.356 252.029 242.184C238.54 250.803 221.049 253.341 206.259 246.75C199.674 243.814 193.651 238.806 189.44 232.527C187.277 229.303 185.553 225.739 184.462 221.932C183.868 219.855 183.503 218.046 183.268 215.965C183.005 213.668 182.955 212.161 183.024 209.969C183.154 205.986 183.816 201.988 184.879 198.152C185.498 195.912 186.06 194.242 186.843 192.263C187.68 190.138 188.631 188.074 189.643 186.039C193.788 177.683 198.636 169.034 197.774 159.065C197.586 156.937 197.085 154.896 196.162 152.996C195.807 152.261 195.216 152.817 194.963 153.299C194.57 154.044 194.367 155.156 194.604 156L194.592 155.991Z" fill="#D2E9EB"/>
<path d="M256.31 166.722C256.339 166.564 256.367 166.412 256.396 166.253L255.946 167.093C256.201 167 256.356 166.762 256.469 166.507C256.519 166.374 256.57 166.242 256.615 166.101C256.539 166.3 256.527 166.333 256.584 166.202C256.675 166.029 256.724 165.831 256.786 165.637C256.824 165.502 256.981 165.257 256.791 165.609C256.907 165.406 256.972 165.161 257.077 164.948L257.118 164.864C257.189 164.729 257.171 164.754 257.07 164.946C257.127 164.923 257.213 164.706 257.251 164.642C257.363 164.466 257.479 164.299 257.607 164.141C257.642 164.091 257.677 164.049 257.718 164.001C257.412 164.305 257.419 164.335 257.741 164.092C258.011 163.772 258.045 163.73 257.859 163.954C257.901 163.906 257.941 163.864 257.977 163.815C258.282 163.482 258.628 163.179 258.978 162.892C259.272 162.657 259.47 162.148 259.575 161.791C259.713 161.326 259.794 160.733 259.724 160.25C259.677 159.923 259.614 159.434 259.333 159.233C259.07 159.044 258.87 159.128 258.615 159.293C257.53 160.024 256.597 161.229 256.616 162.686L257.115 160.922C256.165 162.367 255.437 164.115 255.385 165.922C255.378 166.216 255.391 166.801 255.669 166.979L255.727 167.021L255.539 166.31C255.546 166.527 255.552 166.751 255.566 166.963C255.583 167.161 255.681 167.493 255.92 167.417C256.158 167.342 256.275 166.916 256.31 166.686L256.31 166.722Z" fill="#D2E9EB"/>
<path d="M229.126 141.722C229.901 145.235 231.127 148.664 232.175 152.095C233.108 155.14 233.821 158.337 236.768 159.726C239.185 160.865 242.022 160.317 244.527 160.024C246.034 159.848 247.537 159.759 249.047 159.814C249.869 159.843 250.681 159.956 251.502 160.02C252.446 160.098 253.169 160.09 253.959 159.486C254.75 158.882 255.117 156.721 254.538 155.835C253.959 154.948 253.321 154.681 252.371 154.522C251.665 154.405 250.93 154.374 250.222 154.343C248.668 154.277 247.119 154.357 245.574 154.53C243.158 154.801 240.546 155.278 238.18 154.402C235.604 153.45 235.043 150.395 234.224 147.922C233.169 144.713 232.264 141.335 230.9 138.257C230.517 137.386 229.801 138.086 229.528 138.606C229.054 139.505 228.888 140.705 229.113 141.719L229.126 141.722Z" fill="#D2E9EB"/>
<path d="M219.264 163.786L219.235 163.693L219.181 163.048L219.168 163.117C219.252 162.762 219.33 162.406 219.409 162.05L219.598 161.734L220.223 161.861C220.247 161.91 220.189 161.76 220.176 161.721L220.263 162.733C220.284 162.033 220.228 161.215 219.678 160.752C219.443 160.555 219.134 160.47 218.864 160.323L219.134 160.47C218.757 160.255 218.399 159.972 218.087 159.65C217.942 159.502 217.814 159.336 217.685 159.17C217.918 159.453 217.707 159.197 217.668 159.123C217.612 159.031 217.556 158.939 217.507 158.842C217.403 158.653 217.32 158.454 217.237 158.256C217.093 157.921 217.337 158.616 217.251 158.288C217.22 158.165 217.183 158.042 217.153 157.92C217.135 157.837 217.071 157.427 217.118 157.819C217.169 158.233 217.113 157.738 217.108 157.658C217.092 157.453 217.137 157.097 217.099 157.85C217.106 157.744 217.105 157.636 217.105 157.528C217.107 157.083 217 158.216 217.078 157.788C217.122 157.546 217.242 157.286 217.012 158.039C217.044 157.938 217.069 157.836 217.094 157.734C217.208 157.328 216.864 158.271 217.034 157.922C217.247 157.474 216.911 158.088 216.997 157.978C217.058 157.898 217.116 157.796 217.172 157.708C217.375 157.388 217.047 157.81 217.155 157.726C217.248 157.654 217.327 157.543 217.408 157.46C217.487 157.392 217.566 157.323 217.644 157.255C217.714 157.199 217.974 157.042 217.683 157.221C217.861 157.117 218.032 157.012 218.218 156.933C218.622 156.751 219.05 156.647 219.483 156.595L219.186 156.628C220.102 156.534 221.039 156.689 221.872 157.123C221.691 157.032 221.913 157.154 221.966 157.188C222.055 157.244 222.144 157.3 222.226 157.362C222.424 157.508 222.607 157.664 222.778 157.847C222.851 157.921 222.922 158.002 222.993 158.083C223.058 158.162 223.206 158.369 223.071 158.165C223.227 158.395 223.362 158.634 223.482 158.884C223.535 158.99 223.581 159.101 223.627 159.212C223.761 159.53 223.529 158.881 223.657 159.305C223.699 159.437 223.733 159.574 223.761 159.71C223.812 159.938 223.745 160.088 223.769 159.669C223.761 159.782 223.804 159.914 223.815 160.032C223.836 160.245 223.767 160.733 223.832 160.05C223.823 160.17 223.833 160.295 223.825 160.415C223.814 160.621 223.72 160.988 223.852 160.263C223.827 160.401 223.813 160.549 223.795 160.689C223.694 161.241 223.937 160.16 223.817 160.6C223.756 160.831 223.644 161.079 223.615 161.309C223.738 160.963 223.762 160.904 223.682 161.123C223.655 161.203 223.622 161.275 223.588 161.353C223.489 161.604 223.402 161.865 223.328 162.128C223.242 162.418 223.148 162.713 223.069 163.004C222.938 163.507 222.883 164.026 222.961 164.54C222.999 164.765 223.127 165.369 223.437 165.339C224.722 165.214 225.342 163.298 225.626 162.14C225.986 160.633 226.159 159.033 225.914 157.474C225.531 155 224.333 152.829 222.086 151.958C220.314 151.268 218.141 151.658 216.788 153.098C215.754 154.201 215.171 155.7 214.916 157.246C214.686 158.653 214.72 160.207 215.146 161.57C215.518 162.762 216.124 163.971 217.089 164.73C217.482 165.042 218.073 165.392 218.565 165.447C218.909 165.482 219.253 165.301 219.506 165.071C219.728 164.87 219.895 164.57 220.013 164.287C220.072 164.142 220.13 163.969 220.17 163.82C220.205 163.705 220.373 162.888 220.207 163.619L219.941 164.242C220.45 163.553 220.749 162.096 220.121 161.371C219.782 160.977 219.388 161.801 219.307 162.027C219.129 162.533 219.012 163.283 219.272 163.781L219.264 163.786Z" fill="#D2E9EB"/>
<path d="M219.921 175.427C214.608 177.124 209.907 181.341 206.48 185.962C202.372 191.5 199.934 198.533 199.476 205.656C199.062 212.034 200.548 218.47 203.912 223.772C206.958 228.571 211.174 232.32 216.049 234.701C226.391 239.763 238.446 236.874 247.343 229.98C251.877 226.466 255.611 221.821 258.107 216.391C260.625 210.915 261.993 204.38 261.116 198.234C260.683 195.201 259.771 192.261 258.204 189.683C256.638 187.105 254.411 184.779 251.993 182.956C249.423 181.02 246.596 179.486 243.722 178.171C240.657 176.776 237.443 175.693 234.137 175.301C232.455 175.098 230.883 175.129 229.226 175.515C228.383 175.712 228.062 177.443 227.998 178.155C227.948 178.719 227.883 180.531 228.72 180.578C231.832 180.767 234.865 180.996 237.888 181.928C240.911 182.86 243.562 184.096 246.233 185.58C250.946 188.198 255.533 191.794 257.678 197.258C257.852 197.715 258.043 198.304 258.187 198.855C258.262 199.131 258.325 199.404 258.386 199.684C258.423 199.844 258.454 200.002 258.485 200.16C258.495 200.212 258.587 200.722 258.535 200.394C258.636 200.999 258.697 201.61 258.738 202.216C258.759 202.502 258.773 202.785 258.78 203.075C258.766 202.611 258.774 203.037 258.772 203.123C258.767 203.33 258.77 203.532 258.765 203.74C258.759 204.026 258.746 204.318 258.727 204.601C258.72 204.751 258.626 205.7 258.697 205.091C258.622 205.757 258.53 206.412 258.404 207.066C258.381 207.191 258.158 208.161 258.312 207.57C258.24 207.856 258.175 208.143 258.096 208.428C257.91 209.126 257.7 209.804 257.477 210.487C257.474 210.501 257.337 210.894 257.421 210.647C257.517 210.374 257.342 210.866 257.318 210.926C257.214 211.204 257.104 211.481 256.989 211.75C256.716 212.414 256.418 213.072 256.108 213.721C255.545 214.888 255.098 215.671 254.347 216.823C252.949 218.979 251.37 220.827 249.543 222.548C241.899 229.748 231.153 233.432 221.118 230.676C212.039 228.187 203.724 219.904 202.124 209.774C201.656 206.828 201.791 203.874 202.424 200.94C202.935 198.568 204.06 195.624 205.319 193.393C207.966 188.695 211.746 184.743 216.204 182.118C217.345 181.443 218.528 180.827 219.707 180.232C220.581 179.791 220.855 178.322 220.895 177.374C220.919 176.769 220.828 175.13 219.916 175.419L219.921 175.427Z" fill="#D2E9EB"/>
<path d="M124.727 123.961C126.993 126.001 129.377 127.866 131.547 130.035C133.717 132.204 135.575 134.309 137.334 136.701C139.093 139.093 140.744 141.755 142.053 144.512C142.669 145.81 143.196 147.131 143.533 148.545C143.686 149.191 143.747 149.658 143.83 150.36C143.861 150.59 143.92 151.064 143.874 151.067C143.767 151.072 144.168 150.538 143.848 151.026C143.492 151.563 143.042 151.785 142.474 152.001C141.835 152.244 141.216 152.045 140.567 152.236C139.176 152.653 137.811 153.285 136.501 153.943C133.888 155.262 131.374 156.941 129.173 158.972C127.577 160.443 126.824 162.688 127.096 164.972C127.283 166.596 128.074 168.092 128.613 169.603C129.679 172.606 130.561 175.712 131.122 178.875C131.709 182.222 131.908 185.159 131.644 188.493C131.629 188.684 131.613 188.881 131.592 189.071C131.633 188.663 131.574 189.167 131.559 189.322C131.507 189.756 131.449 190.182 131.384 190.613C131.319 191.044 131.242 191.465 131.151 191.89C131.125 192.035 131.1 192.173 131.061 192.315C131.177 191.788 130.969 192.676 130.966 192.689C130.505 194.497 130.117 195.538 129.349 197.176L131.06 196.17C128.209 194.4 125.158 193.692 121.912 193.982C121.516 194.014 121.091 194.788 120.951 195.087C120.702 195.62 120.581 196.21 120.526 196.802C120.471 197.394 120.472 199.494 121.397 199.424C124.217 199.223 127.042 199.902 129.482 201.492C130.25 201.997 130.857 201.165 131.192 200.486C134.138 194.439 134.934 187.414 134.3 180.625C133.992 177.341 133.363 174.084 132.492 170.916C132.065 169.374 131.582 167.854 131.047 166.359C130.758 165.553 130.456 164.743 130.145 163.946C130.006 163.584 129.833 163.228 129.709 162.855C129.511 162.271 129.734 162.465 129.609 163.041L129.228 164.371C129.428 163.819 130.305 163.249 130.819 162.82C131.615 162.152 132.443 161.528 133.29 160.944C134.842 159.858 136.497 158.94 138.199 158.162C139.048 157.78 139.988 157.519 140.805 157.065C141.217 156.835 141.551 156.487 141.977 156.289C142.404 156.091 142.811 155.924 143.211 155.685C143.967 155.238 144.63 154.792 145.148 154.018C145.873 152.939 146.218 151.55 146.365 150.239C146.892 145.67 145.104 141.222 142.901 137.42C140.87 133.91 138.461 130.622 135.771 127.68C132.859 124.501 129.487 121.419 125.663 119.658C125.004 119.357 124.523 121.017 124.443 121.387C124.294 122.094 124.122 123.4 124.73 123.948L124.727 123.961Z" fill="#D2E9EB"/>
<path d="M120.254 195.647C119.906 196.431 119.547 197.205 119.151 197.964C118.721 198.801 118.472 199.226 118.068 199.918C117.205 201.39 116.254 202.799 115.224 204.14C113.231 206.736 110.882 209.071 108.351 211.099C103.189 215.232 97.1008 217.99 90.7497 219.07C77.5565 221.313 64.0765 215.256 55.0914 204.591C50.5912 199.246 47.3188 192.713 45.7777 185.675C45.3748 183.821 45.1298 182.263 44.959 180.333C44.7753 178.256 44.7376 176.938 44.7927 175.002C44.8216 174.045 44.8771 173.087 44.9592 172.127C44.9679 172.007 45.0227 171.416 44.9715 171.915C44.9927 171.689 45.0215 171.459 45.0491 171.235C45.1066 170.737 45.1705 170.241 45.2483 169.741C45.3876 168.795 45.5535 167.847 45.7436 166.912C45.765 166.795 45.8909 166.212 45.7826 166.698C45.8292 166.479 45.8833 166.254 45.9363 166.036C46.0509 165.551 46.1732 165.061 46.3006 164.58C47.2199 161.128 48.4708 157.853 50.1952 154.7C51.9196 151.547 54.0744 148.499 56.5523 145.891C61.3764 140.818 67.3679 137.211 73.7985 135.149C80.2647 133.074 87.146 132.604 93.8221 133.841C95.4914 134.149 97.1469 134.568 98.776 135.097C100.643 135.701 102.548 136.709 104.525 136.634C106.502 136.559 108.16 135.476 109.821 134.415C111.764 133.181 113.701 131.946 115.643 130.72C117.585 129.493 119.521 128.265 121.463 127.038C122.398 126.445 122.71 125.02 122.754 123.908C122.773 123.474 122.601 121.191 121.688 121.775C117.624 124.345 113.565 126.925 109.496 129.48C107.78 130.557 106.104 131.521 104.054 131.126C102.15 130.765 100.337 129.864 98.4656 129.324C91.6385 127.354 84.4175 127.295 77.5596 128.871C70.7017 130.447 64.1463 133.774 58.6987 138.605C52.9774 143.669 48.5763 150.449 45.8617 157.914C40.2972 173.189 41.0473 191.359 50.0046 205.117C58.0484 217.467 71.616 225.837 85.6077 225.236C99.5117 224.643 112.474 216.192 119.612 203.275C120.46 201.742 121.17 200.127 121.808 198.474C122.185 197.496 122.502 196.079 121.928 195.093C121.354 194.107 120.565 194.956 120.259 195.656L120.254 195.647Z" fill="#D2E9EB"/>
<path d="M129.008 145.034C128.499 144.307 127.889 143.629 127.187 143.124C126.562 142.673 125.804 142.227 125.027 142.281C124.157 142.342 123.419 142.62 122.724 143.203C122.03 143.785 121.508 144.688 121.177 145.562C120.333 147.801 120.083 150.771 121.639 152.757C122.669 154.07 124.431 154.413 125.902 154.029C126.812 153.79 127.66 153.199 128.35 152.529C128.753 152.131 129.145 151.688 129.457 151.206C129.898 150.529 130.186 149.818 130.416 149.029C130.617 148.356 130.678 147.514 130.437 146.84C130.368 146.638 130.27 146.45 130.089 146.358C129.852 146.24 129.708 146.344 129.49 146.488C129.778 146.288 129.492 146.475 129.439 146.513C129.221 146.657 129.121 146.735 128.96 146.929C128.799 147.122 128.627 147.306 128.46 147.498C128.085 147.924 127.667 148.296 127.214 148.603L127.515 148.405C126.915 148.794 126.257 149.068 125.56 149.155L125.864 149.123C125.124 149.192 124.393 149.069 123.717 148.714L123.987 148.862C123.573 148.631 123.219 148.327 122.921 147.929L123.136 148.237C123.053 148.11 122.971 147.983 122.902 147.853C122.863 147.779 122.836 147.708 122.803 147.636C122.697 147.418 122.861 147.75 122.859 147.8C122.868 147.751 122.811 147.623 122.795 147.569C122.737 147.376 122.822 147.238 122.823 147.777C122.822 147.712 122.814 147.646 122.805 147.586C122.765 147.225 122.783 148.142 122.807 147.867C122.818 147.805 122.828 147.678 122.818 147.625C122.817 147.632 122.716 148.328 122.787 148.013C122.904 147.443 122.639 148.605 122.762 148.151C122.868 147.751 122.711 148.392 122.669 148.404C122.69 148.401 122.731 148.245 122.743 148.219C122.774 148.154 122.929 147.851 122.748 148.191C122.567 148.531 122.726 148.237 122.764 148.174C122.801 148.117 122.83 148.066 122.873 148.011C122.91 147.955 123.097 147.724 122.91 147.955C122.722 148.186 122.884 147.985 122.925 147.944C122.976 147.884 123.033 147.825 123.09 147.766C123.195 147.66 123.304 147.57 123.413 147.48C123.609 147.309 123.409 147.5 123.398 147.491C123.398 147.491 123.567 147.393 123.583 147.382C124.161 147.075 124.847 146.936 125.488 146.866L125.225 146.892C125.817 146.84 126.265 146.812 126.836 146.942C127.337 147.056 127.715 147.271 128.114 147.621C128.513 147.97 128.881 147.22 128.982 146.919C129.148 146.439 129.338 145.505 129.013 145.042L129.008 145.034Z" fill="#D2E9EB"/>
<path d="M105.365 157.615C108.509 161.947 111.027 166.597 112.017 172.05C112.092 172.477 111.979 171.789 112.047 172.215C112.075 172.387 112.097 172.557 112.124 172.736C112.168 173.04 112.205 173.344 112.236 173.646C112.313 174.346 112.359 175.04 112.397 175.739C112.423 176.284 112.401 175.934 112.403 175.812C112.405 175.985 112.406 176.158 112.407 176.338C112.402 176.689 112.399 177.034 112.388 177.384C112.378 177.691 112.364 177.989 112.348 178.295C112.337 178.465 112.324 178.642 112.312 178.819C112.302 178.946 112.225 179.547 112.301 178.953C112.215 179.603 112.138 180.246 112.021 180.889C111.967 181.186 111.913 181.483 111.845 181.783C111.864 181.68 111.952 181.232 111.845 181.783C111.793 181.995 111.741 182.206 111.683 182.416C111.517 183.039 111.338 183.66 111.134 184.268C111.079 184.428 111.023 184.588 110.966 184.755C111.006 184.649 111.132 184.318 110.942 184.814C110.819 185.131 110.695 185.448 110.559 185.756C109.552 188.13 108.352 190.108 106.662 192.204C105.108 194.131 103.163 195.918 101.182 197.395C97.1182 200.433 92.1463 202.107 87.1905 202.059C76.7714 201.955 66.74 195.475 62.5571 184.866C61.6203 182.496 61.0361 179.932 60.777 177.579C60.7036 176.93 60.6568 176.279 60.624 175.624C60.6161 175.45 60.6082 175.276 60.6003 175.101C60.6055 175.218 60.6035 175.519 60.6001 174.993C60.597 174.648 60.6014 174.296 60.611 173.953C60.6314 173.26 60.6721 172.565 60.7319 171.874C60.6858 172.381 60.7695 171.594 60.7896 171.448C60.8397 171.064 60.8974 170.674 60.9665 170.295C61.0206 169.998 61.0747 169.701 61.1288 169.404C61.2092 168.962 61.0368 169.8 61.1363 169.362C61.1741 169.191 61.217 169.028 61.2547 168.857C61.4224 168.19 61.6155 167.53 61.8263 166.88C61.9601 166.472 61.7113 167.185 61.8579 166.779C61.8995 166.659 61.9476 166.541 61.9905 166.414C62.1143 166.097 62.2394 165.773 62.376 165.459C62.5125 165.145 62.6503 164.824 62.7982 164.519C62.8526 164.402 62.907 164.285 62.9677 164.17C62.9905 164.117 63.2169 163.673 63.1056 163.885C64.3212 161.565 65.8837 159.482 67.6916 157.686C71.4304 153.962 76.1217 151.469 81.1087 150.475C86.782 149.341 92.7747 150.193 98.1568 152.474C99.4826 153.034 100.791 153.691 102.057 154.396C102.958 154.896 103.536 153.61 103.746 152.817C103.942 152.07 104.33 149.937 103.471 149.389C92.9663 142.679 79.294 142.943 69.5113 150.779C59.7286 158.615 56.0786 172.052 59.0754 184.491C60.4799 190.319 63.4256 195.706 67.6544 199.638C71.9505 203.635 77.4295 206.146 83.0081 206.839C94.0424 208.212 105.103 202.471 110.796 192.116C116.489 181.761 116.616 166.544 109.304 156.382C108.503 155.265 107.564 154.361 106.501 153.551C105.805 153.019 105.272 154.278 105.113 154.825C104.858 155.716 104.781 156.828 105.341 157.602L105.365 157.615Z" fill="#D2E9EB"/>
<path d="M61.3223 206.748C62.0661 206.076 62.8036 205.402 63.5321 204.705C64.4456 203.827 65.5254 202.979 66.0653 201.757C66.3699 201.064 66.5094 200.226 66.4307 199.46C66.3945 199.078 66.2382 198.194 65.742 198.16C65.1277 198.121 64.6134 198.695 64.194 199.11C63.8329 199.459 63.4769 199.817 63.1158 200.166C62.3747 200.897 61.6564 201.647 60.9317 202.395C60.5884 202.756 60.3672 203.245 60.2258 203.731C60.0643 204.291 59.9666 205.009 60.0374 205.601C60.085 205.993 60.1558 206.584 60.4887 206.825C60.7809 207.035 61.06 206.991 61.3299 206.743L61.3223 206.748Z" fill="#D2E9EB"/>
<path d="M252.916 233.39C253.296 233.807 253.666 234.243 254.021 234.691L253.758 234.358C254.267 235.013 254.737 235.695 255.19 236.402C255.402 236.731 255.628 237.048 255.838 237.383C255.941 237.544 256.045 237.697 256.156 237.851C256.278 238.016 256.386 238.184 256.553 238.287C256.624 238.332 256.695 238.377 256.759 238.427C257.283 238.776 257.734 238.332 258.008 237.848C258.191 237.53 258.305 237.196 258.384 236.833C258.486 236.382 258.563 235.853 258.483 235.382C258.404 234.911 258.352 234.431 258.175 233.988C258.012 233.577 257.84 233.179 257.64 232.788C257.366 232.258 257.073 231.76 256.739 231.274C256.03 230.229 255.246 229.238 254.401 228.32C254.114 228.01 253.64 228.182 253.382 228.397C252.986 228.724 252.68 229.388 252.542 229.889C252.246 230.972 252.095 232.491 252.904 233.387L252.916 233.39Z" fill="#D2E9EB"/>
<path d="M142.383 134.57C144.742 135.265 146.391 132.231 147.504 130.478C148.924 128.233 150.573 126.472 152.965 125.499C155.357 124.525 158.03 124.479 160.503 125.415C163.44 126.529 166 128.7 169.067 129.426C174.118 130.625 178.647 127.203 182.937 124.921C185.053 123.791 187.267 122.813 189.646 122.563C192.025 122.313 194.29 122.691 196.483 123.463C198.918 124.319 201.163 125.75 203.069 127.629C203.988 128.535 204.828 129.546 205.524 130.661C205.888 131.24 206.209 131.837 206.52 132.455C206.874 133.161 207.088 133.799 207.717 134.266C208.825 135.079 209.161 132.214 209.145 131.613C209.052 128.788 207.282 126.199 205.553 124.188C203.823 122.177 201.92 120.795 199.752 119.669C195.438 117.437 190.444 117.092 186 118.951C181.557 120.81 177.24 124.841 172.159 125.045C169.083 125.165 166.411 123.537 163.726 122.092C161.041 120.647 158.476 119.884 155.536 120.345C152.597 120.806 149.84 122.552 147.934 125.067C147.073 126.201 146.407 127.496 145.61 128.681C144.73 129.991 143.686 131.041 142.477 131.981C141.992 132.36 141.574 134.329 142.376 134.568L142.383 134.57Z" fill="#D2E9EB"/>
<path d="M147.693 145.593C150.412 147.578 153.962 148.011 157.127 147.623C160.291 147.235 163.58 145.617 166.07 143.271C167.395 142.019 168.586 140.6 170.008 139.47C171.43 138.341 173.197 137.714 174.98 137.796C175.792 137.837 176.658 137.984 177.396 138.396C178.277 138.891 178.717 139.782 179.284 140.623C180.371 142.244 181.764 143.452 183.426 144.305C185.232 145.24 187.185 145.663 189.174 145.633C191.294 145.604 193.677 145.298 195.628 144.382C196.705 143.879 197.419 139.813 195.779 140.073C193.894 140.364 192.124 140.975 190.195 141.004C188.398 141.034 186.565 140.754 184.877 140.039C183.356 139.391 181.888 138.303 180.885 136.881C180.349 136.119 179.941 135.235 179.265 134.592C178.589 133.95 177.744 133.578 176.909 133.374C173.135 132.465 169.978 134.696 167.351 137.327C166.17 138.511 164.992 139.718 163.585 140.584C162.177 141.451 160.749 142.032 159.226 142.412C157.508 142.841 155.74 143.007 153.982 142.859C152.101 142.698 150.38 142.163 148.567 141.628C147.401 141.277 146.868 144.967 147.697 145.573L147.693 145.593Z" fill="#D2E9EB"/>
<path d="M211.028 137.464C211.125 137.55 211.215 137.636 211.304 137.728L210.976 136.841C211.005 137.408 211.188 137.859 211.608 138.2C211.792 138.349 212.002 138.469 212.195 138.606C212.581 138.881 212.96 139.161 213.32 139.473C214.035 140.082 214.671 140.802 215.27 141.542C215.475 141.797 215.879 141.644 216.057 141.469C216.329 141.207 216.492 140.856 216.625 140.491C216.785 140.045 216.896 139.546 216.904 139.066C216.911 138.629 216.915 138.025 216.664 137.659L216.848 139.664L216.903 139.073C216.924 138.667 216.877 138.233 216.735 137.855C216.658 137.658 216.569 137.53 216.453 137.367C216.252 137.091 216.059 136.81 215.834 136.557C215.483 136.161 215.083 135.818 214.677 135.503C214.226 135.149 213.757 134.855 213.256 134.597C213.044 134.492 212.828 134.371 212.603 134.298C212.497 134.26 212.351 134.226 212.241 134.216C211.887 134.2 211.602 134.459 211.431 134.779L212.046 134.38C211.934 134.376 211.821 134.379 211.708 134.382C211.152 134.385 210.908 135.149 210.807 135.63C210.734 135.958 210.68 136.327 210.73 136.67C210.765 136.951 210.815 137.293 211.031 137.486L211.028 137.464Z" fill="#D2E9EB"/>
<path d="M199.857 132.996C199.696 131.845 199.076 130.568 198.259 129.793C197.538 129.104 196.578 128.569 195.708 128.155C194.003 127.351 191.888 127.244 190.109 127.717C187.637 128.37 186.056 131.426 186.756 134.117C187.06 135.279 187.873 135.967 188.826 136.471C189.778 136.976 190.839 137.396 191.904 137.682C193.109 137.999 194.349 138.159 195.586 138.152C196.823 138.146 198.336 138.08 199.303 137.056C199.647 136.688 199.806 136.142 199.846 135.633C199.877 135.281 199.914 134.534 199.58 134.3C198.834 133.785 197.899 133.982 197.063 134.037C196.139 134.1 195.206 134.068 194.283 133.944C192.618 133.724 190.775 133.247 189.315 132.297C189.025 132.109 188.81 131.801 188.555 131.606C188.567 131.609 188.447 131.438 188.483 131.453C188.49 131.455 188.419 132.64 188.417 132.653L188.326 132.863C188.211 133.096 188.196 133.142 188.28 133.004C188.316 132.99 188.326 132.935 188.359 132.899C188.872 132.333 189.69 132.087 190.39 131.944C191.894 131.639 193.421 131.893 194.87 132.395C195.728 132.691 196.434 133.06 197.198 133.586C197.533 133.813 197.899 133.946 198.247 134.141C198.595 134.335 198.993 134.511 199.378 134.426C199.798 134.335 199.92 133.341 199.868 133.006L199.857 132.996Z" fill="#D2E9EB"/>
<path d="M158.132 127.875C157.049 127.542 155.874 127.383 154.764 127.634C153.654 127.885 152.557 128.505 151.614 129.219C150.455 130.099 149.588 131.268 149.183 132.765C148.747 134.399 148.874 136.24 149.928 137.566C151.58 139.638 154.624 139.697 156.916 139.744C159.208 139.79 161.734 139.818 163.127 137.618C163.935 136.335 164.284 134.602 164.13 133.05C164.018 131.888 163.505 130.204 162.166 130.661C161.348 130.943 161.095 132.949 161.516 133.649C161.683 133.931 161.821 134.222 161.996 134.499C162.067 134.616 162.138 134.733 162.202 134.855C162.187 134.83 162.11 134.669 162.189 134.816C162.253 134.938 162.196 135.177 162.208 134.856C162.19 135.212 162.226 134.616 162.237 134.518C162.194 134.932 162.297 134.15 162.229 134.559C162.231 134.552 162.32 134.206 162.267 134.424C162.222 134.601 162.279 134.398 162.306 134.354C162.305 134.361 162.159 134.543 162.257 134.443C162.339 134.354 162.152 134.549 162.135 134.567C160.938 135.661 159.08 135.483 157.614 135.437C155.807 135.378 153.626 135.336 152.042 134.235C151.755 134.033 151.466 133.802 151.241 133.513C151.166 133.417 151.105 133.317 151.048 133.196C150.941 132.985 151.024 133.184 151.022 133.19L150.98 133.023L151.026 133.536C151.026 133.536 150.843 134.466 150.828 134.477C150.743 134.508 150.886 134.375 150.939 134.301C151.051 134.16 151.181 134.025 151.309 133.903C151.616 133.599 151.952 133.315 152.307 133.073C153.046 132.572 153.86 132.275 154.693 132.019C155.646 131.725 156.565 131.466 157.567 131.45C158.654 131.431 159.227 128.21 158.132 127.875Z" fill="#D2E9EB"/>
</g>
</svg>
