<svg width="1919" height="274" viewBox="0 0 1919 274" fill="none" xmlns="http://www.w3.org/2000/svg">
<path d="M1919 274V49.0603L1652.89 12.9918L1652.89 12.9912C1626.48 9.41187 1613.28 7.62212 1600.13 6.19329C1493.57 -5.39075 1385.83 0.234562 1281.05 22.8539C1268.13 25.6439 1255.18 28.7992 1229.29 35.1095L1229.29 35.1101L1229.29 35.1107C1196 43.2237 1179.35 47.2803 1162.79 50.7272C1028.37 78.7086 889.628 78.7086 755.207 50.7272C738.648 47.2803 722.003 43.2235 688.712 35.1101C662.818 28.7993 649.871 25.644 636.947 22.8539C532.167 0.234562 424.432 -5.39075 317.866 6.19329C304.721 7.62219 291.516 9.41206 265.105 12.9918L-1 49.0603V274H1919Z" fill="#32B3BE"/>
</svg>
