<svg width="387" height="424" viewBox="0 0 387 424" fill="none" xmlns="http://www.w3.org/2000/svg">
<path d="M71.748 204.85C74.2042 134.834 130.833 77.3795 198.232 76.5225C265.63 75.6655 318.277 131.73 315.82 201.747L310.741 346.538L66.6687 349.641L71.748 204.85Z" fill="#ABEA8E"/>
<g style="mix-blend-mode:multiply" opacity="0.3">
<path d="M160.412 167.347C147.352 161.221 131.549 165.647 120.061 174.849C108.573 184.052 101.956 199.669 100.91 214.585C99.7255 231.391 104.564 248.04 113.682 261.328C118.4 268.197 124.053 274.228 130.493 279.331C136.932 284.434 143.911 287.85 150.767 291.938C154.587 294.225 158.213 296.766 161.349 300.004C164.485 303.242 167.397 306.929 170.672 310.119C173.948 313.309 177.304 315.828 181.298 317.684C185.291 319.54 189.296 320.877 193.717 319.97C195.042 319.7 194.55 316.767 194.38 316.039C194.038 314.627 193.359 312.787 191.924 312.295C188.395 311.08 184.698 310.265 181.265 308.788C178.132 307.45 175.197 305.516 172.636 303.223C166.8 297.998 162.402 291.335 156.097 286.628C149.793 281.922 142.884 278.968 136.48 274.81C130.446 270.897 124.913 266.226 120.153 260.73C115.393 255.235 111.688 249.29 109.081 242.696C109.16 242.883 108.503 241.179 108.721 241.776C108.938 242.374 108.332 240.652 108.395 240.831C108.113 239.998 107.857 239.157 107.61 238.298C107.522 237.972 107.433 237.645 107.341 237.305C107.33 237.266 106.915 235.635 107.16 236.638C106.961 235.805 106.788 234.964 106.641 234.114C106.009 230.715 105.735 227.821 105.725 224.007C105.691 210.722 110.879 196.626 120.6 187.088C131.778 176.134 147.573 171.725 161.86 175.641C163.521 176.099 163.272 172.782 163.135 171.971C162.831 170.189 162.059 168.11 160.412 167.347Z" fill="#ABEA8E"/>
<path d="M206.859 323.952C214.063 325.189 222.46 325.057 229.3 321.43C236.662 317.537 239.705 310.027 242.862 302.577C250.131 285.434 257.728 268.378 264.622 251.078C267.682 243.376 270.288 235.273 270.799 227.005C271.383 217.782 269.795 208.821 267.557 200.07C263.531 184.27 257.691 168.009 245.775 157.171C235.02 147.392 217.605 143.995 205.102 154.047C204.545 154.496 204.527 156.061 204.551 156.61C204.594 157.839 204.936 159.151 205.41 160.232C205.962 161.5 207.257 163.771 208.805 162.537C218.865 154.556 233.043 156.537 242.544 163.174C247.948 166.96 252.085 172.456 255.195 178.405C255.825 179.603 256.599 181.281 257.226 182.724C257.527 183.421 257.83 184.132 258.118 184.833C258.292 185.274 258.471 185.727 258.646 186.167C258.746 186.433 258.846 186.699 258.962 186.973C259.179 187.57 259.227 187.697 259.11 187.366C260.356 190.783 261.41 194.308 262.381 197.834C264.323 204.886 265.999 212.13 265.95 219.753C265.9 227.376 263.625 234.808 260.958 241.917C258.04 249.684 254.692 257.299 251.497 264.962C248.067 273.191 244.641 281.434 241.212 289.663C239.43 293.965 237.749 298.333 235.777 302.543C234.067 306.192 231.751 309.648 228.412 311.885C221.421 316.536 213.073 316.136 205.325 317.232C204.167 317.402 204.607 320.095 204.747 320.662C205 321.747 205.648 323.726 206.897 323.939L206.859 323.952Z" fill="#ABEA8E"/>
<path d="M177.495 145.652C177.424 140.444 174.995 135.933 171.351 132.713C168.218 129.945 163.589 128.808 159.576 128.103C155.257 127.345 150.956 127.11 146.828 125.472C144.935 124.723 142.982 123.751 141.508 122.3C141.301 122.099 141.096 121.855 140.911 121.633C140.868 121.576 140.309 120.74 140.649 121.28C140.255 120.644 140.532 121.306 140.702 121.576C140.485 121.236 140.649 121.38 140.679 120.827C140.801 119.083 140.331 117.2 139.468 115.753C139.016 115.008 137.907 113.574 136.988 114.577C130.894 121.307 129.797 130.478 131.939 138.877C133.033 143.161 135.115 147.362 138.166 150.387C141.518 153.707 145.792 155.167 150.308 156.143C154.47 157.04 159.518 157.475 162.798 160.478C163.42 161.036 164.023 161.829 164.267 162.217C164.384 162.391 164.838 163.25 164.55 162.648C164.669 162.879 164.765 163.132 164.87 163.367C164.71 162.979 164.638 162.918 164.834 163.337C164.326 162.282 164.907 163.912 164.846 163.433C164.756 162.792 164.743 163.969 164.837 163.45C164.906 163.04 164.817 163.629 164.811 163.659C164.753 164.008 164.53 164.714 164.106 165.346C161.021 169.797 154.395 168.289 150.046 169.358C145.697 170.426 141.824 173.604 139.424 177.519C135.976 183.181 135.818 189.383 137.098 195.576C137.621 198.113 138.489 200.802 137.932 203.339C137.374 205.876 135.925 207.833 133.6 208.604C132.445 208.988 132.584 211.185 132.67 212.013C132.854 213.708 133.439 215.508 134.528 216.764C140.074 223.218 150.834 223.016 156.584 215.989C158.187 214.036 159.083 211.626 159.833 209.237C160.584 206.849 161.275 204.194 163.16 202.416C165.984 199.757 170.657 200.035 173.531 202.005C174.261 202.497 174.746 203.059 174.962 203.399C174.862 203.233 174.873 202.915 174.898 203.264C174.932 203.796 174.816 202.963 174.774 202.806C174.721 202.61 174.832 202 174.723 202.466C174.683 202.623 174.699 203.447 174.699 203.447C174.428 207.043 174.277 210.312 175.538 213.681C177.475 218.876 181.652 221.613 186.822 222.449C189.095 222.81 191.419 222.853 193.742 222.74C195.874 222.635 198.176 222.343 200.08 221.144C205.578 217.678 203.202 209.231 199.48 205.723C197.709 204.045 195.413 203.035 193.677 201.331C193.486 201.139 193.336 200.89 193.133 200.703C193.244 200.808 193.519 201.413 193.296 200.947C193.065 200.455 193.365 201.152 193.392 201.2C193.815 202.198 193.445 200.781 193.48 201.627C193.444 200.882 193.447 201.095 193.494 200.607C193.557 199.971 193.632 199.33 193.749 198.689C194.19 196.078 194.951 193.529 195.367 190.926C195.885 187.631 195.718 184.415 194.849 181.268L193.762 186.289C200.361 188.664 208.274 190.371 215.137 187.036C221.379 184.015 225.196 177.925 225.235 170.877C225.239 169.361 223.961 164.196 221.68 164.924C218.278 166.01 214.767 165.932 211.507 164.738C210.016 164.194 208.629 163.37 207.397 162.35C206.789 161.845 206.237 161.291 205.751 160.672C205.04 159.788 205.867 160.947 205.246 159.988C205.246 159.988 204.602 158.838 204.872 159.374C204.861 159.334 204.245 157.931 204.607 158.807C204.256 157.97 204.529 158.519 204.551 158.855C204.528 158.363 204.508 158.084 204.771 157.521C205.612 155.673 207.982 155.172 209.553 154.274C212.07 152.835 213.838 150.525 214.811 147.731C217.127 141.114 215.364 132.628 211.022 127.704C208.76 125.137 206.13 124.427 202.92 123.773C202.274 123.638 201.374 123.534 200.859 123.067C200.768 122.985 200.863 123.081 200.87 123.107C201.213 123.503 200.657 122.222 200.643 122.17C199.958 119.646 199.132 117.214 197.728 115.053C196.324 112.891 194.619 111.148 192.475 109.984C190.481 108.912 188.308 108.459 186.123 107.91C185.171 107.667 184.181 107.436 183.294 107.026C182.932 106.865 182.578 106.686 182.274 106.433C182.046 106.255 181.891 105.836 181.944 106.133C181.984 106.333 182.14 106.651 182.209 106.856C181.788 105.714 182.414 107.558 182.291 107.514C182.156 107.475 182.906 106.616 183.226 106.42L180.291 98.3094C175.402 107.284 171.638 118.059 177.347 127.203C179.656 130.911 183.269 132.999 186.714 135.387C187.463 135.901 188.219 136.441 188.891 137.082C189.134 137.313 189.371 137.574 189.58 137.831C189.745 138.032 190.037 138.446 190.041 138.459C189.661 137.875 190.055 138.612 190.023 138.394C189.998 138.302 190.022 138.694 190.023 138.751C189.993 139.305 189.832 140.189 189.57 140.909C187.906 145.542 182.494 147.691 178.351 146.201C176.585 145.565 176.804 149.379 176.941 150.19C177.248 151.985 178.09 154.526 179.901 155.175C183.844 156.591 188.624 155.532 191.612 152.101C195.042 148.16 195.26 142.281 193.999 137.582C192.737 132.884 189.63 129.193 185.566 126.718C183.837 125.654 182.022 124.735 180.446 123.419C179.874 122.944 179.371 122.417 178.939 121.793C178.553 121.24 178.579 121.131 178.54 120.529C178.273 115.617 181.288 110.247 183.649 106.089C184.518 104.546 184.085 102.493 183.527 100.998C183.231 100.214 181.984 97.2544 180.713 97.9781C176.625 100.315 177.774 106.382 179.204 109.864C180.018 111.843 181.249 113.778 182.976 114.985C184.702 116.192 186.876 116.802 188.954 117.316C191.032 117.83 193.11 118.344 194.75 119.795C195.317 120.301 195.786 120.854 196.174 121.521C196.563 122.188 196.018 120.946 196.266 121.704C196.461 122.323 196.61 122.972 196.78 123.6C197.527 126.402 198.595 129.266 200.721 131.179C202.388 132.678 204.455 132.896 206.572 133.296C207.914 133.549 209.103 133.998 210.113 134.965C209.811 134.669 210.345 135.257 210.411 135.349C210.876 135.889 210.248 135.004 210.61 135.623C210.814 135.967 211.039 136.49 210.743 135.806C210.807 135.941 210.924 136.116 210.954 136.277C211.061 136.926 210.739 135.436 210.9 136.081C210.989 136.408 211.152 137.567 211.015 136.399C211.056 136.756 211.148 137.096 211.19 137.454C211.093 136.687 211.156 137.38 211.172 137.746C211.183 137.785 211.177 138.373 211.188 137.955C211.199 137.536 211.164 138.277 211.157 138.352C211.019 139.629 210.847 140.731 210.099 142.104C209.53 143.172 208.638 144.223 207.667 144.929C205.912 146.219 203.773 146.656 202.133 148.164C198.311 151.682 200.01 158.603 201.627 162.521C205.238 171.229 215.024 177.438 224.297 173.645L220.742 167.692C220.904 172.826 215.621 177.39 211.319 179.043C204.984 181.467 198.21 179.825 192.271 177.638C190.119 176.849 191.042 182.136 191.184 182.659C191.12 182.424 191.14 181.887 191.198 182.711C191.186 182.615 191.148 182.171 191.184 182.659C191.244 183.239 191.228 183.13 191.203 183.596C191.141 184.646 190.968 185.692 190.75 186.725C190.281 188.975 189.638 191.197 189.239 193.451C188.292 198.738 189.268 204.779 192.889 208.579C194.494 210.257 196.473 211.377 198.325 212.741C198.638 212.976 198.98 213.316 199.279 213.499C199.727 213.773 199.377 213.708 199.249 213.237C199.189 213.015 198.751 210.993 198.675 211.019C198.51 211.076 198.015 211.904 197.803 212.091C194.78 214.676 189.196 214.154 185.75 213.653C183.748 213.37 181.656 212.904 179.963 211.771C179.657 211.562 179.267 211.296 179.053 211.07C179.243 211.261 178.686 210.638 178.703 210.647C178.375 210.459 178.689 210.494 178.703 210.647C178.716 210.799 178.933 211.24 178.97 211.327C179.063 211.566 178.902 211.893 179.004 211.501C179.116 211.048 179.062 210.337 179.1 209.867C179.586 204.109 178.44 198.356 174.094 194.691C171.183 192.233 166.857 191.192 163.132 192.517C158.372 194.214 157.028 199.209 155.547 203.65C154.066 208.092 150.858 211.27 146.292 212.355C142.39 213.284 137.893 212.431 135.383 209.406L136.31 217.565C141.293 216.078 142.878 209.828 142.812 205.147C142.736 199.969 139.987 194.739 141.477 189.722C142.775 185.372 146.034 181.562 150.002 179.653C154.734 177.394 160.193 179.089 164.767 176.556C169.342 174.023 170.089 168.819 169.217 164.23C168.292 159.344 165.721 154.667 161.844 151.813C154.694 146.54 143.608 149.571 137.605 142.302C137.211 141.822 137.079 141.639 136.874 141.295C136.754 141.108 136.151 140.057 136.38 140.493C136.144 140.031 135.938 139.53 135.737 139.042C135.726 139.003 135.505 138.392 135.647 138.815C135.804 139.29 135.502 138.279 135.477 138.187C135.47 138.161 135.292 137.508 135.413 137.952C135.544 138.436 135.305 137.403 135.281 137.311C135.24 137.111 135.064 135.799 135.119 136.309C135.011 135.246 134.986 134.439 135.057 133.528C135.35 129.252 137.065 124.959 140.308 122.113L136.621 115.876C135.857 121.429 138.146 127.003 141.987 130.542C145.333 133.636 149.893 135.182 154.299 135.953C158.704 136.724 162.899 136.824 167.05 138.24C168.866 138.859 170.7 139.699 172.255 140.837C172.774 141.216 173.369 141.726 173.654 142.114C173.846 142.362 174.021 142.903 173.82 142.314C174.101 143.147 173.879 142.022 173.948 143.042C174.045 144.524 174.556 146.864 175.9 147.631C177.244 148.398 177.546 146.707 177.53 145.626L177.495 145.652Z" fill="#ABEA8E"/>
<path d="M177.945 183.014C179.683 183.144 181.62 182.935 183.22 182.041C184.819 181.147 186.21 179.997 187.37 178.61C190.431 174.94 192.205 168.925 189.508 164.807C189.148 164.244 188.706 163.639 187.974 163.748C187.895 163.761 187.828 163.769 187.745 163.769C187.414 163.926 187.197 164.201 187.093 164.58C186.893 165.121 186.892 165.679 186.837 166.241C186.82 166.433 186.794 166.642 186.764 166.838C186.747 166.93 186.654 167.505 186.732 167.078C186.81 166.651 186.688 167.222 186.671 167.313C186.625 167.5 186.57 167.705 186.511 167.897C186.394 168.281 186.251 168.673 186.101 169.039C186.032 169.192 185.966 169.357 185.897 169.51C185.873 169.575 185.603 170.111 185.722 169.885C185.849 169.641 185.59 170.116 185.563 170.168C185.459 170.347 185.355 170.526 185.248 170.691C184.831 171.349 184.362 171.968 183.845 172.561C182.784 173.756 181.869 174.414 180.587 175.199C179.304 175.983 177.956 176.576 176.5 176.877C176.068 176.969 175.876 177.793 175.84 178.119C175.781 178.769 175.856 179.401 176.007 180.007C176.159 180.669 176.372 181.353 176.742 181.898C177.005 182.308 177.423 182.979 177.945 183.014Z" fill="#ABEA8E"/>
<path d="M224.544 216.738C224.788 217.841 224.923 218.952 225.088 220.068C224.875 218.569 225.043 219.698 225.081 220.042C225.099 220.264 225.109 220.504 225.128 220.726C225.16 221.302 225.162 221.872 225.165 222.443C225.153 223.42 225.208 221.685 225.168 222.457C225.158 222.775 225.144 223.08 225.121 223.402C225.091 223.956 225.048 224.514 224.993 225.076C224.938 225.638 224.842 226.201 224.787 226.763C224.754 227.103 224.706 227.434 224.673 227.774C224.611 228.41 224.631 229.047 224.744 229.666C224.789 230.036 224.775 229.984 224.73 229.513C224.856 230.742 225.109 231.928 225.763 232.961C226.06 233.444 226.825 234.525 227.56 234.172C227.818 234.054 228.112 233.91 228.304 233.701C228.549 233.431 228.693 232.938 228.821 232.594C229.113 231.836 229.258 231.042 229.419 230.258C229.737 228.776 229.845 227.337 229.893 225.834C229.995 222.639 229.528 219.54 228.746 216.507C228.496 215.535 227.912 214.249 227.218 213.53C226.81 213.099 226.36 212.667 225.723 212.715C224.14 212.802 224.326 215.784 224.544 216.738Z" fill="#ABEA8E"/>
<path d="M177.182 247.843C178.751 249.948 180.31 252.07 181.879 254.175C183.447 256.28 185.002 258.59 187.298 259.601C188.068 259.936 188.442 258.664 188.515 258.167C188.683 256.951 188.319 255.761 187.912 254.671C186.742 251.586 184.736 248.888 182.816 246.304C181.244 244.186 179.672 242.068 178.087 239.954C177.719 239.466 176.884 238.838 176.204 239.087C175.523 239.335 175.217 240.399 175.158 241.048C174.915 243.52 175.79 245.978 177.186 247.856L177.182 247.843Z" fill="#ABEA8E"/>
<path d="M155.981 266.509C157.372 267.96 158.714 269.486 160.179 270.854C161.645 272.222 163.2 273.617 164.794 274.898C165.163 275.186 165.8 275.238 166.128 274.811C166.455 274.384 166.546 273.752 166.563 273.202C166.626 271.494 166.036 269.781 165.024 268.5C163.713 266.835 162.363 265.227 160.961 263.636C159.646 262.159 158.21 260.795 156.817 259.387C156.416 258.982 155.767 258.376 155.099 258.62C154.432 258.864 154.201 259.802 154.137 260.381C154.02 261.48 154.166 262.63 154.497 263.646C154.828 264.661 155.235 265.751 155.965 266.5L155.981 266.509Z" fill="#ABEA8E"/>
<path d="M211.888 292.897L212.162 291.201L211.704 292.474C212.721 290.966 212.627 288.682 212.8 286.921C212.973 285.16 213.081 283.365 213.224 281.599L213.625 276.443C213.866 273.301 214.051 269.748 211.861 267.343C211.566 266.972 211.192 266.715 210.737 266.571C210.082 266.454 209.699 266.829 209.605 267.705C209.069 268.69 208.976 268.908 208.91 269.888C208.841 270.756 208.8 271.628 208.731 272.495L208.386 277.703C208.268 279.46 208.162 281.212 208.085 282.969C208.052 283.866 208.015 284.751 207.969 285.654C207.895 286.351 207.93 287.04 208.044 287.715C208.101 288.181 208.116 288.234 208.094 287.898C208.108 288.408 208.1 288.94 208.101 289.454C208.101 290.984 208.75 293.019 209.894 293.969C210.898 294.81 211.688 294.252 211.904 292.906L211.888 292.897Z" fill="#ABEA8E"/>
<path d="M239.566 262.993C240.411 261.516 241.29 260.112 242.067 258.587C242.844 257.061 243.573 255.566 244.292 254.032C245.011 252.497 245.706 251.028 246.407 249.529C247.108 248.029 248.037 246.452 248.559 244.856C249.178 242.956 248.577 240.69 247.731 239.051C247.39 238.41 246.934 237.595 246.298 237.242C245.808 236.968 245.063 236.724 244.656 237.364C243.699 238.838 243.063 240.629 242.333 242.225C241.603 243.82 240.909 245.345 240.197 246.906C239.486 248.466 238.814 249.97 238.156 251.526C237.825 252.298 237.39 253.091 237.182 253.906L237.005 254.682L236.991 254.529C236.904 254.717 236.848 254.922 236.773 255.105C236.585 255.584 236.413 256.072 236.225 256.552C235.641 258.125 236.252 260.174 236.95 261.521C237.237 262.065 237.633 262.758 238.162 263.076C238.555 263.299 239.229 263.538 239.55 262.985L239.566 262.993Z" fill="#ABEA8E"/>
</g>
</svg>
