<svg width="253" height="281" viewBox="0 0 253 281" fill="none" xmlns="http://www.w3.org/2000/svg">
<path fill-rule="evenodd" clip-rule="evenodd" d="M247.855 68.5406C247.855 81.2973 241.4 93.2297 230.179 103.414C244.369 114.426 252.702 127.856 252.702 142.35C252.702 155.247 246.104 167.302 234.654 177.559C246.104 187.817 252.702 199.871 252.702 212.768C252.702 250.143 197.294 280.441 128.944 280.441C60.5947 280.441 5.18649 250.143 5.18649 212.768C5.18649 199.871 11.7841 187.817 23.2344 177.559C11.7841 167.302 5.18649 155.247 5.18649 142.35C5.18649 129.593 11.6414 117.661 22.8627 107.477C8.6731 96.4652 0.339844 83.035 0.339844 68.5406C0.339844 31.1656 55.7481 0.867188 124.098 0.867188C192.447 0.867188 247.855 31.1656 247.855 68.5406Z" fill="#FF9C54"/>
<g opacity="0.3">
<path d="M91.1403 65.3097C90.5152 61.0688 87.0766 59.9552 83.9817 58.4575C81.2597 57.1352 79.3422 54.7674 78.9749 51.4962C78.954 51.2911 78.9331 51.086 78.9239 50.874C78.8922 50.3575 78.9234 51.2253 78.9213 50.7083C78.9216 50.5327 78.9688 49.5607 78.916 50.1682C78.954 49.7532 79.0156 49.3245 79.0983 48.9253C78.9413 49.6938 79.1238 49.0441 79.1134 48.9415C79.2117 48.5917 79.2257 48.5418 79.1527 48.8016C79.0707 49.0583 79.0937 49.0115 79.2009 48.6649C79.3837 48.224 79.5436 47.83 79.7754 47.4943C80.2474 46.7929 80.7343 46.2835 81.3749 45.7514C84.1508 43.4567 87.845 42.8918 91.2016 43.4932C92.9126 43.7999 94.5807 44.3991 96.1255 45.2623C98.1007 46.3762 99.8456 47.9252 101.74 49.1864C103.635 50.4476 105.778 51.3463 108.104 51.3534C110.29 51.3664 112.409 50.8503 114.54 50.3273C121.735 48.5581 128.922 49.192 135.757 52.3381C142.592 55.4841 148.24 60.6174 152.233 67.3089C156.225 74.0004 157.406 82.7984 160.373 90.3804C161.899 94.28 163.991 97.9504 166.977 100.64C170.314 103.651 174.345 105.523 177.665 108.561C180.432 111.086 182.312 114.319 183.41 118.101C184.508 121.882 184.634 125.244 184.593 128.954C184.585 129.961 184.547 130.97 184.501 131.975C184.476 132.482 184.454 132.98 184.42 133.484C184.409 133.733 184.387 133.989 184.376 134.237C184.412 133.69 184.362 134.32 184.348 134.546C184.181 136.641 183.965 138.739 183.73 140.832C183.481 143.083 183.184 145.329 182.776 147.547C182.626 148.395 182.708 147.897 182.746 147.724C182.688 148 182.63 148.276 182.573 148.552C182.448 149.101 182.326 149.641 182.183 150.183C182.04 150.726 181.882 151.253 181.734 151.783C181.703 151.892 181.482 152.54 181.694 151.922C181.584 152.246 181.476 152.559 181.356 152.88C180.691 154.655 179.969 156.104 178.755 157.631C177.435 159.286 175.803 160.479 174.087 161.554C172.18 162.749 170.17 163.82 168.473 165.386C166.595 167.107 165.105 169.229 164.118 171.727C163.132 174.224 162.603 177.366 163.223 180.122C163.554 181.601 164.538 182.08 165.527 180.868C166.516 179.657 167.268 177.187 166.908 175.5C166.882 175.381 166.65 174.355 166.743 175.003C166.67 174.494 166.807 174.564 166.742 174.903C166.635 175.492 166.704 174.967 166.773 174.794C166.581 175.231 166.841 174.653 166.867 174.596C166.988 174.375 167.115 174.134 167.263 173.923C167.428 173.684 167.917 173.099 168.241 172.785C169.819 171.221 171.85 170.213 173.688 169.092C177.794 166.607 180.884 163.193 183.052 158.553C185.22 153.913 186.367 148.748 187.109 143.594C187.77 139.004 188.216 134.339 188.462 129.691C188.92 121.175 188.331 111.74 183.565 104.688C180.958 100.825 177.128 98.5184 173.5 96.0527C169.872 93.587 166.979 90.8095 164.977 86.786C161.262 79.2807 160.38 70.4673 156.554 63.0104C152.727 55.5536 147.059 49.897 140.222 46.234C133.385 42.5709 125.823 41.2777 118.463 42.6588C114.067 43.4818 109.75 45.4965 105.383 43.3857C103.232 42.3414 101.378 40.6883 99.3873 39.3162C97.7407 38.1863 95.9797 37.3237 94.094 36.8346C90.4982 35.8962 86.5809 36.2067 83.2898 38.133C79.7023 40.2404 77.3672 44.0417 76.326 48.3762C75.391 52.2977 75.2921 56.8435 77.087 60.4863C78.8819 64.129 81.9348 65.0078 85.1096 66.5007C86.1928 67.0145 87.8936 67.8119 88.1474 69.2855C88.3623 70.5476 89.1792 70.8906 89.9663 69.8719C90.8318 68.7491 91.3555 66.7807 91.1403 65.3097Z" fill="#FBC4E2"/>
<path d="M90.5542 74.7698C82.3732 81.3762 82.052 95.3456 86.0684 104.748C90.7423 115.689 101.005 121.175 109.314 128.06C111.162 129.59 113.593 131.282 114.801 133.554C114.887 133.705 115.008 134.077 115.087 134.215C115.413 134.769 115.048 134.563 115.13 134.482C115.171 134.442 115.24 133.566 115.273 133.412C115.637 132.014 115.038 133.692 115.604 132.551C115.374 133.02 115.667 132.431 115.722 132.373C115.641 132.455 115.21 132.94 115.671 132.487C115.408 132.757 115.119 132.984 114.817 133.186C113.817 133.877 112.285 134.435 110.928 134.967C109.45 135.544 107.913 136.156 106.598 137.131C102.726 140.006 101.662 146.376 104.037 150.717C104.47 151.518 104.976 152.268 105.397 153.076C105.623 153.496 105.831 153.943 105.966 154.407C106.003 154.519 106.125 154.749 106.035 154.827C106.049 154.81 106.482 152.711 106.468 152.552C106.452 152.151 106.78 152.42 106.51 152.402C106.394 152.394 106.021 152.779 105.906 152.838C105.527 153.033 105.061 153.155 104.653 153.242C103.534 153.484 102.484 153.344 101.388 152.98C98.4698 152.006 95.7885 150.05 92.6304 150.419C90.5074 150.67 88.5696 152.184 87.2014 153.943C83.861 158.246 82.3268 165.384 85.2299 170.395L87.0468 163.335C83.1943 164.778 79.3044 162.44 76.0226 160.349C72.7407 158.258 69.1725 155.264 65.2466 155.011C59.411 154.634 56.084 161.162 55.4972 166.92C54.8611 173.132 56.8155 179.248 60.4891 183.894C67.9875 193.381 79.4784 195.895 90.0472 198.161C96.7702 199.609 103.724 201.215 109.631 205.286C114.799 208.844 118.915 214.326 124.647 216.853C127.958 218.317 131.149 217.97 134.51 216.947C136.208 216.426 137.899 216 139.676 216.177C141.453 216.353 143.165 216.901 144.868 217.447C147.911 218.432 150.925 219.341 154.118 218.742C157.468 218.111 160.006 215.787 161.306 212.28C161.736 211.135 162.328 208.818 161.335 207.808C160.342 206.799 159.262 208.791 158.915 209.57C159.147 209.058 158.582 209.848 158.889 209.56C158.147 210.276 159.254 209.272 158.51 209.965C158.136 210.316 157.705 210.626 157.258 210.853C156.283 211.355 155.169 211.577 154.099 211.683C151.427 211.928 148.85 210.931 146.319 210.115C143.42 209.181 140.475 208.439 137.455 209.088C134.656 209.683 132.083 210.907 129.189 210.337C123.561 209.22 119.348 204.153 114.946 200.492C109.754 196.179 103.852 193.768 97.5835 192.206C87.1281 189.607 75.738 188.831 66.8951 181.297C63.4704 178.387 60.5057 174.573 59.3046 169.866C59.0458 168.83 58.8569 167.72 58.8345 166.646C58.8204 165.927 58.8212 165.785 58.9379 165.09C58.8319 165.712 59.112 164.47 59.0975 164.487C58.9218 165.007 59.3875 164.084 59.1646 164.423C60.0786 162.988 61.542 162.218 63.1831 162.215C64.9454 162.199 66.7388 163.051 68.3043 163.911C70.3209 165.017 72.2197 166.368 74.1674 167.615C77.7305 169.893 81.8865 172.193 86.0542 170.642C88.125 169.878 88.9456 165.455 87.8711 163.582C87.4175 162.785 87.3634 162.348 87.2835 161.584C87.3082 161.846 87.1767 161.964 87.2891 161.564C87.5194 160.745 87.2074 162.03 87.2763 161.505C87.3024 161.272 87.3373 161.043 87.3751 160.804C87.2692 161.425 87.3299 161.139 87.4446 160.696C87.2293 161.532 87.3435 161.056 87.4114 160.849C87.7328 159.985 87.0412 161.433 87.4972 160.649C87.5924 160.485 87.6787 160.317 87.7711 160.163C87.5028 160.629 87.7218 160.234 87.7885 160.136C88.3982 159.33 88.6187 159.034 89.5018 158.478C93.6153 155.897 98.104 160.962 102.385 160.823C107.857 160.644 111.095 153.558 109.133 148.098C108.78 147.117 108.234 146.232 107.725 145.35C107.217 144.468 106.882 143.669 106.471 142.788C106.496 142.84 106.59 143.346 106.445 142.636C106.58 143.276 106.576 142.242 106.431 142.861C106.383 143.031 106.158 144.182 106.341 143.533C106.231 143.922 106.109 144.286 105.931 144.641C106.239 144.035 105.649 145.156 105.85 144.755C105.919 144.614 106.062 144.489 106.161 144.381C105.718 144.873 106.516 144.133 106.677 144.014C108.866 142.446 112.171 141.865 114.639 140.142C118.397 137.535 119.989 131.099 117.54 126.885C116.256 124.674 114.107 123.093 112.247 121.569C110.147 119.851 107.989 118.233 105.843 116.609C101.516 113.347 97.1635 110.033 93.5552 105.784C90.2336 101.877 87.9085 97.0811 87.2392 91.7041C87.0674 90.3583 87.0417 89.6462 87.0974 88.2598C87.1071 88.1204 87.1696 87.3735 87.1134 87.9579C87.1497 87.6191 87.1888 87.2704 87.2429 86.938C87.2779 86.7086 87.3101 86.4893 87.354 86.2631C87.2008 87.0879 87.4495 85.9233 87.4944 85.7634C87.5478 85.5735 87.7918 84.8796 87.5421 85.5935C87.6588 85.2831 87.7666 84.9696 87.8922 84.6623C87.678 85.18 87.8866 84.6823 87.9264 84.5755C88.1018 84.2309 88.2744 83.8963 88.4738 83.5712C88.7858 83.0551 88.0763 84.1121 88.6765 83.2692C88.8708 82.9972 89.0623 82.7351 89.2716 82.4794C89.6377 82.0153 90.0345 81.6169 90.467 81.2311C91.624 80.1891 92.1778 78.2533 92.2003 76.6355C92.2174 75.6309 91.7893 73.7992 90.5866 74.7592L90.5542 74.7698Z" fill="#FBC4E2"/>
<path d="M171.622 211.952C175.093 211.341 178.55 210.539 181.67 208.662C184.79 206.785 187.491 203.289 188.752 199.394C190.013 195.5 190.217 191.211 188.346 187.662C186.949 185.017 184.733 183.257 182.255 182.01C179.329 180.539 176.14 179.832 172.975 179.386C171.606 179.189 170.759 181.296 170.478 182.504C170.292 183.307 169.775 186.442 171.117 186.629C176.101 187.31 183.732 188.705 185.777 194.743C185.917 195.154 186.063 195.964 186.054 196.521C186.056 195.884 185.85 197.701 186.038 196.856C185.98 197.099 185.924 197.332 185.848 197.568C185.946 197.219 185.932 197.269 185.775 197.686C185.623 198.017 185.298 198.649 184.947 199.129C184.422 199.845 183.822 200.479 183.158 201.025C180.051 203.554 176.202 204.46 172.499 205.231C170.497 205.645 169.291 212.382 171.625 211.975L171.622 211.952Z" fill="#FBC4E2"/>
<path d="M87.3385 154.958C81.6252 156.942 76.6294 151.654 73.2051 147.239C69.4636 142.415 65.7218 137.383 59.8048 136.143C54.5536 135.049 49.0011 136.705 44.6696 140.132C39.5393 144.2 36.2307 150.767 34.7379 157.513C31.7993 170.801 34.8886 184.83 42.4847 195.473C45.9117 200.262 50.1937 204.211 55.0311 207.092C60.4127 210.308 66.3726 211.64 72.3266 212.784C78.2806 213.928 84.6204 214.922 90.2119 217.915C92.9867 219.399 95.4181 221.475 97.4571 224.04C99.3148 226.376 100.86 228.985 102.536 231.477C104.213 233.969 105.996 236.289 108.28 238.017C110.971 240.043 114.028 241.153 117.25 241.499C124.111 242.248 131.137 240.518 137.891 239.374C151.955 236.995 165.987 234.417 179.971 231.483C185.699 230.284 191.844 229.177 196.747 225.392C200.462 222.517 203.278 218.368 205.049 213.742C208.569 204.537 208.657 192.901 203.757 184.264C201.121 179.633 197.378 176.665 192.953 174.413C188.263 172.023 183.083 170.537 178.741 167.359C176.731 165.881 174.925 164.025 173.76 161.637C173.087 160.257 171.877 161.171 171.3 162.142C170.592 163.332 170.016 165.523 170.689 166.903C175.888 177.513 187.701 177.691 195.812 184.022C199.056 186.561 201.393 190.197 202.707 194.363C203.943 198.281 204.126 202.278 203.589 206.076C203.557 206.296 203.301 207.732 203.463 206.944C203.348 207.529 203.212 208.118 203.061 208.691C202.935 209.174 202.791 209.65 202.659 210.12C202.907 209.307 202.614 210.247 202.571 210.364C202.475 210.637 202.366 210.918 202.261 211.188C202.061 211.689 201.846 212.173 201.629 212.668C201.397 213.179 201.992 212.005 201.554 212.828C201.422 213.089 201.284 213.337 201.143 213.595C200.615 214.529 200.079 215.351 199.696 215.842C196.539 219.914 192.058 221.915 187.272 223.149C180.993 224.769 174.557 225.795 168.203 226.982C161.498 228.232 154.802 229.452 148.086 230.599C141.37 231.746 134.784 232.851 128.103 233.703C122.237 234.447 115.491 234.76 110.48 230.642C106.067 227.021 103.609 221.299 99.9653 216.861C96.0226 212.055 90.6543 209.316 85.0842 207.714C79.1869 206.02 73.107 205.359 67.1849 203.787C61.8816 202.389 56.8875 200.101 52.5062 196.436C44.2865 189.55 38.2349 178.793 37.4463 167.201C37.3517 165.86 37.3514 164.498 37.4048 163.155C37.4401 162.365 37.4855 161.854 37.5851 161.01C37.6191 160.715 37.662 160.422 37.7021 160.14C37.745 159.847 37.7879 159.555 37.8397 159.265C37.927 158.78 37.9434 158.687 37.8887 158.986C38.4658 156.059 39.2866 153.767 40.8856 151.222C43.6467 146.813 48.1327 143.99 52.8447 143.157C55.3234 142.724 57.8498 142.89 60.2394 143.788C62.8049 144.758 64.8975 146.573 66.7818 148.709C70.677 153.125 73.7282 158.518 79.0422 160.996C81.4052 162.093 84.07 162.395 86.5204 161.469C87.7956 160.985 88.4017 159.177 88.5703 157.809C88.6624 157.061 88.6321 154.513 87.3475 154.961L87.3385 154.958Z" fill="#FBC4E2"/>
<path d="M122.194 73.9745C126.351 75.1876 130.214 76.9231 133.405 80.2453C136.431 83.3883 138.71 87.5094 139.509 92.0753C140.366 96.9582 138.734 102.556 141.476 107.126C143.61 110.68 147.592 111.886 151.083 112.919C154.282 113.872 160.341 115.096 160.942 119.669L160.943 117.989C160.955 117.839 161.606 116.432 161.499 116.427C161.431 116.425 161.221 116.648 161.162 116.682C160.836 116.864 160.535 117.098 160.209 117.28C159.531 117.667 158.818 117.965 158.106 118.263C156.64 118.866 155.143 119.371 153.689 120.001C150.8 121.267 148.32 122.996 146.684 126.022C144.092 130.809 143.071 140.347 149.94 141.033C152.358 141.271 154.704 140.538 157.109 140.474C157.979 140.452 159.012 140.552 159.743 141.129C160.13 141.43 160.346 141.814 160.555 142.261C160.592 142.339 160.498 142.636 160.569 142.386C160.594 142.296 160.594 142.088 160.598 142.001C160.606 141.905 160.634 141.805 160.671 141.708C160.733 141.522 160.724 141.518 160.656 141.725C160.674 141.765 160.628 141.825 160.523 141.953C160.518 141.973 160.233 142.323 160.122 142.438C159.682 142.886 159.106 143.222 158.556 143.467C157.123 144.093 155.565 144.324 154.056 144.594C150.721 145.208 147.537 146.404 145.498 149.606C143.34 152.987 142.871 157.907 145.221 161.285C146.963 163.788 149.991 165.141 152.617 166.034L151.705 163.9C151.759 164.93 151.914 163.436 151.9 163.343C151.864 163.122 152.307 163.014 151.727 163.436C151.296 163.745 150.92 164.107 150.462 164.374C149.337 165.021 148.07 165.233 146.822 165.408C144.245 165.774 141.472 165.993 139.36 167.885C137.247 169.776 136.082 173.397 136.222 176.5C136.338 179.057 137.353 181.667 139.984 181.32C141.557 181.106 142.964 175.889 141.136 175.333C140.493 175.139 140.002 174.581 139.783 174.032C139.653 173.69 139.768 173.983 139.714 173.755C139.656 173.471 139.692 174.044 139.698 173.53C139.696 174.133 139.81 173.272 139.683 173.689C139.607 173.959 139.404 174.404 139.627 173.922L139.507 174.176C139.359 174.355 139.353 174.375 139.475 174.22C139.475 174.22 139.679 174.017 139.77 173.939C140.188 173.604 140.65 173.36 141.133 173.179C142.228 172.774 143.387 172.6 144.54 172.447C146.917 172.131 149.225 171.814 151.276 170.285C153.876 168.335 155.475 164.812 155.302 161.302C155.264 160.564 155.17 159.432 154.39 159.168C152.293 158.45 150.122 157.509 148.511 155.799C148.255 155.522 147.966 155.222 147.765 154.888C147.474 154.422 147.366 153.967 147.284 153.663C147.428 154.165 147.347 153.334 147.279 153.683C147.259 153.753 147.17 154.139 147.186 154.189C147.241 154.34 146.686 154.639 147.364 154.043C147.627 153.806 147.849 153.577 148.136 153.359C150.444 151.68 153.33 151.687 155.938 151.002C158.779 150.258 161.168 148.64 162.662 145.772C164.155 142.904 164.991 138.706 163.124 135.774C161.858 133.778 159.788 133.455 157.752 133.572C155.716 133.689 153.744 134.312 151.75 134.103C150.871 134.013 149.935 133.781 149.226 133.158C148.881 132.85 148.606 132.5 148.425 132.096C148.351 131.938 148.286 131.75 148.242 131.592C148.358 132.017 147.939 130.749 148.233 131.38L148.235 131.095C148.199 131.5 148.199 131.5 148.244 131.098C148.256 130.74 148.466 130.759 148.224 131.168C148.694 130.367 147.917 131.807 148.294 130.918C148.325 130.841 148.75 129.958 148.419 130.578C148.894 129.691 149.24 129.23 150.118 128.584C152.424 126.882 155.186 126.241 157.732 125.15C161.175 123.662 163.984 121.566 164.436 117.09C164.726 114.204 163.392 111.405 161.36 109.689C157.867 106.743 153.295 106.34 149.275 104.779C147.407 104.055 145.525 103.062 144.327 101.211C142.943 99.0753 143.25 96.3386 143.287 93.8687C143.405 87.3305 141.521 81.1406 137.597 76.231C134.021 71.7624 128.728 68.3031 123.242 68.7086C121.887 68.813 120.697 73.5346 122.212 73.9808L122.194 73.9745Z" fill="#FBC4E2"/>
</g>
</svg>
