<svg width="1365" height="802" viewBox="0 0 1365 802" fill="none" xmlns="http://www.w3.org/2000/svg">
<path fill-rule="evenodd" clip-rule="evenodd" d="M225.01 0C100.74 0 0 100.74 0 225.01V576.439C0 700.708 100.74 801.448 225.01 801.448C283.807 801.448 337.338 778.896 377.422 741.969C417.507 778.896 471.037 801.448 529.834 801.448C588.634 801.448 642.166 778.895 682.25 741.966C722.335 778.895 775.867 801.448 834.666 801.448C893.463 801.448 946.993 778.897 987.077 741.971C1027.16 778.897 1080.69 801.448 1139.49 801.448C1263.76 801.448 1364.5 700.708 1364.5 576.439V225.01C1364.5 100.74 1263.76 0 1139.49 0C1080.69 0 1027.16 22.5518 987.077 59.4774C946.993 22.5518 893.463 0 834.666 0C775.867 0 722.335 22.5538 682.25 59.4824C642.166 22.5539 588.634 0 529.834 0C471.037 0 417.506 22.5525 377.422 59.4791C337.338 22.5525 283.807 0 225.01 0Z" fill="#D2E9EB"/>
</svg>
