<svg width="374" height="417" viewBox="0 0 374 417" fill="none" xmlns="http://www.w3.org/2000/svg">
<path d="M330.323 209.658L258.229 346.965L114.87 345.729L43.604 207.187L115.698 69.8799L259.057 71.1156L330.323 209.658Z" fill="#FFF976"/>
<g style="mix-blend-mode:multiply">
<path d="M177.437 142.635C172.999 139.9 168.096 138.426 163.151 137.259C158.73 136.209 154.169 135.742 149.672 136.184C142.138 136.922 134.763 140.091 128.578 144.859C114.828 155.435 106.593 172.625 104.323 190.851C101.765 211.451 105.515 232.795 112.98 251.773C119.842 269.224 130.444 285.02 145.729 294.226C149.864 296.717 154.219 298.734 158.613 300.561C163.006 302.388 167.691 304.219 172.474 304.977C176.849 305.674 181.302 305.277 185.265 302.98C188.597 301.054 191.572 297.828 192.988 293.905C193.832 291.553 194.137 289.158 194.106 286.636C194.091 285.558 193.541 283.588 192.394 283.422C191.246 283.256 190.721 285.014 190.705 286.01C190.665 287.5 190.42 288.634 189.592 290.157C188.763 291.681 187.585 292.983 186.299 294.008C183.183 296.488 179.576 297.424 175.76 297.366C171.209 297.297 166.802 295.764 162.547 294.066C158.292 292.368 154.095 290.519 150.024 288.36C142.647 284.46 136.118 279.244 130.544 272.582C124.969 265.92 120.864 258.683 117.386 250.824C113.909 242.965 111.197 234.413 109.475 226.068C108.437 221.068 107.855 217.11 107.453 212.231C107.051 207.352 107.005 203.762 107.334 198.81C107.491 196.455 107.695 194.684 108.072 192.212C108.408 190.077 108.826 187.865 109.338 185.835C110.351 181.777 111.706 177.763 113.463 174.082C116.841 167 121.452 160.677 127.078 155.647C132.704 150.618 138.974 146.976 145.896 145.309C154.289 143.287 162.788 144.758 170.981 147.251C173.16 147.914 175.264 148.371 177.515 148.59C178.471 148.683 178.605 146.455 178.586 145.87C178.571 144.802 178.37 143.222 177.428 142.636L177.437 142.635Z" fill="#FFF976"/>
<path d="M195.226 267.416L195.31 267.411C196.308 267.219 196.723 265.698 196.731 264.734C196.784 257.431 194.437 250.922 191.722 244.382C189.188 238.272 186.736 232.104 184.856 225.706C183.078 219.647 181.922 213.616 181.552 207.468C181.361 204.378 181.38 201.34 181.754 198.051C182.094 195.026 182.716 192.006 183.293 189.009C184.011 185.261 184.718 181.472 184.923 177.627C185.136 173.561 185.03 168.948 183.312 165.253C183.007 164.6 182.395 164.226 181.856 164.759C181.237 165.37 181.199 166.692 181.25 167.527C181.467 170.782 181.756 173.573 181.418 176.818C181.08 180.063 180.432 183.147 179.815 186.272C178.437 193.241 177.573 200.14 177.89 207.297C178.498 221.088 182.898 234.645 188.181 247.032C189.598 250.356 191.099 253.665 192.185 257.155C192.644 258.627 193.053 260.238 193.25 261.735C193.397 262.816 193.321 263.941 193.544 265.007C193.693 265.732 194.293 267.594 195.235 267.416L195.226 267.416Z" fill="#FFF976"/>
<path d="M196.148 171.58C196.179 170.5 196.22 169.429 196.28 168.358C196.303 167.874 196.345 167.39 196.378 166.907C196.418 166.192 196.389 166.571 196.369 166.74C196.408 166.182 196.475 165.634 196.514 165.087C196.602 163.836 196.633 163.509 196.754 162.518C196.894 161.358 197.053 160.207 197.25 159.055C197.901 155.268 198.855 151.528 200.619 147.993C202.384 144.459 204.895 141.353 208.115 139.266C212.001 136.743 216.589 136.045 221.035 136.455C229.794 137.262 238.27 142.252 245.143 148.15C251.594 153.695 257.099 160.665 261.224 168.477C263.385 172.576 264.912 176.219 266.342 180.758C267.113 183.207 267.367 184.157 267.926 186.691C268.158 187.767 268.372 188.845 268.557 189.934C268.661 190.504 268.746 191.086 268.841 191.667C268.882 191.927 268.913 192.176 268.954 192.436C269.026 192.935 268.887 191.843 268.984 192.665C269.243 195.028 269.435 197.394 269.497 199.779C269.523 200.689 269.505 200.323 269.513 200.113C269.52 200.438 269.518 200.773 269.515 201.098C269.514 201.831 269.494 202.576 269.474 203.31C269.428 204.863 269.345 206.418 269.234 207.974C268.825 213.789 268.067 219.571 267.402 225.348C266.737 231.125 266.121 236.942 266.082 242.809C266.043 248.677 266.415 254.657 265.359 260.153C264.902 262.514 264.523 263.792 263.712 265.87C262.902 267.947 262.029 269.714 261.028 271.373C258.844 274.984 256.142 278.225 253.076 280.943C240.791 291.835 218.009 299.694 206.853 282.787C206.72 282.585 206.579 282.394 206.465 282.191C206.147 281.665 206.6 282.812 206.315 281.823C206.19 281.39 206.009 280.971 205.894 280.537C205.608 279.516 205.358 278.472 205.24 277.411C205.171 276.786 204.923 275.386 204.135 275.451C203.348 275.517 203.298 276.975 203.318 277.571C203.428 280.173 204.099 282.314 204.97 284.695C205.896 287.24 206.952 289.548 208.627 291.611C211.804 295.507 216.15 298.091 220.752 299.183C230.26 301.435 240.46 298.651 248.797 293.417C256.394 288.643 263.008 281.495 266.741 272.644C268.914 267.484 269.964 261.873 270.238 256.181C270.553 249.628 270.178 243.951 270.586 237.361C271.35 224.844 273.764 212.548 273.45 199.944C273.189 189.537 270.913 179.139 266.934 169.706C262.955 160.273 257.691 152.085 250.966 145.194C244.241 138.303 236.084 132.53 227.198 129.919C222.412 128.512 217.315 127.877 212.465 129.197C208.08 130.386 204.332 133.037 201.374 136.796C195.74 143.963 193.963 154.086 193.356 163.316C193.19 165.84 193.24 168.382 193.28 170.904C193.299 171.856 193.716 173.99 194.78 174.182C195.844 174.373 196.17 172.407 196.185 171.578L196.148 171.58Z" fill="#FFF976"/>
<path d="M194.949 179.503C194.313 182.639 195.977 186.201 196.775 189.183C197.468 191.773 198.105 194.366 198.556 197.022C198.955 199.367 199.188 201.983 199.139 204.217C199.08 206.838 198.771 209.149 198.326 211.751C197.383 217.251 196.079 222.666 195.716 228.269C195.312 234.555 196.015 240.946 197.391 247.059C198.126 250.317 199.03 253.544 200.026 256.725C200.932 259.638 201.843 263.2 203.683 265.558C204.99 267.234 205.63 263.616 205.543 262.814C205.219 259.68 204.145 256.629 203.244 253.653C202.489 251.15 201.716 248.649 201.109 246.096C199.853 240.877 199.019 235.823 199.319 230.664C199.619 225.504 200.894 220.656 201.758 215.653C202.804 209.604 203.018 203.642 202.169 197.531C201.715 194.258 200.982 191.062 200.138 187.894C199.294 184.726 198.438 181.706 197.213 178.831C197.043 178.443 196.541 177.811 196.084 177.889L195.971 177.896C195.308 178.006 195.089 178.909 194.968 179.502L194.949 179.503Z" fill="#FFF976"/>
<path d="M216.784 256.903C219.567 252.054 225.957 250.48 230.58 252.765L230.253 248.259C225.835 252.383 222.395 257.824 220.588 263.937C220.314 264.864 220.258 267.538 221.482 267.731C226.274 268.477 230.54 266.017 234.681 263.7C238.492 261.569 242.959 258.982 247.302 260.759C249.186 261.533 249.273 254.93 247.546 254.262C237.63 250.431 230.726 263.692 221.156 263.235L222.05 267.029C223.94 261.455 226.946 256.573 231.05 252.749C231.887 251.969 231.823 248.778 230.723 248.243C225.116 245.469 218.665 248.67 216.08 254.659C215.844 255.217 215.832 255.93 216.021 256.517C216.132 256.846 216.463 257.455 216.767 256.936L216.784 256.903Z" fill="#FFF976"/>
<path d="M151.061 185.532C149.161 183.67 147.239 181.557 144.904 180.411C142.762 179.358 140.4 178.821 138.074 178.627C133.394 178.23 128.636 179.691 124.801 182.672C123.668 183.553 124.194 186.959 125.166 187.763C128.603 190.618 132.048 193.44 135.397 196.426C135.761 196.751 136.126 197.076 136.49 197.401C136.855 197.726 137.36 198.431 137.766 198.649C138.207 196.32 138.101 195.519 137.449 196.237C137.315 196.37 137.18 196.503 137.035 196.616C136.664 196.93 136.254 197.205 135.832 197.428C134.383 198.211 132.636 198.477 131.037 198.504C127.858 198.578 124.786 197.954 121.66 198.905C120.324 199.305 118.888 199.962 117.898 201.075C116.72 202.388 116.115 204.433 116.111 206.245C116.105 206.518 116.229 208.627 116.915 208.41C117.517 208.219 117.776 207.744 118.284 207.359C118.893 206.906 119.499 206.411 120.139 206.029C121.511 205.208 123.062 204.786 124.604 204.553C128.278 204.011 132.143 204.674 135.683 203.155C137.435 202.407 139.173 201.188 139.515 198.97C139.728 197.565 139.533 195.921 138.888 194.669C138.398 193.722 137.605 193.107 136.83 192.48C132.925 189.285 129.125 185.959 125.316 182.612L125.681 187.703C129.46 184.924 133.896 183.606 138.431 183.54C140.595 183.512 142.731 183.864 144.829 184.405C145.935 184.689 147.021 184.942 148.118 185.237C149.216 185.531 150.046 185.945 151.023 186.655C151.276 186.84 151.258 185.709 151.06 185.501L151.061 185.532Z" fill="#FFF976"/>
<path d="M173.241 107.145C173.032 109.398 172.475 112.215 171.511 114.605C170.412 117.317 168.433 119.575 165.938 120.71C160.827 123.019 155.296 120.659 150.137 119.923C138.645 118.296 126.931 123.197 117.325 129.812C107.537 136.542 98.6027 145.884 93.2567 157.329C87.613 169.419 85.9022 182.974 86.1767 196.501C86.2778 201.774 86.7357 207.027 87.2775 212.265C87.8776 218.107 88.4969 223.959 89.7036 229.694C91.2705 237.189 93.7196 244.435 97.1767 251.122C99.1447 254.929 101.493 258.421 103.842 261.933C107.321 267.163 110.777 272.499 113.674 278.149C117.081 284.776 119.884 291.751 124.256 297.706C131.606 307.725 142.474 313.859 153.79 316.103C159.4 317.212 165.15 317.35 170.782 316.436C174.481 315.841 178.242 314.781 182.008 315.344C185.148 315.817 188.043 317.445 191.192 317.897C194.53 318.379 197.334 316.829 200.062 314.884C203.009 312.791 205.866 311.342 209.423 311.121C214.248 310.819 218.78 312.795 223.518 313.408C232.559 314.586 242.029 313.405 250.732 310.621C259.435 307.838 268.429 303.499 273.988 295.415C276.298 292.059 277.954 288.028 277.967 283.733C277.976 281.826 277.733 279.965 277.574 278.078C277.486 277.057 277.435 276.033 277.422 275.007C277.434 275.824 277.431 274.808 277.425 274.703C277.428 274.379 277.441 274.064 277.454 273.749C277.485 273.045 277.525 272.341 277.585 271.647C278.113 265.395 279.68 259.201 282.199 253.592C284.09 249.38 286.029 245.385 286.861 240.698C287.693 236.012 287.815 231.25 287.147 226.511C286.887 224.682 286.543 222.869 286.255 221.052C286.173 220.522 286.09 220.003 286.017 219.473C286.003 219.38 285.872 218.445 285.975 219.193C285.932 218.892 285.898 218.59 285.855 218.288C285.667 216.77 285.516 215.249 285.393 213.716C284.887 207.303 284.862 200.895 285.25 194.473C285.462 190.963 285.619 187.477 285.52 183.963C285.22 173.716 283.277 163.383 279.7 153.906C274.954 141.342 267.254 130.914 257.279 123.043C248.313 115.953 237.565 110.713 226.52 109.753C221.669 109.334 216.79 109.86 212.222 111.74C209.389 112.905 206.861 114.712 204.23 116.327C202.539 117.364 199.732 119.229 197.863 117.627C197.716 117.499 197.481 117.125 197.429 117.034C197.047 116.353 197.54 117.562 197.312 116.757C197.279 116.655 197.073 115.744 197.223 116.48C197.022 115.465 196.962 114.63 196.983 113.529C197.048 110.279 197.469 107.196 198.064 103.989C198.33 102.529 198.184 100.338 197.187 99.2103C196.189 98.0828 195.419 99.6344 195.234 100.65C194.582 104.217 193.978 107.801 193.848 111.453C193.735 114.686 193.88 118.186 195.056 121.2C196.069 123.782 197.934 125.887 200.645 125.494C203.355 125.101 205.913 123.134 208.25 121.652C210.587 120.169 212.787 118.956 215.301 118.207C217.639 117.51 220.051 117.155 222.475 117.06C227.541 116.87 232.616 117.821 237.47 119.454C248.003 123.009 257.887 129.618 265.608 138.359C269.767 143.069 273.219 148.51 275.801 154.439C278.202 159.96 279.673 165.146 280.801 170.99C281.016 172.109 281.213 173.239 281.382 174.371C281.425 174.662 281.468 174.953 281.511 175.255C281.527 175.39 281.66 176.367 281.541 175.483C281.62 176.118 281.699 176.763 281.777 177.397C281.981 179.24 282.13 181.096 282.222 182.955C282.256 183.655 282.282 184.355 282.298 185.056C282.312 185.338 282.297 185.621 282.312 185.914C282.244 184.546 282.305 185.579 282.312 185.914C282.301 187.779 282.214 189.638 282.108 191.497C281.734 198.012 281.651 204.5 282.04 211.025C282.344 216.223 283.086 221.324 283.961 226.439C284.016 226.781 284.08 227.123 284.134 227.466C284.175 227.726 284.356 229.098 284.227 228.016C284.337 228.9 284.428 229.775 284.481 230.662C284.492 230.881 284.493 231.091 284.513 231.31C284.57 232.081 284.532 230.554 284.515 231.341C284.5 231.813 284.505 232.295 284.482 232.767C284.438 233.796 284.338 235.006 284.232 235.902C283.902 238.56 283.4 240.579 282.514 242.839C281.77 244.745 280.853 246.566 279.993 248.416C277.365 254.084 275.682 260.222 274.799 266.535C274.368 269.628 274.144 272.709 274.215 275.847C274.261 277.73 274.485 279.592 274.634 281.459C274.65 281.772 274.684 282.085 274.699 282.387C274.702 282.45 274.753 282.908 274.726 282.941C274.781 282.896 274.756 282.028 274.718 282.774C274.699 283.142 274.67 283.51 274.641 283.878C274.732 282.857 274.531 284.314 274.461 284.611C274.429 284.738 274.208 285.4 274.429 284.728C274.355 284.941 274.281 285.166 274.207 285.379C274.032 285.85 273.838 286.301 273.635 286.752C273.235 287.623 272.976 288.088 272.345 289.045C269.938 292.71 266.655 295.45 263.112 297.671C254.93 302.802 245.348 305.331 236.047 306.304C231.813 306.752 227.525 306.846 223.288 306.289C218.653 305.669 214.139 303.671 209.354 303.825C205.998 303.94 202.796 305.053 199.954 306.993C197.113 308.933 194.807 310.864 191.462 310.613C188.333 310.37 185.415 308.669 182.344 308.067C178.589 307.335 174.892 308.161 171.175 308.789C159.989 310.664 148.381 308.604 138.393 302.546C133.5 299.574 129.114 295.611 125.563 290.825C121.294 285.053 118.686 278.025 115.3 271.627C112.349 266.032 108.876 260.739 105.399 255.541C104.829 254.682 104.25 253.825 103.68 252.966C103.233 252.3 103.966 253.411 103.528 252.745C103.395 252.542 103.263 252.351 103.14 252.148C102.845 251.694 102.549 251.239 102.253 250.774C101.211 249.125 100.223 247.421 99.3082 245.681C96.0851 239.536 93.836 232.907 92.5155 226.205C92.2152 224.703 91.9612 223.188 91.7256 221.662C91.6392 221.059 91.5529 220.456 91.4666 219.854C91.4614 219.749 91.2997 218.575 91.4198 219.479C91.3595 219.022 91.3085 218.564 91.2581 218.116C90.9645 215.609 90.7078 213.088 90.4512 210.568C90.1946 208.048 89.9786 205.588 89.8075 203.084C89.7126 201.738 89.6365 200.391 89.5792 199.044C89.5445 198.344 89.5197 197.654 89.5039 196.953C89.4894 196.661 89.4843 196.368 89.4792 196.075C89.4704 195.897 89.471 195.719 89.4716 195.541C89.4745 195.981 89.474 195.97 89.47 195.51C89.4593 192.441 89.5336 189.379 89.7774 186.317C89.8975 184.75 89.9494 184.275 90.1545 182.714C90.3732 181.047 90.6394 179.387 90.963 177.746C93.4229 165.248 99.7661 154.355 108.412 145.856C117.058 137.357 127.443 130.699 138.726 128.284C144.027 127.148 149.202 127.276 154.495 128.445C159.788 129.613 166.274 130.359 170.638 125.683C174.732 121.295 175.768 114.638 175.853 108.558C175.868 107.531 175.77 105.358 174.692 104.895C173.615 104.432 173.346 106.416 173.278 107.143L173.241 107.145Z" fill="#FFF976"/>
<path d="M179.43 135.914C181.825 136.366 184.564 136.348 186.281 134.146C187.999 131.945 187.79 128.102 187.117 125.354C186.75 123.835 186.263 122.364 185.832 120.88C185.558 119.922 185.528 119.881 185.317 118.846C185.105 117.81 185.025 117.333 184.953 116.457C184.681 113.048 185.571 109.73 185.917 106.254C186.019 105.274 185.325 101.899 184.043 103.406C182.113 105.672 181.805 109.921 181.687 112.86C181.516 117.007 182.254 121.071 183.427 124.985C183.63 125.665 183.842 126.334 184.054 127.013C184.144 127.301 184.224 127.58 184.304 127.868C184.517 128.558 184.231 127.338 184.362 128.085C184.402 128.334 184.462 128.593 184.503 128.842C184.437 128.28 184.424 128.197 184.453 128.593L184.446 128.08C184.378 128.796 184.432 127.421 184.446 128.08C184.435 127.275 184.315 128.276 184.417 128.061C184.571 127.749 183.86 128.784 184.11 128.508C183.815 128.828 183.47 129.088 183.114 129.307C181.908 130.067 180.412 130.465 179.073 130.802C177.474 131.206 177.91 135.643 179.44 135.935L179.43 135.914Z" fill="#FFF976"/>
</g>
</svg>
