<svg width="25" height="25" viewBox="0 0 25 25" fill="none" xmlns="http://www.w3.org/2000/svg">
<path d="M0.703436 5.43891C0.785574 5.34062 0.888292 5.26156 1.00433 5.20732C1.12037 5.15308 1.24691 5.12498 1.375 5.125H19.0194L19.5542 2.18719C19.6275 1.78396 19.8399 1.41923 20.1545 1.15659C20.4691 0.893952 20.866 0.750059 21.2758 0.75H23.25C23.4821 0.75 23.7046 0.842187 23.8687 1.00628C24.0328 1.17038 24.125 1.39294 24.125 1.625C24.125 1.85706 24.0328 2.07962 23.8687 2.24372C23.7046 2.40781 23.4821 2.5 23.25 2.5H21.2812L18.4856 17.8442C18.4033 18.2993 18.2022 18.7245 17.9027 19.0769C18.316 19.463 18.6144 19.956 18.7647 20.5014C18.915 21.0467 18.9113 21.623 18.754 22.1664C18.5967 22.7097 18.2921 23.1989 17.8738 23.5797C17.4554 23.9605 16.9398 24.2179 16.3841 24.3236C15.8284 24.4292 15.2543 24.3789 14.7255 24.1782C14.1966 23.9774 13.7337 23.6341 13.388 23.1864C13.0424 22.7386 12.8275 22.2039 12.7672 21.6414C12.7069 21.079 12.8035 20.5109 13.0464 20H8.07859C8.27435 20.4098 8.37564 20.8583 8.375 21.3125C8.375 21.9182 8.19539 22.5103 7.85887 23.0139C7.52236 23.5176 7.04407 23.9101 6.48447 24.1419C5.92487 24.3737 5.3091 24.4343 4.71503 24.3162C4.12097 24.198 3.57528 23.9063 3.14698 23.478C2.71869 23.0497 2.42701 22.504 2.30884 21.91C2.19068 21.3159 2.25132 20.7001 2.48312 20.1405C2.71491 19.5809 3.10744 19.1026 3.61106 18.7661C4.11469 18.4296 4.70679 18.25 5.3125 18.25H15.9033C16.1082 18.25 16.3066 18.178 16.4639 18.0467C16.6212 17.9154 16.7274 17.733 16.7641 17.5314L17.1108 15.625H4.42328C3.80854 15.6249 3.21333 15.4091 2.74141 15.0151C2.2695 14.6212 1.95082 14.0741 1.84093 13.4692L0.510937 6.15641C0.48842 6.03001 0.493994 5.90021 0.527262 5.77621C0.56053 5.65221 0.620676 5.53706 0.703436 5.43891ZM14.5 21.3125C14.5 21.5721 14.577 21.8258 14.7212 22.0417C14.8654 22.2575 15.0704 22.4257 15.3102 22.5251C15.5501 22.6244 15.814 22.6504 16.0686 22.5998C16.3232 22.5491 16.557 22.4241 16.7406 22.2406C16.9241 22.057 17.0491 21.8232 17.0998 21.5686C17.1504 21.314 17.1244 21.0501 17.0251 20.8102C16.9258 20.5704 16.7575 20.3654 16.5417 20.2212C16.3258 20.077 16.0721 20 15.8125 20C15.4644 20 15.1306 20.1383 14.8844 20.3844C14.6383 20.6306 14.5 20.9644 14.5 21.3125ZM4 21.3125C4 21.5721 4.07698 21.8258 4.2212 22.0417C4.36542 22.2575 4.5704 22.4257 4.81023 22.5251C5.05006 22.6244 5.31395 22.6504 5.56855 22.5998C5.82315 22.5491 6.05702 22.4241 6.24058 22.2406C6.42413 22.057 6.54914 21.8232 6.59978 21.5686C6.65042 21.314 6.62443 21.0501 6.52509 20.8102C6.42575 20.5704 6.25752 20.3654 6.04169 20.2212C5.82585 20.077 5.57209 20 5.3125 20C4.9644 20 4.63056 20.1383 4.38442 20.3844C4.13828 20.6306 4 20.9644 4 21.3125ZM3.5625 13.1564C3.59923 13.3586 3.70593 13.5414 3.86392 13.6728C4.0219 13.8041 4.22108 13.8757 4.42656 13.875H17.4291L18.7011 6.875H2.4239L3.5625 13.1564Z" fill="#5B7FBD"/>
</svg>
