<svg width="13" height="26" viewBox="0 0 13 26" fill="none" xmlns="http://www.w3.org/2000/svg">
<path d="M8.52246 8.33673C8.52246 7.49449 8.48693 6.70658 8.53291 5.92286C8.57471 5.19557 9.01359 4.82983 9.75761 4.81729C10.5225 4.80684 11.2853 4.8152 12.0503 4.8152C12.3052 4.8152 12.5602 4.8152 12.8194 4.8152V0C10.9342 0.0543382 9.06584 -0.0104497 7.2267 0.194363C4.95913 0.445155 3.54216 1.84541 2.97579 4.04819C2.81486 4.67308 2.77515 5.33768 2.7438 5.98556C2.70619 6.75674 2.73544 7.53211 2.73544 8.35136H0.00390625V13.8918C0.800169 13.8918 1.57553 13.9106 2.34672 13.8834C2.69992 13.8709 2.77097 13.9942 2.77097 14.3223C2.76679 16.2116 2.7647 18.103 2.7647 19.9923V25.8065H8.30929V13.8834H12.3951C12.5665 12.0192 12.7358 10.2072 12.9071 8.33882H8.52246V8.33673Z" fill="white"/>
</svg>
