<svg width="45" height="48" viewBox="0 0 45 48" fill="none" xmlns="http://www.w3.org/2000/svg">
<path d="M25.106 27.7942C24.2504 27.7801 24.0219 27.4181 23.4108 26.9763C23.2142 26.8352 23.0281 26.6942 22.8687 26.5156C22.7731 26.4075 22.7943 26.4357 22.7146 26.3134C22.6614 26.2335 22.5073 25.928 22.5339 25.9844C22.5924 26.1301 22.4223 25.5989 22.4861 25.8433C22.5339 26.0267 22.4648 25.6506 22.4489 25.5942C22.4063 25.3921 22.4648 25.7352 22.4648 25.7399C22.4542 25.6459 22.5233 25.5331 22.4648 25.7211C22.3957 25.928 22.4861 25.7775 22.4808 25.7023C22.518 26.1724 22.5073 25.6318 22.4701 25.8151C22.4542 25.8904 22.502 25.7634 22.5073 25.7587C22.5871 25.6506 22.6827 25.5425 22.7837 25.4485C22.9431 25.3074 23.1982 25.1617 23.4267 25.0536C24.4789 24.5788 25.8341 24.7386 26.8332 25.2463C27.3327 25.5002 27.7685 25.8857 27.9173 26.1959C27.9917 26.351 27.9226 26.1818 27.9067 26.1583C27.9279 26.1818 28.0608 26.3651 27.9439 26.2335C27.8589 26.1395 27.9439 26.2241 27.9599 26.3134C27.9599 26.2899 27.9492 25.9938 27.9492 26.2053C27.9492 26.4169 27.9598 26.1113 27.9651 26.0925C27.9598 26.1113 27.9226 26.3651 27.9651 26.1724C28.0077 25.9797 27.9545 26.2288 27.9492 26.2476C27.9173 26.3463 27.8961 26.4451 27.8589 26.5391C27.9386 26.3322 27.7792 26.6754 27.7473 26.7318C27.6729 26.8681 27.6888 26.8493 27.5985 26.9763C27.4071 27.2442 27.1733 27.5028 26.9129 27.719C26.4187 28.1233 25.7597 28.4523 25.1007 28.5699C23.618 28.8331 22.0397 28.3771 20.9502 27.4558C20.6845 27.2301 20.4294 26.9763 20.2222 26.7036C20.1372 26.5955 20.0627 26.4686 19.9936 26.3463C19.8661 26.1254 19.9033 26.2053 19.8342 26.022C19.8076 25.9562 19.7173 25.566 19.7598 25.7869C19.7386 25.6882 19.712 25.2886 19.7226 25.5801C19.7226 25.4814 19.7386 25.0771 19.712 25.3733C19.7226 25.2886 19.7332 25.204 19.7386 25.1147C19.7704 24.8327 19.6854 25.3121 19.7492 25.0348C20.0202 23.8079 20.9609 22.5903 22.2097 21.81C24.9307 20.113 28.9589 20.1412 31.2707 22.407C31.749 22.8771 32.2007 23.5023 32.3973 24.0053C32.4611 24.1651 32.5195 24.3344 32.5621 24.4989C32.5089 24.2968 32.5886 24.701 32.5993 24.7574C32.5567 24.4801 32.5993 24.8891 32.5993 24.9784C32.5993 24.701 32.5727 25.1382 32.5621 25.2275C32.5408 25.4156 32.5727 25.1946 32.578 25.1664C32.5621 25.2369 32.5461 25.3074 32.5248 25.378C32.5089 25.4391 32.3707 25.8668 32.4558 25.6365C32.3495 25.9233 32.2007 26.2053 32.0359 26.4686C31.834 26.7929 31.3344 27.3523 30.9252 27.7096C28.9058 29.4818 25.8766 30.328 23.1025 30.5395C21.4126 30.6712 19.4782 30.6853 17.9423 29.966C17.3365 29.684 16.7838 29.2421 16.4383 28.7673C16.4011 28.7156 16.3002 28.5511 16.247 28.457C16.2045 28.3865 16.0664 28.1139 16.0876 28.1562C16.1089 28.1985 15.9973 27.9117 15.9707 27.8318C15.9441 27.7613 15.9229 27.6861 15.9016 27.6109C15.9548 27.7754 15.9176 27.6861 15.891 27.5733C15.8538 27.3946 15.8219 27.2113 15.7953 27.0327C15.7847 26.9528 15.7741 26.8775 15.7634 26.7976C15.7634 26.8258 15.7847 27.0656 15.7741 26.8587C15.7687 26.6989 15.7581 26.5391 15.7528 26.3792C15.7528 26.2805 15.7688 25.7963 15.7528 26.1113C15.7688 25.7869 15.8059 25.4673 15.8485 25.1429C15.8697 24.9831 15.8963 24.8233 15.9229 24.6681C15.8804 24.9126 15.9707 24.4613 15.9866 24.3814C16.3268 22.957 16.8104 21.5138 17.6713 20.2587C19.239 17.9835 22.4329 16.2911 25.4674 17.3817C25.8129 17.5087 26.1051 17.6967 26.4293 17.8471C26.7057 17.9741 27.0139 18.0493 27.2902 18.1856C27.7313 18.4065 28.0077 17.8095 28.0821 17.5416C28.2309 17.0292 28.2096 16.371 27.9226 15.8963C27.3859 15.0078 26.7748 14.392 25.6959 14.0394C24.8031 13.748 23.8412 13.6351 22.8953 13.7009C20.8811 13.8514 19.138 14.7163 17.7829 16.0138C16.1939 17.5322 15.2745 19.5442 14.6581 21.5091C14.0841 23.3472 13.7493 25.298 13.9247 27.2066C14.1001 29.1152 14.6262 31.1083 16.1886 32.4575C17.8467 33.8866 20.185 34.1545 22.4064 34.0793C26.0042 33.9618 29.9155 32.8101 32.3282 30.3421C35.2777 27.3194 35.1183 22.2942 32.105 19.3467C29.0918 16.3993 23.804 16.4181 20.5942 19.1258C17.2514 21.9463 16.5925 27.5968 20.0468 30.5771C21.4657 31.7994 23.5277 32.5891 25.5152 32.1143C27.5028 31.6395 28.9802 30.0882 29.5648 28.3301C30.1919 26.4451 29.9633 23.9066 28.2999 22.4587C27.1308 21.4433 25.3505 20.9121 23.735 21.2976C21.5508 21.8194 20.5942 23.6057 20.5517 25.5002C20.5198 27.0656 21.2585 29.1998 22.9644 29.9895C23.5117 30.2434 24.5746 30.1071 25.1432 29.9566C25.8979 29.7545 25.9563 27.7895 25.0848 27.7707L25.106 27.7942Z" fill="#FDFCF3"/>
<path d="M28.6613 35.8327C28.6454 35.4614 28.6295 35.5319 28.6242 36.0396C28.6242 36.2511 28.656 36.458 28.7092 36.6648C28.7836 37.0033 28.8474 37.3417 28.9483 37.6802C29.0812 38.1174 29.23 38.5452 29.3841 38.9776C29.7083 39.8802 30.0484 40.7781 30.3885 41.6759L31.3929 44.3696C31.5895 44.9008 31.749 45.5072 32.1104 45.9679C32.4026 46.3392 32.9447 46.5837 33.338 46.1606C33.7525 45.714 33.779 44.9243 33.779 44.3837C33.779 43.6644 33.4761 42.9734 33.2157 42.3012L32.1795 39.6405C31.834 38.7567 31.4939 37.8682 31.1378 36.9845C30.9465 36.5097 30.7499 36.0396 30.5267 35.5789C30.33 35.1699 30.059 34.54 29.5276 34.3896L29.8518 34.7186L29.7614 34.587C29.5595 34.3002 29.2406 34.0793 28.9377 34.4084C28.6029 34.7703 28.5869 35.3862 28.6667 35.8233L28.6613 35.8327Z" fill="#FDFCF3"/>
<path d="M35.4105 33.2049C36.7444 33.943 38.1315 34.5964 39.4867 35.3062C40.8418 36.0161 42.0588 36.7635 43.2492 37.6003C43.5202 37.7883 43.9029 37.558 44.0676 37.384C44.3493 37.0832 44.4874 36.5708 44.5246 36.1994C44.6097 35.3626 44.4981 34.3567 43.7115 33.7973C41.3626 32.1425 38.5726 30.5818 35.5434 30.2246C35.2883 30.1964 35.0492 30.5254 34.9748 30.6806C34.8419 30.9579 34.7888 31.2541 34.7728 31.5549C34.7462 32.0908 34.8313 32.8853 35.4052 33.2049H35.4105Z" fill="#FDFCF3"/>
<path d="M37.1537 22.2754C38.275 22.1672 39.391 22.0638 40.5017 21.9134C41.0597 21.8382 41.6177 21.763 42.1757 21.6643C42.4308 21.6219 42.6965 21.589 42.9463 21.5326C43.1961 21.4762 43.414 21.4104 43.5893 21.2224C43.7222 21.0813 43.7381 21.0625 43.9295 20.9685C44.1899 20.8416 44.3493 20.4561 44.413 20.2258C44.4981 19.892 44.5193 19.5536 44.4821 19.2104C44.4343 18.7309 44.2749 17.9411 43.6212 17.8518L43.2333 17.8001L43.6956 18.0211C43.5521 17.9035 43.4139 17.7484 43.2439 17.6591C43.0526 17.5557 42.8453 17.6027 42.6434 17.6356L41.8728 17.7578C41.3361 17.8424 40.7993 17.9552 40.2679 18.0587C39.1891 18.2702 38.1262 18.5241 37.058 18.7732C36.2768 18.9565 36.1439 19.939 36.1758 20.5454C36.1971 20.9591 36.2502 21.4151 36.4841 21.7771C36.6169 21.9839 36.8348 22.3083 37.159 22.2754H37.1537Z" fill="#FDFCF3"/>
<path d="M29.4851 13.5364C29.6233 13.2356 29.8039 12.8924 29.9634 12.4458C29.9952 12.3565 30.0218 12.2719 30.0537 12.1826C30.1069 12.0368 30.1175 12.0086 30.0856 12.0979C30.0537 12.1826 30.0643 12.1544 30.1175 12.0133C30.1494 11.9287 30.1813 11.8441 30.2185 11.7595C30.3194 11.5103 30.4151 11.2612 30.5054 11.012C30.5639 10.8428 30.5692 10.8334 30.5161 10.9791C30.548 10.8898 30.5852 10.8005 30.617 10.7112C30.7393 10.4009 30.8668 10.0907 30.9997 9.7851C31.2866 9.12698 31.6108 8.48296 31.9562 7.84834C32.121 7.54748 32.2963 7.25602 32.4558 6.95517C32.7002 6.50388 32.8437 6.01969 33.0032 5.5402C33.1839 4.98549 33.1148 4.28036 32.8862 3.74916C32.7799 3.50471 32.4026 2.8983 31.9988 3.18975C31.5949 3.48121 31.3238 3.75856 31.0687 4.16284C30.8615 4.4966 30.6702 4.83976 30.4948 5.18763C30.1494 5.86926 29.8305 6.56499 29.5489 7.27013C29.2353 8.05517 28.9271 8.84963 28.7251 9.65818C28.6295 10.0484 28.5391 10.4385 28.4594 10.8287C28.4063 11.1061 28.3478 11.3834 28.3266 11.6608C28.2947 12.0979 28.2947 12.2014 28.3266 11.971C28.3212 12.0744 28.3159 12.1732 28.3106 12.2766C28.284 12.742 28.2893 13.3719 28.6613 13.7527C28.9643 14.0629 29.3256 13.8561 29.4798 13.5317L29.4851 13.5364Z" fill="#FDFCF3"/>
<path d="M19.154 9.01886C19.1487 8.93424 19.1381 8.85432 19.1327 8.76971L19.053 9.50775C19.0318 9.58296 18.8936 9.94023 19.0371 9.53595C19.1062 9.34792 19.154 9.15518 19.1753 8.95304C19.2125 8.62868 19.1859 8.29962 19.1381 7.97996C19.1115 7.82013 19.0849 7.665 19.0584 7.50987C19.0052 7.17141 18.9574 6.83294 18.8989 6.49448C18.7767 5.83165 18.6492 5.16883 18.495 4.5154C18.3303 3.81027 18.1655 3.10043 17.9158 2.4141C17.7617 2.00043 17.5969 1.61495 17.3152 1.26239C17.1505 1.06025 16.9007 0.768793 16.5925 0.773494C15.9176 0.782895 15.5881 1.52564 15.4871 2.00043C15.4127 2.34829 15.4021 2.69146 15.4871 3.03932C15.5349 3.23676 15.6359 3.62693 15.891 3.70685C15.9495 3.72565 15.9973 3.75386 16.0504 3.77266C16.0611 3.77266 16.1461 3.81967 16.1461 3.81967C16.1461 3.81967 15.9601 3.65984 16.0664 3.76796C16.1833 3.88548 15.8697 3.4577 15.9813 3.65984C15.7581 3.24616 15.8432 3.33078 15.891 3.453C15.9495 3.59403 16.0451 3.86668 16.162 4.02181C15.9016 3.66454 16.0292 3.68805 16.093 3.87608C16.1089 3.92779 16.1248 3.9795 16.1408 4.02651C16.1992 4.17224 16.263 4.31797 16.3268 4.45899C16.1992 4.15343 16.1674 4.07822 16.2258 4.22395C16.2471 4.27566 16.2683 4.33207 16.2896 4.38378C16.3959 4.67053 16.4862 4.96669 16.5659 5.26284C16.6138 5.42738 16.6563 5.59661 16.6988 5.76114C16.7732 6.062 16.5925 5.31925 16.6616 5.60601C16.7147 5.83165 16.7732 6.062 16.8263 6.28764C16.6616 5.61541 16.8263 6.29704 16.8635 6.45687C16.9061 6.64021 16.9486 6.82354 16.9911 7.00687C17.1718 7.80603 17.3737 8.60048 17.6022 9.39023C17.7032 9.73809 17.9317 10.1612 18.3781 10.2129L18.2346 10.1847L17.8945 9.81801C17.9211 9.87912 17.953 9.94493 17.9849 10.006C18.123 10.2975 18.4525 10.5231 18.7661 10.274C19.1115 9.99664 19.1965 9.38553 19.1646 9.00475L19.154 9.01886Z" fill="#FDFCF3"/>
<path d="M10.9221 18.3877C10.7308 18.2232 10.5235 18.0728 10.3269 17.9129C10.1302 17.7531 10.0346 17.551 9.86453 17.3676C9.5563 17.0292 9.02488 16.7847 8.58379 16.6014C7.6963 16.2347 6.75035 15.9856 5.79377 15.8163C4.89565 15.6565 3.98157 15.586 3.06219 15.6048C2.60516 15.6142 2.14814 15.6471 1.69642 15.7035C0.851441 15.8069 0.505997 16.2958 0.288109 16.9963L0.543203 16.4698C0.399716 16.6296 0.298736 16.7941 0.203078 16.9775C-0.0573247 17.4664 -0.0254348 18.3407 0.37314 18.7779C0.500684 18.9189 0.628238 19.0177 0.798297 19.1164L0.458172 18.7497C0.734517 19.2809 1.14903 19.5536 1.8027 19.4595C2.22784 19.3984 2.65301 19.3561 3.08347 19.3326C3.96565 19.2856 4.85845 19.3326 5.73532 19.4548C6.54841 19.5724 7.34555 19.7651 8.11613 20.0236C8.50408 20.1553 8.92921 20.348 9.3331 20.4138C9.54036 20.4467 9.71043 20.3527 9.90706 20.3715C10.0931 20.3903 10.3322 20.5313 10.4969 20.6019C11.411 20.9826 11.3473 18.7497 10.9168 18.3924L10.9221 18.3877Z" fill="#FDFCF3"/>
<path d="M11.1612 29.4724C10.9062 29.4536 10.667 29.3925 10.4173 29.4019C10.2366 29.4066 10.0399 29.4489 9.86454 29.4677C9.42877 29.5147 8.99831 29.59 8.57316 29.684C7.73881 29.8673 6.91509 30.0835 6.08606 30.281C5.25702 30.4784 4.37483 30.7417 3.51922 30.9767C3.08876 31.0989 2.65832 31.2118 2.22786 31.3387C2.00997 31.4045 1.86648 31.4421 1.69111 31.5784C1.56356 31.6819 1.43602 31.79 1.30848 31.8981C1.2075 32.0344 1.11715 32.1801 1.05338 32.3306C0.606978 32.8994 0.511321 34.3238 1.28721 34.7421C1.38287 34.8409 1.49448 34.9302 1.6114 35.0054C1.75488 35.0383 1.89837 35.0712 2.04186 35.0994C2.29163 35.1182 2.43512 35.0759 2.67426 35.0054C3.10472 34.8832 3.53518 34.7562 3.96032 34.6293C4.78936 34.3896 5.6237 34.1592 6.44211 33.8866C7.26052 33.6139 8.09487 33.3554 8.90797 33.0686C9.33843 32.9135 9.76358 32.749 10.1728 32.5562C10.3482 32.4716 10.5342 32.3964 10.7095 32.3118C10.9646 32.1848 11.1666 31.9874 11.4004 31.8323C11.8255 31.5502 11.8628 30.925 11.8149 30.5019C11.7777 30.1682 11.6608 29.5053 11.1666 29.4724H11.1612Z" fill="#FDFCF3"/>
<path d="M15.6784 37.699C15.5934 37.8541 15.6306 37.84 15.79 37.652C15.6784 37.7178 15.5934 37.8024 15.5403 37.9105C15.4499 38.0328 15.3862 38.1691 15.3543 38.3148C15.2692 38.5263 15.3011 38.4699 15.4606 38.1456C15.2905 38.108 15.0673 39.1234 15.0407 39.2691C14.8919 39.9836 14.775 40.7029 14.6687 41.4221C14.488 42.6584 14.302 43.8948 14.1213 45.1264C14.0523 45.5777 14.1107 46.123 14.2595 46.5602C14.3552 46.8328 14.5518 47.2606 14.8707 47.4016C15.6785 47.7636 15.9867 46.4897 16.0451 46.076C16.2152 44.8584 16.3853 43.6409 16.5553 42.4234C16.6403 41.8123 16.7254 41.1965 16.7785 40.5806C16.821 40.087 16.837 39.6029 16.7891 39.1093C16.7573 38.7849 16.7891 39.3349 16.7838 38.9964C16.7785 38.6345 16.6935 38.2725 16.5075 37.9481L16.6988 38.5122C16.6935 38.6204 16.6882 38.5969 16.6828 38.437C16.6616 38.1268 16.6138 37.6567 16.3002 37.4545C16.0398 37.2853 15.7847 37.4404 15.6784 37.6943V37.699Z" fill="#FDFCF3"/>
</svg>
