<svg width="66" height="58" viewBox="0 0 66 58" fill="none" xmlns="http://www.w3.org/2000/svg">
<path d="M30.9927 11.3571C29.5738 10.5711 27.981 10.1106 26.3696 9.73C24.9289 9.38804 23.4324 9.19775 21.9421 9.24739C19.4458 9.33012 16.9619 10.0554 14.8445 11.2192C10.1375 13.8005 7.14136 18.2046 6.09503 22.9701C4.91519 28.356 5.80318 34.0315 7.95483 39.1389C9.9326 43.8354 13.1709 48.1513 18.0611 50.8015C19.3837 51.5185 20.7871 52.1142 22.206 52.6603C23.6249 53.2063 25.1401 53.7579 26.7049 54.0281C28.1362 54.2763 29.611 54.2377 30.9554 53.6917C32.0856 53.2339 33.1195 52.4286 33.6504 51.4165C33.9671 50.8098 34.1068 50.1838 34.1379 49.5192C34.1503 49.2351 34.0013 48.7084 33.6256 48.6477C33.2499 48.587 33.0481 49.0421 33.0264 49.304C32.9891 49.6956 32.8897 49.9907 32.5917 50.3796C32.2936 50.7684 31.8838 51.0938 31.4429 51.3448C30.3748 51.9515 29.1701 52.1446 27.9127 52.0729C26.4131 51.9874 24.9848 51.5185 23.6094 51.0083C22.234 50.4982 20.8802 49.9494 19.5731 49.3206C17.2041 48.1844 15.1363 46.7145 13.4069 44.8778C11.6775 43.0411 10.4418 41.0748 9.42341 38.9541C8.40503 36.8334 7.65055 34.5417 7.21898 32.3189C6.95818 30.9869 6.83088 29.9362 6.77809 28.6456C6.72531 27.3549 6.76878 26.409 6.95818 25.1101C7.04822 24.4924 7.14447 24.0291 7.30902 23.3837C7.45495 22.8267 7.62882 22.2503 7.83063 21.7236C8.23116 20.6701 8.74345 19.6332 9.38305 18.69C10.6126 16.8754 12.2364 15.2786 14.1738 14.0376C16.1112 12.7966 18.238 11.9307 20.548 11.5943C23.3486 11.1861 26.1274 11.699 28.7883 12.4767C29.4962 12.6836 30.1823 12.8353 30.9213 12.9263C31.2349 12.9649 31.3156 12.3802 31.3187 12.2258C31.3311 11.9445 31.2907 11.5253 30.9896 11.3571H30.9927Z" fill="#FDFCF3"/>
<path d="M34.8209 44.4752H34.8489C35.1811 44.4393 35.3426 44.045 35.3612 43.7913C35.4978 41.8691 34.8303 40.1207 34.0416 38.3584C33.3058 36.7121 32.5979 35.0519 32.0825 33.3393C31.595 31.7177 31.3125 30.1127 31.2908 28.4884C31.2783 27.6721 31.3342 26.8723 31.5112 26.0119C31.6726 25.2204 31.9272 24.4344 32.1663 23.654C32.4644 22.6777 32.7593 21.6905 32.8897 20.6811C33.0264 19.6139 33.0667 18.3977 32.5606 17.3994C32.4706 17.2229 32.275 17.1153 32.0887 17.2477C31.8745 17.3994 31.8403 17.7468 31.8434 17.9675C31.862 18.8279 31.9117 19.567 31.7472 20.4164C31.5826 21.2658 31.3187 22.0683 31.0641 22.8818C30.4959 24.6964 30.0985 26.5 30.0861 28.3891C30.0612 32.0294 31.2907 35.6641 32.8307 39.0038C33.2437 39.9 33.6846 40.7936 33.9857 41.7284C34.113 42.1228 34.2217 42.553 34.2621 42.9501C34.2931 43.2369 34.2497 43.532 34.3055 43.8161C34.3428 44.0091 34.5105 44.5083 34.8241 44.4752H34.8209Z" fill="#FDFCF3"/>
<path d="M36.6901 19.2554C36.718 18.9713 36.749 18.69 36.7863 18.4087C36.8018 18.2819 36.8236 18.155 36.8422 18.0281C36.867 17.8406 36.8515 17.9399 36.8422 17.984C36.8639 17.8379 36.895 17.6945 36.9167 17.551C36.9664 17.2229 36.9819 17.1374 37.0378 16.8781C37.103 16.5748 37.1744 16.2742 37.2582 15.9736C37.5346 14.9863 37.9103 14.0156 38.5499 13.111C39.1894 12.2065 40.0681 11.426 41.1641 10.9241C42.4868 10.3174 44.0112 10.2016 45.4705 10.3753C48.3456 10.7173 51.0592 12.1568 53.2295 13.8115C55.2663 15.3669 56.9677 17.2835 58.2003 19.4015C58.8461 20.5129 59.2901 21.4947 59.6876 22.7108C59.9018 23.3672 59.9701 23.6209 60.1129 24.2966C60.1719 24.5834 60.2247 24.8702 60.2682 25.1597C60.293 25.3114 60.3116 25.4659 60.3334 25.6203C60.3427 25.6892 60.3489 25.7554 60.3582 25.8244C60.3737 25.9567 60.3458 25.6672 60.3644 25.885C60.411 26.5111 60.4358 27.1371 60.4172 27.7658C60.411 28.0058 60.411 27.9092 60.4172 27.8541C60.4141 27.9396 60.4079 28.0278 60.4017 28.1133C60.3892 28.3064 60.3706 28.5022 60.352 28.6952C60.3116 29.1034 60.2588 29.5115 60.1967 29.9197C59.967 31.4447 59.6223 32.956 59.3088 34.4672C58.9952 35.9785 58.6971 37.5008 58.5884 39.0451C58.4798 40.5895 58.5046 42.1697 58.0668 43.601C57.8774 44.216 57.7315 44.5469 57.4303 45.0819C57.1292 45.6169 56.8125 46.0692 56.4554 46.4911C55.6761 47.4095 54.7322 48.223 53.6766 48.8931C49.4478 51.5792 41.8068 53.3111 38.4039 48.6946C38.3636 48.6394 38.3201 48.587 38.2859 48.5319C38.1897 48.3885 38.3201 48.6973 38.2425 48.4326C38.2083 48.3168 38.1555 48.2037 38.1245 48.0879C38.0469 47.8148 37.9817 47.5363 37.9599 47.255C37.9475 47.0896 37.8885 46.7173 37.6277 46.7228C37.3669 46.7283 37.3265 47.1116 37.3234 47.2688C37.3172 47.9555 37.5035 48.5291 37.7519 49.1689C38.0158 49.8528 38.3263 50.4761 38.8448 51.0442C39.829 52.117 41.22 52.8616 42.7196 53.2173C45.8183 53.9509 49.2274 53.369 52.0621 52.1142C54.6453 50.9697 56.9429 49.1855 58.3183 46.9103C59.1194 45.5838 59.5571 44.1222 59.7403 42.6275C59.9515 40.9066 59.9204 39.4064 60.1626 37.6773C60.619 34.3928 61.6157 31.191 61.7181 27.8679C61.8019 25.1239 61.2213 22.3523 60.0632 19.8097C58.9051 17.267 57.303 15.0332 55.198 13.1193C53.0929 11.2054 50.4972 9.56454 47.6097 8.74548C46.0542 8.30423 44.3838 8.06155 42.7631 8.33733C41.2976 8.58553 40.0184 9.22809 38.9814 10.174C37.0067 11.9776 36.2554 14.6168 35.9045 17.0381C35.8083 17.7 35.7834 18.3701 35.7555 19.0347C35.7462 19.2857 35.8486 19.8538 36.1964 19.92C36.5441 19.9862 36.6838 19.4732 36.7025 19.2554H36.6901Z" fill="#FDFCF3"/>
<path d="M36.1653 21.3237C35.9045 22.14 36.3951 23.1024 36.6093 23.8994C36.7956 24.5916 36.9633 25.2838 37.0688 25.9898C37.162 26.6131 37.1961 27.3053 37.1434 27.8927C37.0813 28.5821 36.9415 29.1861 36.7522 29.8645C36.3516 31.2985 35.8331 32.705 35.622 34.1749C35.386 35.8241 35.5133 37.5173 35.8673 39.1472C36.0567 40.0159 36.302 40.8791 36.5783 41.7312C36.8298 42.5117 37.0719 43.4631 37.6401 44.1112C38.0438 44.5717 38.3139 43.6286 38.2984 43.4162C38.2425 42.5861 37.9382 41.7671 37.6898 40.9701C37.4818 40.2999 37.2676 39.6298 37.1092 38.9486C36.7801 37.5559 36.5876 36.2129 36.7708 34.8588C36.954 33.5048 37.4538 32.2472 37.8202 30.9428C38.2642 29.3653 38.4319 27.7989 38.2518 26.1774C38.1555 25.3087 37.9661 24.4565 37.7395 23.6099C37.5128 22.7632 37.28 21.9552 36.9229 21.1803C36.8732 21.0755 36.718 20.9017 36.5659 20.9155H36.5286C36.3082 20.9348 36.2212 21.1692 36.1715 21.3237H36.1653Z" fill="#FDFCF3"/>
<path d="M42.1018 42.0263C43.0984 40.7908 45.2315 40.4709 46.7187 41.141L46.6845 39.9497C45.16 40.9701 43.9367 42.3517 43.2413 43.9347C43.1357 44.1746 43.0736 44.8778 43.4741 44.9468C45.0421 45.2143 46.4889 44.6296 47.8923 44.0808C49.1839 43.5761 50.6991 42.9612 52.1024 43.4934C52.711 43.7251 52.8476 41.9877 52.2887 41.7864C49.0814 40.6308 46.5883 44.0202 43.44 43.7582L43.6728 44.7703C44.3869 43.3307 45.4581 42.0897 46.8739 41.1438C47.1627 40.9508 47.1937 40.1096 46.8398 39.9524C45.0358 39.1389 42.8563 39.8862 41.9062 41.4251C41.8192 41.5685 41.8037 41.756 41.8565 41.9132C41.8875 42.0015 41.9869 42.1669 42.0956 42.0346L42.1018 42.0263Z" fill="#FDFCF3"/>
<path d="M21.5944 22.2613C20.9982 21.7429 20.399 21.1582 19.6476 20.8218C18.9584 20.5129 18.1884 20.3364 17.4246 20.2509C15.8877 20.0772 14.2949 20.3915 12.9816 21.1196C12.5934 21.3347 12.7114 22.2393 13.0188 22.4654C14.1055 23.2679 15.1953 24.0621 16.2509 24.8977C16.3658 24.9888 16.4807 25.0798 16.5956 25.1708C16.7105 25.2618 16.8657 25.4548 16.9961 25.5182C17.1793 24.9115 17.1576 24.6992 16.9309 24.8784C16.8843 24.9115 16.8378 24.9446 16.7881 24.9722C16.6608 25.0494 16.5211 25.1156 16.3782 25.168C15.8877 25.3528 15.3071 25.3969 14.7792 25.3804C13.7298 25.3528 12.727 25.1432 11.6806 25.3473C11.2335 25.4328 10.7492 25.5844 10.4045 25.863C9.9947 26.1911 9.76184 26.7206 9.73079 27.1977C9.72458 27.2694 9.73079 27.8265 9.96055 27.7796C10.1624 27.7383 10.2555 27.6169 10.4294 27.5232C10.6374 27.4128 10.8454 27.2915 11.0628 27.2005C11.5285 27.0047 12.047 26.9164 12.5593 26.8778C13.7795 26.7896 15.0432 27.0212 16.2354 26.6738C16.8253 26.5028 17.4184 26.2077 17.5674 25.6286C17.6605 25.2618 17.6233 24.826 17.4308 24.4868C17.2848 24.2304 17.0334 24.0566 16.7881 23.8801C15.5524 22.9811 14.3539 22.049 13.1523 21.1113L13.1896 22.4571C14.4812 21.7815 15.9653 21.5002 17.4618 21.5498C18.1759 21.5746 18.8745 21.6987 19.5576 21.8725C19.9177 21.9635 20.2717 22.0462 20.6288 22.14C20.9858 22.2337 21.2528 22.3551 21.5633 22.5564C21.644 22.6088 21.6565 22.311 21.5944 22.253V22.2613Z" fill="#FDFCF3"/>
<path d="M30.1885 1.95032C30.083 2.54049 29.8532 3.27405 29.4962 3.88904C29.0894 4.58675 28.4002 5.1521 27.5587 5.41408C25.8356 5.94633 24.0503 5.2431 22.3613 4.97284C18.5982 4.3744 14.6551 5.4913 11.3795 7.09081C8.04176 8.7179 4.94314 11.0455 2.9933 13.9797C0.9348 17.0795 0.149277 20.6232 0.0188742 24.189C-0.0339079 25.5789 0.0312936 26.9688 0.124439 28.356C0.226898 29.9031 0.335567 31.453 0.639841 32.9808C1.03415 34.9774 1.72343 36.9216 2.75423 38.7335C3.34105 39.7649 4.05826 40.7191 4.77548 41.6788C5.83733 43.1073 6.88987 44.5634 7.75301 46.094C8.76829 47.8893 9.57865 49.7674 10.923 51.4C13.1834 54.1467 16.667 55.9227 20.3617 56.6811C22.1936 57.0561 24.0875 57.1775 25.9598 57.0203C27.1893 56.9183 28.4467 56.6949 29.6793 56.899C30.707 57.0699 31.6354 57.5415 32.6662 57.707C33.7591 57.8835 34.7092 57.5167 35.6406 57.0451C36.6466 56.5377 37.6122 56.1985 38.7889 56.193C40.3848 56.1847 41.8472 56.7721 43.3996 57.0037C46.3616 57.4478 49.5037 57.2768 52.4191 56.6728C55.3346 56.0689 58.3711 55.0595 60.3365 53.0133C61.153 52.1639 61.7647 51.1269 61.8392 49.9962C61.8734 49.4943 61.8237 49.0007 61.8019 48.5015C61.7895 48.2313 61.7895 47.961 61.8019 47.6908C61.7926 47.9059 61.8082 47.6384 61.8082 47.6108C61.8144 47.5253 61.8237 47.4426 61.833 47.3598C61.8547 47.175 61.8796 46.9903 61.9106 46.8083C62.1869 45.1701 62.8048 43.5624 63.7269 42.1228C64.4193 41.0418 65.1241 40.0186 65.475 38.7969C65.8258 37.5752 65.9438 36.3232 65.801 35.0657C65.7451 34.5803 65.6612 34.0977 65.596 33.6151C65.5774 33.4744 65.5588 33.3365 65.5433 33.1959C65.5402 33.1711 65.5122 32.9229 65.534 33.1214C65.5246 33.0415 65.5184 32.9615 65.5091 32.8815C65.4719 32.4789 65.447 32.0762 65.4315 31.6708C65.3694 29.9748 65.4656 28.2871 65.6985 26.6021C65.8258 25.681 65.9345 24.7654 65.9593 23.8388C66.0276 21.1361 65.5557 18.3867 64.5311 15.8385C63.1712 12.4602 60.8022 9.60038 57.6415 7.38038C54.8005 5.38099 51.3418 3.84215 47.7153 3.42573C46.1225 3.24372 44.5049 3.3099 42.968 3.73736C42.0148 4.0021 41.1517 4.44059 40.2575 4.82668C39.6831 5.07488 38.7268 5.52439 38.1369 5.07488C38.0903 5.03903 38.0189 4.93699 38.0034 4.91217C37.8885 4.7274 38.0313 5.05281 37.9692 4.83771C37.9599 4.81013 37.9072 4.56745 37.9444 4.76325C37.8947 4.49299 37.8885 4.27237 37.9134 3.9828C37.9879 3.12789 38.1773 2.32262 38.4257 1.48702C38.5374 1.10644 38.525 0.527311 38.2145 0.215682C37.904 -0.0959461 37.6246 0.301172 37.547 0.565919C37.2738 1.49529 37.0161 2.43017 36.9136 3.38988C36.8236 4.23927 36.8142 5.16313 37.1527 5.97391C37.4445 6.66887 38.0251 7.25076 38.9255 7.18733C39.8259 7.1239 40.7015 6.64405 41.4963 6.2883C42.2912 5.93255 43.0363 5.64574 43.8777 5.48579C44.6602 5.33687 45.4612 5.27895 46.2623 5.28998C47.9358 5.3148 49.5937 5.64022 51.1679 6.14214C54.5832 7.23421 57.7346 9.12053 60.1378 11.5363C61.4325 12.838 62.4819 14.3217 63.2364 15.9212C63.9381 17.4104 64.3386 18.7976 64.6149 20.3529C64.6677 20.6508 64.7143 20.9514 64.7515 21.252C64.7608 21.3292 64.7702 21.4064 64.7795 21.4864C64.7826 21.5222 64.8105 21.7815 64.7857 21.5471C64.8012 21.7153 64.8167 21.8863 64.8323 22.0545C64.8695 22.5426 64.8881 23.0335 64.8881 23.5244C64.8881 23.7092 64.885 23.8939 64.8788 24.0787C64.8788 24.1532 64.8695 24.2276 64.8695 24.3048C64.8695 23.9436 64.8726 24.2166 64.8695 24.3048C64.8354 24.7957 64.7764 25.2838 64.7112 25.772C64.4814 27.4818 64.3479 29.1888 64.3696 30.9125C64.3852 32.2858 64.5466 33.6399 64.7515 34.9995C64.764 35.0905 64.7795 35.1815 64.7919 35.2725C64.8012 35.3414 64.8385 35.7055 64.8136 35.4187C64.8354 35.6531 64.8509 35.8847 64.854 36.1191C64.854 36.177 64.8509 36.2322 64.854 36.2901C64.8602 36.4942 64.8726 36.0916 64.854 36.2984C64.8416 36.4225 64.8354 36.5493 64.8198 36.6734C64.7888 36.9437 64.736 37.2608 64.6863 37.4953C64.5342 38.1902 64.3355 38.7142 64.0064 39.2961C63.73 39.787 63.3978 40.253 63.0842 40.7274C62.1248 42.1807 61.4697 43.7719 61.0754 45.4211C60.8829 46.2291 60.7587 47.0372 60.7308 47.8645C60.7153 48.3609 60.7587 48.8545 60.7773 49.3482C60.7773 49.4309 60.7836 49.5136 60.7836 49.5936C60.7836 49.6102 60.7929 49.7315 60.7836 49.7398C60.8022 49.7287 60.8084 49.4998 60.7836 49.6957C60.7711 49.7922 60.7556 49.8887 60.7401 49.9852C60.7867 49.7177 60.6966 50.0983 60.6687 50.1755C60.6563 50.2086 60.5724 50.3796 60.6563 50.2058C60.6283 50.261 60.6004 50.3189 60.5724 50.3741C60.5072 50.4954 60.4358 50.6112 60.3613 50.7271C60.2154 50.9504 60.1222 51.069 59.8987 51.3117C59.0448 52.2411 57.9178 52.914 56.7131 53.4462C53.9312 54.6762 50.7301 55.2002 47.647 55.3187C46.2436 55.3739 44.8278 55.3353 43.44 55.1257C41.9217 54.8941 40.4655 54.3011 38.8852 54.2708C37.7767 54.2515 36.7025 54.4969 35.7338 54.9658C34.7651 55.4346 33.9733 55.9089 32.8742 55.7931C31.8465 55.6828 30.912 55.1919 29.9091 54.9878C28.6827 54.7396 27.4501 54.9023 26.2143 55.0126C22.4948 55.3408 18.7007 54.6265 15.5058 52.8836C13.9409 52.0287 12.5593 50.9201 11.4664 49.6074C10.153 48.0244 9.40789 46.1354 8.39571 44.4007C7.51394 42.8839 6.45519 41.4389 5.39334 40.0186C5.21947 39.7842 5.04249 39.5498 4.86862 39.3154C4.73201 39.1334 4.95556 39.4367 4.82205 39.2547C4.78169 39.1996 4.74132 39.1472 4.70407 39.092C4.61403 38.9679 4.52399 38.8438 4.43395 38.717C4.11725 38.2674 3.81919 37.8041 3.54596 37.3326C2.58347 35.6669 1.95008 33.8881 1.62407 32.1038C1.54956 31.7039 1.49056 31.3013 1.43778 30.8959C1.41915 30.736 1.40052 30.576 1.3819 30.4161C1.3819 30.3885 1.34774 30.0769 1.37258 30.3168C1.36016 30.1954 1.35085 30.0741 1.34153 29.9555C1.28565 29.2909 1.24218 28.6235 1.19871 27.9561C1.15524 27.2887 1.12419 26.6379 1.10867 25.976C1.09936 25.6203 1.09625 25.2645 1.09936 24.9088C1.09936 24.724 1.10246 24.542 1.10867 24.3572C1.10867 24.28 1.11178 24.2028 1.11488 24.1256C1.11488 24.0787 1.11799 24.0318 1.12109 23.9849C1.11488 24.1008 1.11488 24.098 1.12109 23.9767C1.16766 23.1686 1.24218 22.3634 1.37258 21.5608C1.43778 21.1499 1.46262 21.0258 1.55577 20.6177C1.65512 20.182 1.77 19.749 1.90351 19.3215C2.91879 16.0674 5.18842 13.293 8.17837 11.1833C11.1683 9.07365 14.7016 7.47414 18.4616 7.00532C20.2282 6.7847 21.9328 6.89501 23.6591 7.2811C25.3854 7.66718 27.5122 7.95951 29.0273 6.79297C30.4493 5.69813 30.8995 3.96074 31.0268 2.36123C31.0486 2.09097 31.0517 1.51735 30.7039 1.37946C30.3562 1.24157 30.2351 1.76004 30.201 1.95032H30.1885Z" fill="#FDFCF3"/>
<path d="M31.7596 9.61693C32.542 9.77137 33.4455 9.80722 34.0478 9.2529C34.6502 8.69859 34.644 7.68373 34.467 6.95017C34.3707 6.54477 34.2341 6.15041 34.1161 5.75329C34.0416 5.49682 34.0323 5.48579 33.9795 5.21001C33.9268 4.93423 33.9081 4.80737 33.8988 4.57572C33.8647 3.67393 34.2124 2.8135 34.3832 1.90344C34.4328 1.64697 34.259 0.747932 33.8119 1.12575C33.1381 1.69385 32.9674 2.80799 32.8804 3.58017C32.7562 4.66949 32.9332 5.75053 33.2561 6.79849C33.312 6.9805 33.371 7.15976 33.43 7.34177C33.4548 7.41899 33.4766 7.49345 33.4983 7.57066C33.5573 7.75543 33.4828 7.43002 33.5138 7.62858C33.5231 7.69476 33.5387 7.76371 33.548 7.8299C33.5355 7.68098 33.5324 7.65891 33.5355 7.76371L33.5418 7.62858C33.5076 7.81611 33.548 7.45484 33.5418 7.62858C33.5511 7.41623 33.4952 7.67822 33.5324 7.62306C33.5883 7.54309 33.3368 7.80507 33.4238 7.73613C33.3213 7.81611 33.2033 7.87953 33.0822 7.93193C32.6724 8.11394 32.1725 8.19668 31.7254 8.26562C31.1914 8.34836 31.2628 9.52317 31.7627 9.62245L31.7596 9.61693Z" fill="#FDFCF3"/>
</svg>
