<svg width="70" height="60" viewBox="0 0 70 60" fill="none" xmlns="http://www.w3.org/2000/svg">
<path d="M11.7538 10.835C11.0844 9.66332 9.70235 9.69213 8.4071 9.57368C7.26742 9.46804 6.31588 8.97504 5.84192 8.05946C5.81298 8.00183 5.78403 7.94421 5.75871 7.88338C5.69358 7.73612 5.79489 7.98583 5.74061 7.83536C5.72252 7.78414 5.63931 7.49602 5.68273 7.6785C5.65378 7.55365 5.63207 7.42239 5.62122 7.29754C5.64293 7.53764 5.64293 7.32955 5.62846 7.30074C5.62846 7.18869 5.62846 7.17269 5.62846 7.25592C5.62484 7.33916 5.62846 7.32315 5.63207 7.2111C5.65378 7.06384 5.67187 6.93259 5.72252 6.81094C5.82383 6.55803 5.95046 6.35955 6.13136 6.13866C6.91647 5.18466 8.21896 4.64044 9.51783 4.47077C10.1799 4.38433 10.8565 4.38753 11.515 4.48037C12.358 4.60202 13.1612 4.87413 13.9897 5.04701C14.8182 5.21988 15.701 5.26149 16.5585 5.0246C17.3653 4.8037 18.0926 4.43555 18.8234 4.0642C21.2909 2.80928 24.0044 2.25545 26.8482 2.46994C29.6919 2.68442 32.3042 3.6 34.4677 5.13984C36.6313 6.67968 37.9772 9.1223 39.855 11.0271C40.821 12.0067 41.9715 12.8614 43.35 13.3384C44.8913 13.8731 46.57 14.0043 48.1077 14.5485C49.3885 14.9999 50.416 15.749 51.2119 16.7383C52.0079 17.7275 52.4023 18.6943 52.7713 19.7795C52.8726 20.074 52.9631 20.3718 53.0499 20.6695C53.0933 20.82 53.1367 20.9672 53.1765 21.1177C53.1982 21.1913 53.2163 21.2681 53.238 21.3418C53.1946 21.1785 53.2417 21.3674 53.2597 21.4346C53.4153 22.0621 53.5528 22.6959 53.6831 23.3298C53.8242 24.0117 53.9472 24.6968 54.0268 25.385C54.0593 25.6476 54.0376 25.4939 54.034 25.4395C54.0412 25.5259 54.0485 25.6123 54.0557 25.6988C54.0666 25.8716 54.0774 26.0413 54.081 26.2142C54.0847 26.3871 54.081 26.5567 54.081 26.7264C54.081 26.7616 54.0666 26.9729 54.081 26.7712C54.0738 26.8769 54.0666 26.9793 54.0557 27.0849C53.9942 27.6708 53.8784 28.167 53.589 28.7368C53.2742 29.3547 52.7966 29.8701 52.2756 30.3599C51.6968 30.9041 51.0672 31.4228 50.6041 32.0534C50.0904 32.7481 49.7611 33.5196 49.6562 34.3488C49.5513 35.1779 49.6815 36.1479 50.1953 36.8874C50.4702 37.2844 50.8827 37.3228 51.1215 36.8682C51.3603 36.4136 51.382 35.6165 51.0745 35.1619C51.0528 35.1299 50.861 34.8546 50.9623 35.0338C50.8827 34.893 50.9406 34.8994 50.9515 35.005C50.9732 35.1875 50.9442 35.0274 50.9515 34.9698C50.9261 35.1171 50.9623 34.9218 50.9659 34.9026C50.9876 34.8258 51.0093 34.7425 51.0419 34.6657C51.0781 34.5793 51.1975 34.3584 51.2843 34.2335C51.704 33.6157 52.348 33.1131 52.9088 32.5976C54.1642 31.4516 54.9494 30.139 55.2677 28.564C55.5861 26.9889 55.474 25.3658 55.2135 23.7876C54.9819 22.3822 54.6635 20.9768 54.2728 19.597C53.56 17.068 52.3661 14.3789 49.8805 12.8134C48.5201 11.9555 46.8703 11.677 45.2784 11.3312C43.6865 10.9855 42.3333 10.4733 41.1792 9.50646C39.0337 7.70091 37.7963 5.22308 35.6146 3.44314C33.433 1.6632 30.7593 0.597159 27.8612 0.232207C24.9632 -0.132744 22.0434 0.267422 19.4746 1.4263C17.9406 2.11779 16.5585 3.14862 14.7314 2.98215C13.8305 2.89891 12.9767 2.60759 12.1011 2.41231C11.3775 2.25225 10.6394 2.18182 9.89411 2.23304C8.47222 2.32908 7.06119 2.82208 6.04815 3.72166C4.94465 4.70446 4.47792 6.05222 4.54305 7.42239C4.60455 8.66131 5.03872 9.99626 6.07709 10.8734C7.11546 11.7506 8.33112 11.693 9.65532 11.8018C10.1076 11.8402 10.8167 11.8978 11.0627 12.3012C11.2726 12.647 11.6091 12.663 11.7936 12.2852C11.9962 11.869 11.9853 11.2416 11.7538 10.835Z" fill="#FDFCF3"/>
<path d="M12.5172 13.6522C10.1872 16.4181 11.515 20.5222 13.968 22.8496C16.8226 25.5579 21.1715 26.1021 24.9451 27.2546C25.7845 27.5107 26.8554 27.754 27.5356 28.2919C27.5826 28.3271 27.6658 28.4231 27.7093 28.4551C27.8865 28.5832 27.731 28.5608 27.7527 28.5287C27.7635 28.5127 27.6984 28.2502 27.6948 28.2022C27.6839 27.7572 27.6369 28.3079 27.7273 27.9173C27.6912 28.0774 27.7382 27.8757 27.7527 27.8533C27.731 27.8853 27.6224 28.071 27.7454 27.8917C27.6767 27.9973 27.5935 28.0934 27.503 28.183C27.2064 28.4871 26.6998 28.8073 26.2548 29.1018C25.77 29.4219 25.2671 29.7581 24.8836 30.1774C23.7548 31.4131 24.0225 33.3788 25.3467 34.4C25.5891 34.5889 25.8532 34.7553 26.092 34.9474C26.2186 35.0467 26.3416 35.1555 26.4393 35.2772C26.4647 35.306 26.5334 35.3604 26.5081 35.3924C26.5117 35.386 26.4538 34.7297 26.4321 34.6849C26.3851 34.5697 26.5334 34.6145 26.4321 34.6369C26.3887 34.6465 26.291 34.797 26.2548 34.8258C26.1354 34.9218 25.9762 35.005 25.8351 35.0723C25.448 35.2579 25.0464 35.3252 24.605 35.3316C23.4291 35.3476 22.2388 35.0531 21.1136 35.4852C20.3574 35.7766 19.8003 36.4168 19.4783 37.0699C18.6931 38.6674 18.8668 40.9051 20.4551 42.0672L20.3936 39.823C19.1237 40.6394 17.4485 40.3577 16.023 40.0855C14.5975 39.8134 12.973 39.3076 11.5005 39.6374C9.3116 40.1272 8.76167 42.3713 9.14156 44.1096C9.55039 45.9856 10.9035 47.5671 12.7379 48.5435C16.4825 50.5379 20.9761 50.0897 25.1043 49.6639C27.731 49.395 30.459 49.1485 33.0567 49.7279C35.3288 50.2338 37.4128 51.4086 39.7862 51.5559C41.1575 51.6423 42.2971 51.2134 43.4296 50.5699C44.0012 50.2434 44.5801 49.9456 45.2531 49.8144C45.926 49.6831 46.6134 49.6671 47.2972 49.6511C48.5201 49.6255 49.7249 49.5807 50.8393 49.0781C52.0079 48.5499 52.7026 47.6119 52.8184 46.4562C52.8582 46.0784 52.8364 45.3421 52.3661 45.1501C51.8958 44.958 51.704 45.6495 51.657 45.912C51.6895 45.7391 51.5629 46.0272 51.6461 45.912C51.4471 46.1969 51.751 45.7903 51.5484 46.0688C51.4471 46.2097 51.3205 46.3441 51.1794 46.4562C50.8719 46.7027 50.4847 46.882 50.1012 47.0228C49.1424 47.3686 48.0896 47.343 47.0729 47.3654C45.9079 47.391 44.7465 47.4774 43.7009 47.9768C42.7313 48.4378 41.91 49.0589 40.7848 49.1901C38.5959 49.443 36.5192 48.3994 34.5184 47.7847C32.1594 47.0612 29.7354 46.9652 27.2642 47.1541C23.1433 47.471 18.8668 48.4154 14.8291 47.1285C13.2661 46.6323 11.7791 45.8255 10.8493 44.577C10.6467 44.3017 10.4621 43.9976 10.3427 43.687C10.2631 43.479 10.2487 43.4373 10.2197 43.2229C10.2451 43.4149 10.2197 43.0244 10.2161 43.0308C10.2053 43.2004 10.2812 42.8835 10.2342 43.0052C10.4223 42.4929 10.8818 42.1184 11.486 41.9487C12.1337 41.763 12.8826 41.8271 13.5483 41.9167C14.4058 42.032 15.2452 42.2304 16.0918 42.3937C17.6403 42.6914 19.4095 42.9347 20.7844 42.0544C21.4682 41.619 21.3126 40.2456 20.7229 39.8102C20.4732 39.6246 20.4081 39.5029 20.2995 39.2884C20.3357 39.362 20.2995 39.4101 20.2995 39.282C20.2995 39.0195 20.3176 39.4261 20.2887 39.266C20.2742 39.1956 20.2634 39.1252 20.2525 39.0515C20.2778 39.2436 20.2706 39.154 20.267 39.0131C20.2742 39.2788 20.267 39.1284 20.2706 39.0611C20.2995 38.7762 20.1946 39.2692 20.2815 38.9939C20.2995 38.9363 20.314 38.8786 20.3321 38.8242C20.2815 38.9875 20.3213 38.8498 20.3357 38.8146C20.4768 38.5169 20.5275 38.4081 20.7952 38.1551C22.0434 36.9803 24.2215 37.9951 25.7845 37.5149C27.7816 36.9002 28.2411 34.5024 26.9531 33.1131C26.7215 32.8633 26.4285 32.6617 26.1499 32.4568C25.8713 32.2519 25.6651 32.0534 25.4227 31.8389C25.4371 31.8517 25.524 31.9894 25.3973 31.7973C25.5131 31.9702 25.4046 31.6693 25.4154 31.8645C25.4154 31.919 25.4516 32.2775 25.4516 32.0694C25.4516 32.1943 25.4444 32.3127 25.4154 32.4344C25.4661 32.2263 25.3648 32.6136 25.3973 32.476C25.4082 32.428 25.448 32.3767 25.4733 32.3351C25.3612 32.524 25.5782 32.2263 25.6253 32.1751C26.2693 31.4932 27.4271 30.9842 28.1579 30.2287C29.2722 29.0826 29.1927 27.0433 27.854 26.0669C27.1521 25.5547 26.1969 25.3146 25.3539 25.0617C24.4024 24.7768 23.44 24.5271 22.4812 24.2742C20.5492 23.7684 18.6027 23.2498 16.8335 22.3822C15.2054 21.5851 13.8522 20.4262 13.049 18.928C12.8464 18.5534 12.7632 18.3485 12.6402 17.9388C12.6293 17.8971 12.5751 17.673 12.6149 17.8491C12.5932 17.7467 12.5714 17.641 12.557 17.5386C12.5461 17.4682 12.5353 17.4009 12.528 17.3305C12.557 17.5866 12.528 17.2217 12.528 17.1704C12.528 17.1096 12.5461 16.8823 12.528 17.116C12.5389 17.0136 12.5461 16.9111 12.5606 16.8087C12.5353 16.9816 12.5606 16.8151 12.5642 16.7799C12.5932 16.6614 12.6221 16.5462 12.6619 16.4309C12.7234 16.2485 12.5714 16.6294 12.7053 16.3221C12.7487 16.2228 12.7921 16.1268 12.8428 16.0308C12.9296 15.8579 13.0346 15.701 13.1539 15.5442C13.4723 15.1216 13.476 14.5005 13.3168 14.0267C13.2191 13.7322 12.8717 13.2424 12.528 13.6458L12.5172 13.6522Z" fill="#FDFCF3"/>
<path d="M56.5847 45.3005C57.8004 44.7659 58.9907 44.1768 59.9459 43.3093C60.901 42.4417 61.5342 41.1452 61.5957 39.8807C61.6572 38.6161 61.2882 37.3452 60.2317 36.5033C59.443 35.8758 58.4444 35.5909 57.4024 35.482C56.1723 35.354 54.924 35.4756 53.712 35.6709C53.1874 35.7541 53.0933 36.4552 53.115 36.8362C53.1295 37.0891 53.2634 38.0559 53.7771 37.9727C55.6838 37.6589 58.6398 37.2812 60.0182 38.8306C60.1123 38.9363 60.2498 39.1572 60.304 39.3204C60.2389 39.1348 60.3511 39.6854 60.333 39.4197C60.3366 39.4965 60.3402 39.5701 60.3366 39.647C60.3366 39.5349 60.3366 39.5509 60.3221 39.6886C60.3004 39.8006 60.2462 40.0183 60.1666 40.1944C60.0472 40.4569 59.8916 40.7034 59.7035 40.9307C58.8207 41.9871 57.4965 42.6466 56.2121 43.2517C55.5174 43.5782 55.7707 45.6655 56.5883 45.3069L56.5847 45.3005Z" fill="#FDFCF3"/>
<path d="M19.6338 37.3516C17.7344 38.5169 15.3465 37.4893 13.6279 36.5545C11.7502 35.5333 9.85069 34.4512 7.54239 34.6977C5.49459 34.9186 3.62045 35.9718 2.37947 37.4156C0.910552 39.1283 0.371466 41.3821 0.519805 43.5014C0.812865 47.6759 3.40337 51.4471 7.3036 53.768C9.06196 54.8117 11.0483 55.5224 13.1286 55.8649C15.4442 56.2491 17.7778 56.025 20.0897 55.7464C22.4016 55.4679 24.8402 55.1062 27.21 55.4039C28.3858 55.5512 29.4966 55.9065 30.5132 56.4443C31.4394 56.9341 32.2788 57.536 33.1544 58.0898C34.0299 58.6437 34.9272 59.1367 35.9475 59.4056C37.1487 59.7193 38.3897 59.7289 39.6126 59.4984C42.2175 59.0118 44.6271 57.7857 46.997 56.7581C51.9319 54.6196 56.8344 52.4267 61.6825 50.1345C63.6688 49.1965 65.8179 48.2425 67.2326 46.6355C68.3035 45.4158 68.9113 43.9175 69.085 42.3873C69.4287 39.3428 68.2565 35.943 65.5574 33.9294C64.1066 32.8505 62.4206 32.3703 60.5573 32.1687C58.5819 31.9542 56.5196 32.0534 54.5912 31.5732C53.6975 31.3491 52.8401 30.9938 52.1635 30.4175C51.7727 30.0846 51.4218 30.4752 51.3096 30.8177C51.1721 31.2371 51.1866 31.935 51.5774 32.2679C54.5912 34.8258 58.9618 33.6637 62.6051 34.6753C64.0632 35.0819 65.3005 35.9014 66.2159 36.9803C67.077 37.9951 67.5582 39.1412 67.7536 40.3032C67.7644 40.3705 67.8187 40.8154 67.797 40.5689C67.8151 40.7514 67.8259 40.9371 67.8295 41.1196C67.8332 41.2732 67.8295 41.4269 67.8295 41.5774C67.8368 41.3149 67.8259 41.619 67.8223 41.6574C67.8151 41.747 67.8042 41.8399 67.7934 41.9295C67.7716 42.096 67.7427 42.2593 67.7138 42.4257C67.6812 42.5986 67.7789 42.1952 67.7029 42.4801C67.6812 42.5698 67.6559 42.6562 67.6305 42.7458C67.5329 43.0724 67.4207 43.3669 67.3302 43.5494C66.5886 45.0604 65.145 46.104 63.5096 46.9556C61.3641 48.0729 59.0992 49.0333 56.8814 50.0321C54.5405 51.0853 52.1997 52.1289 49.8443 53.1534C47.489 54.1778 45.1771 55.1766 42.8037 56.1114C40.7197 56.9309 38.2667 57.7153 35.9945 57.0302C33.9938 56.4283 32.4959 55.0133 30.6941 54.0946C28.744 53.0989 26.4827 52.8524 24.2649 52.9581C21.9168 53.0701 19.6085 53.5023 17.264 53.6528C15.1656 53.7904 13.0888 53.6368 11.0953 53.0189C7.35425 51.8568 4.0112 49.3438 2.52057 46.0464C2.34691 45.6655 2.2058 45.2685 2.08641 44.8715C2.01767 44.6378 1.98149 44.4842 1.93083 44.2281C1.91274 44.1384 1.89827 44.0488 1.8838 43.9624C1.86933 43.8727 1.85486 43.7831 1.844 43.6934C1.82591 43.543 1.82229 43.5142 1.83315 43.607C1.7427 42.6946 1.80782 41.9423 2.13344 41.0363C2.69424 39.4677 4.05462 38.184 5.70443 37.4573C6.57276 37.0763 7.52068 36.865 8.49393 36.881C9.53954 36.9002 10.4983 37.214 11.4137 37.6429C13.3059 38.5297 14.9883 39.7878 17.2025 39.9639C18.1866 40.0407 19.1997 39.855 20.0065 39.3332C20.4262 39.0611 20.4624 38.4721 20.3828 38.0559C20.3393 37.8286 20.0644 37.0891 19.6374 37.3516H19.6338Z" fill="#FDFCF3"/>
<path d="M24.0912 10.1691C25.7483 10.0955 27.3511 10.2043 28.8706 10.8446C30.3106 11.4497 31.5769 12.4165 32.3439 13.665C33.1652 14.9999 33.1435 16.7991 34.6269 17.8491C35.7811 18.6655 37.373 18.6078 38.7659 18.5502C40.0431 18.499 42.4021 18.2333 43.0967 19.5042L42.9231 19.0144C42.9122 18.9696 43.0063 18.4926 42.9665 18.5022C42.9411 18.5086 42.8869 18.595 42.8688 18.611C42.7675 18.6975 42.6806 18.7967 42.5793 18.8831C42.3695 19.0656 42.1379 19.2257 41.9064 19.3858C41.4288 19.7123 40.9295 20.0132 40.4592 20.3462C39.5257 21.012 38.7913 21.7707 38.5018 22.8208C38.0423 24.4823 38.6538 27.3667 41.2551 26.8609C42.1705 26.6816 42.9592 26.227 43.8384 25.9613C44.1568 25.8652 44.5475 25.7884 44.8768 25.8813C45.0504 25.9293 45.1698 26.0189 45.2929 26.1278C45.3146 26.147 45.311 26.243 45.311 26.163C45.311 26.1342 45.2892 26.0733 45.282 26.0477C45.2748 26.0189 45.2748 25.9869 45.2784 25.9549C45.282 25.8941 45.2784 25.8941 45.2748 25.9613C45.2856 25.9709 45.2748 25.9933 45.2494 26.0413C45.2494 26.0477 45.1807 26.179 45.1518 26.2238C45.036 26.3999 44.8587 26.5567 44.6814 26.6848C44.2183 27.0145 43.6684 27.2418 43.1401 27.4755C41.9751 27.9973 40.9259 28.6728 40.5062 29.8157C40.0612 31.0226 40.3977 32.5048 41.6133 33.2475C42.5142 33.7981 43.7697 33.8814 44.8298 33.8718L44.2726 33.3435C44.3992 33.6381 44.3015 33.1867 44.287 33.1611C44.2509 33.1002 44.4028 33.0234 44.2328 33.2059C44.1061 33.3403 44.0048 33.4844 43.8637 33.6093C43.5164 33.9134 43.0714 34.1055 42.63 34.2847C41.7183 34.6561 40.7197 35.005 40.1372 35.7734C39.5547 36.5417 39.5004 37.7166 39.8731 38.6065C40.1806 39.3396 40.8246 39.9959 41.758 39.6246C42.3152 39.4005 42.2935 37.7358 41.5627 37.7614C41.3058 37.771 41.067 37.6589 40.9295 37.5213C40.8463 37.4348 40.9187 37.5085 40.8753 37.4477C40.8246 37.3708 40.897 37.5341 40.8463 37.3836C40.9078 37.5597 40.8608 37.2972 40.8572 37.4316C40.8572 37.5181 40.8282 37.6685 40.8608 37.5053L40.8427 37.5917C40.8065 37.6589 40.8065 37.6653 40.8355 37.6077C40.8355 37.6077 40.8897 37.5277 40.9151 37.4957C41.0344 37.3548 41.1792 37.2364 41.3384 37.1339C41.7002 36.9034 42.109 36.7338 42.5178 36.5705C43.3608 36.2343 44.1785 35.9046 44.7755 35.2483C45.5317 34.4128 45.756 33.2219 45.329 32.2167C45.2386 32.0054 45.0866 31.6853 44.7719 31.6885C43.9252 31.6949 43.028 31.6436 42.2573 31.3107C42.1343 31.2563 41.9968 31.1987 41.8883 31.1218C41.7327 31.0162 41.6459 30.8945 41.5844 30.8145C41.6893 30.9458 41.5735 30.7121 41.5844 30.8209C41.5844 30.8433 41.5916 30.965 41.6025 30.9778C41.6387 31.0162 41.465 31.1602 41.6531 30.9169C41.7255 30.8209 41.7834 30.7313 41.8666 30.6384C42.5432 29.9117 43.6069 29.6172 44.4969 29.1498C45.4665 28.6408 46.1793 27.9237 46.4325 26.9345C46.6858 25.9453 46.5592 24.6359 45.5678 23.9733C44.8949 23.5219 44.0989 23.6403 43.3608 23.8836C42.6228 24.1269 41.9607 24.5111 41.2045 24.6551C40.8716 24.7192 40.5026 24.748 40.177 24.6391C40.0178 24.5847 39.8803 24.5111 39.7718 24.4118C39.7283 24.3734 39.6849 24.3254 39.6524 24.2838C39.7392 24.3958 39.4534 24.0693 39.627 24.223L39.5981 24.1397C39.627 24.2614 39.627 24.2614 39.6017 24.1397C39.5691 24.0341 39.6487 24.0181 39.6017 24.1621C39.6922 23.8804 39.5547 24.3798 39.6017 24.0821C39.6053 24.0565 39.6704 23.7556 39.6126 23.9701C39.6958 23.6627 39.7754 23.4931 40.0322 23.2145C40.7052 22.4814 41.6567 22.0108 42.4817 21.4314C43.596 20.6439 44.4137 19.7443 44.117 18.3933C43.9252 17.5226 43.1438 16.8439 42.2175 16.5526C40.6256 16.0532 38.8998 16.4053 37.2572 16.3637C36.4938 16.3445 35.6979 16.2485 35.0647 15.8323C34.3339 15.3521 34.1638 14.5229 33.9214 13.7994C33.2883 11.8818 31.9532 10.2716 29.9995 9.24395C28.2194 8.30916 25.9111 7.84497 23.932 8.52685C23.4436 8.69652 23.4943 10.1947 24.0985 10.1691H24.0912Z" fill="#FDFCF3"/>
</svg>
