<svg width="56" height="60" viewBox="0 0 56 60" fill="none" xmlns="http://www.w3.org/2000/svg">
<path d="M17.6761 19.3599C13.2949 18.0753 8.50216 19.6684 5.27548 22.4176C2.04881 25.1669 0.633828 29.4933 0.944907 33.4862C1.29401 37.9856 3.53528 42.2844 6.98173 45.5768C8.76439 47.2786 10.8062 48.7331 13.0561 49.9201C15.306 51.1071 17.6533 51.8315 19.9909 52.7375C21.2937 53.245 22.5461 53.8249 23.6741 54.6031C24.8022 55.3814 25.8789 56.2848 27.0488 57.0466C28.2187 57.8084 29.3853 58.3896 30.7243 58.7779C32.0633 59.1661 33.3836 59.4162 34.7384 59.0585C35.1447 58.9517 34.8635 58.1849 34.7787 57.9958C34.6102 57.6294 34.317 57.1583 33.8432 57.0653C32.6783 56.8351 31.4776 56.7159 30.3314 56.4137C29.2862 56.1406 28.2776 55.7036 27.3716 55.1617C25.3069 53.9263 23.6335 52.2706 21.4433 51.1855C19.2532 50.1004 16.9478 49.497 14.7496 48.5605C12.679 47.6792 10.7334 46.583 8.99631 45.2474C7.25921 43.9118 5.8355 42.429 4.72996 40.7446C4.76279 40.7923 4.48255 40.3566 4.57679 40.5096C4.67103 40.6626 4.40599 40.2209 4.43334 40.2667C4.30883 40.0528 4.19194 39.8359 4.07717 39.6142C4.03514 39.5296 3.99311 39.445 3.94939 39.3571C3.94435 39.3469 3.74348 38.9245 3.86365 39.1846C3.76534 38.9685 3.67464 38.7494 3.59155 38.5273C3.2461 37.6402 3.03552 36.878 2.86823 35.8644C2.28649 32.3334 3.31636 28.4491 5.97159 25.6572C9.02536 22.4503 13.816 20.8621 18.4894 21.5268C19.0329 21.6046 18.8116 20.7294 18.7335 20.5175C18.5611 20.0516 18.2283 19.5192 17.6761 19.3599Z" fill="#FDFCF3"/>
<path d="M39.0535 59.7709C41.3783 59.9099 44.0204 59.6536 46.021 58.509C48.1751 57.28 48.8118 55.2032 49.4869 53.1396C51.042 48.3904 52.7043 43.6557 54.1343 38.8747C54.7682 36.7464 55.2414 34.5236 55.0471 32.3119C54.8349 29.8446 53.949 27.5041 52.8673 25.2363C50.9187 21.142 48.378 16.9728 44.155 14.4054C40.3432 12.0889 34.706 11.6446 31.1957 14.6466C31.0395 14.7806 31.101 15.1971 31.1323 15.3424C31.1987 15.6681 31.363 16.0078 31.5587 16.2827C31.7873 16.6053 32.2932 17.1749 32.7284 16.8061C35.5575 14.419 40.1131 14.5721 43.3942 16.0862C45.2609 16.9506 46.8015 18.3027 48.038 19.8023C48.2882 20.1043 48.6044 20.53 48.8641 20.897C48.9887 21.0745 49.115 21.2554 49.2358 21.4344C49.3099 21.5468 49.3856 21.6626 49.4597 21.775C49.5026 21.8431 49.5455 21.9111 49.5939 21.981C49.6882 22.134 49.7088 22.1664 49.6575 22.0814C50.1973 22.957 50.6812 23.8666 51.139 24.7784C52.0545 26.6021 52.8942 28.4837 53.2064 30.5117C53.5186 32.5396 53.1206 34.5754 52.5852 36.5357C51.999 38.6776 51.2709 40.7902 50.5927 42.9116C49.865 45.1899 49.1391 47.4715 48.4115 49.7497C48.0346 50.9404 47.6924 52.1458 47.2514 53.3172C46.8691 54.3322 46.2875 55.3122 45.3307 55.9948C43.3264 57.4156 40.6771 57.5293 38.281 58.0246C37.923 58.1003 38.1777 58.8048 38.2462 58.9517C38.3726 59.2336 38.662 59.7426 39.065 59.7664L39.0535 59.7709Z" fill="#FDFCF3"/>
<path d="M22.1302 13.142C21.884 11.7592 20.9241 10.624 19.6367 9.86378C18.5299 9.21063 17.0214 9.03033 15.7256 8.94851C14.3313 8.86083 12.965 8.91174 11.5929 8.58497C10.9639 8.4356 10.3062 8.22874 9.77905 7.88176C9.70525 7.83391 9.63019 7.77443 9.56232 7.72021C9.5463 7.70629 9.33391 7.49857 9.46453 7.63327C9.31285 7.47449 9.4286 7.64332 9.49391 7.71067C9.4109 7.62601 9.4687 7.65993 9.45428 7.51198C9.41785 7.04525 9.18884 6.55706 8.85433 6.19514C8.6799 6.00891 8.26849 5.65695 8.0219 5.9477C6.38981 7.8976 6.43814 10.3646 7.47443 12.541C8.00351 13.6512 8.84065 14.7133 9.93253 15.437C11.1324 16.2315 12.5426 16.5069 14.0086 16.6473C15.3596 16.7762 16.97 16.7589 18.1333 17.4707C18.3535 17.6026 18.5777 17.7976 18.6712 17.8943C18.7155 17.9376 18.8958 18.1539 18.7791 18.0016C18.8263 18.0599 18.8675 18.1245 18.9109 18.1843C18.8435 18.0854 18.8182 18.0711 18.8982 18.1772C18.6928 17.9101 18.946 18.3282 18.9062 18.2023C18.85 18.0344 18.8965 18.3476 18.9041 18.2072C18.9082 18.0965 18.9052 18.2553 18.9048 18.2635C18.9016 18.3577 18.8614 18.5514 18.7549 18.7306C17.9736 19.9951 15.8193 19.769 14.494 20.1676C13.1687 20.5662 12.084 21.5132 11.4958 22.617C10.652 24.2132 10.8688 25.8663 11.5385 27.4792C11.8123 28.1398 12.2018 28.8318 12.135 29.5209C12.0682 30.21 11.6955 30.7685 10.9957 31.035C10.6477 31.1674 10.7861 31.7478 10.8489 31.9657C10.9796 32.4116 11.2416 32.8747 11.6388 33.1797C13.6651 34.7495 17.0492 34.4123 18.5603 32.3926C18.9816 31.8312 19.1607 31.1668 19.2945 30.512C19.4284 29.8572 19.5324 29.1333 20.0503 28.6107C20.8262 27.8294 22.3116 27.7803 23.3028 28.2282C23.5539 28.3399 23.7309 28.4766 23.8139 28.5612C23.7752 28.5198 23.7648 28.435 23.7878 28.527C23.8213 28.6675 23.7492 28.4492 23.729 28.4086C23.7038 28.3579 23.7126 28.1927 23.6984 28.3196C23.6924 28.3624 23.7328 28.5809 23.7328 28.5809C23.8022 29.544 23.8951 30.4171 24.4374 31.2796C25.2714 32.6097 26.7061 33.2272 28.3724 33.3132C29.1044 33.3495 29.8392 33.2997 30.5668 33.2083C31.2345 33.1242 31.9479 32.9859 32.4967 32.617C34.0814 31.5507 32.9691 29.3677 31.6447 28.5331C31.0142 28.1337 30.2467 27.9255 29.6259 27.5182C29.5576 27.4722 29.4994 27.4102 29.4273 27.3657C29.467 27.3906 29.5798 27.5444 29.4893 27.4263C29.3954 27.3014 29.52 27.4789 29.5305 27.491C29.7069 27.7451 29.5291 27.3783 29.5767 27.6022C29.5332 27.405 29.5432 27.4617 29.5372 27.3307C29.5296 27.1598 29.5258 26.9875 29.5351 26.8141C29.5618 26.1084 29.6924 25.4104 29.7115 24.7077C29.7332 23.818 29.5422 22.9672 29.1332 22.1535L29.006 23.5171C31.1889 23.9745 33.7575 24.2199 35.7782 23.1524C37.6165 22.1847 38.5582 20.4652 38.2676 18.5905C38.2035 18.1871 37.5787 16.8477 36.8908 17.1014C35.8646 17.4797 34.7542 17.5515 33.6751 17.32C33.1815 17.2145 32.7088 17.0321 32.2764 16.7934C32.063 16.6751 31.8652 16.5424 31.6852 16.3907C31.423 16.1743 31.7336 16.4607 31.4968 16.2221C31.4968 16.2221 31.244 15.9332 31.3523 16.0686C31.3472 16.0585 31.0925 15.7016 31.2445 15.925C31.0976 15.7118 31.2075 15.8505 31.2288 15.9392C31.2004 15.8089 31.182 15.7352 31.2407 15.5788C31.4266 15.0653 32.1524 14.8695 32.6089 14.5894C33.3408 14.1406 33.7991 13.4798 33.9857 12.7113C34.4317 10.8912 33.5108 8.68166 31.93 7.48682C31.1066 6.86398 30.2468 6.74449 29.2066 6.65537C28.9971 6.6365 28.7086 6.63245 28.5264 6.52204C28.4939 6.50244 28.528 6.52542 28.5314 6.53219C28.6566 6.62858 28.4264 6.30257 28.4196 6.28904C28.0951 5.63619 27.73 5.01141 27.1945 4.4737C26.6589 3.936 26.0461 3.5175 25.3202 3.26467C24.6453 3.03224 23.9408 2.96905 23.2284 2.88068C22.9176 2.84092 22.5953 2.80564 22.2982 2.72011C22.177 2.6868 22.058 2.64861 21.9512 2.58942C21.8715 2.54794 21.8046 2.44079 21.834 2.5182C21.8554 2.57043 21.9181 2.65091 21.9488 2.70354C21.7671 2.41105 22.0434 2.88471 22.0029 2.87636C21.9586 2.8695 22.1582 2.62143 22.2508 2.56083L20.9765 0.48184C19.8207 2.99672 19.0973 5.96046 21.2904 8.24091C22.1777 9.1661 23.4067 9.62582 24.5958 10.1699C24.854 10.2869 25.1156 10.4106 25.3552 10.5632C25.4416 10.6182 25.5277 10.6815 25.6044 10.7444C25.6651 10.7933 25.7751 10.8957 25.7768 10.8991C25.6318 10.7538 25.7876 10.9393 25.7684 10.8821C25.7566 10.8585 25.7808 10.9621 25.7838 10.9772C25.7982 11.1251 25.7853 11.3646 25.7337 11.5627C25.4082 12.8384 23.794 13.5524 22.4235 13.2655C21.8396 13.1429 22.0723 14.151 22.1504 14.3629C22.3245 14.8322 22.6993 15.4856 23.298 15.6104C24.6022 15.883 26.064 15.4753 26.8586 14.4845C27.7709 13.3465 27.5868 11.7776 26.9871 10.5617C26.3873 9.34587 25.2489 8.44638 23.8609 7.89545C23.2701 7.65832 22.6585 7.46169 22.105 7.15333C21.9042 7.04212 21.7229 6.91519 21.5598 6.76089C21.4144 6.62391 21.4178 6.59425 21.3798 6.43536C21.0844 5.1365 21.8042 3.62936 22.3698 2.46162C22.5774 2.02849 22.3528 1.49413 22.1125 1.1114C21.9854 0.910639 21.4652 0.156732 21.0954 0.38263C19.907 1.11158 20.5299 2.69426 21.1305 3.58238C21.4723 4.08698 21.9438 4.56897 22.54 4.8444C23.1362 5.11983 23.8477 5.22471 24.5251 5.30661C25.2025 5.3885 25.8799 5.4704 26.4595 5.81299C26.6598 5.93246 26.8314 6.06726 26.9826 6.23429C27.1339 6.40133 26.9087 6.08545 27.0193 6.28055C27.1076 6.43993 27.1824 6.60866 27.2631 6.77103C27.6191 7.4964 28.079 8.22952 28.8315 8.68213C29.4216 9.03676 30.0827 9.04016 30.7673 9.09092C31.2015 9.1227 31.5954 9.2107 31.9556 9.44129C31.8476 9.37046 32.0412 9.51282 32.066 9.5354C32.2359 9.66681 31.9999 9.44815 32.1406 9.60315C32.2198 9.6893 32.3133 9.82241 32.1904 9.64831C32.2165 9.68254 32.2607 9.72581 32.2771 9.76789C32.3388 9.93772 32.1733 9.54991 32.2519 9.71715C32.2939 9.80172 32.3949 10.1057 32.3015 9.79873C32.33 9.89265 32.3737 9.9806 32.4022 10.0745C32.3385 9.87315 32.3883 10.0557 32.4092 10.1526C32.4142 10.1628 32.4375 10.3194 32.423 10.2078C32.4085 10.0963 32.4295 10.2942 32.4303 10.3141C32.4417 10.6573 32.4351 10.9549 32.258 11.3397C32.1246 11.6386 31.8885 11.9414 31.6126 12.1548C31.1148 12.544 30.4592 12.7164 30.0069 13.1606C28.9529 14.1965 29.7861 15.9918 30.4645 16.9908C31.9772 19.2108 35.33 20.6038 38.0908 19.351L36.714 17.862C36.9856 19.2227 35.5159 20.5753 34.2308 21.128C32.3375 21.9394 30.1309 21.6813 28.1643 21.2563C27.4516 21.1033 27.9698 22.4846 28.0371 22.6199C28.0068 22.559 27.9903 22.4159 28.0438 22.6334C28.0359 22.6082 28.0049 22.491 28.0371 22.6199C28.0811 22.7724 28.0714 22.7438 28.0834 22.8685C28.1093 23.1494 28.0997 23.432 28.0754 23.7124C28.024 24.3227 27.9169 24.9307 27.8879 25.5403C27.8167 26.9708 28.3839 28.5511 29.6891 29.466C30.2672 29.8698 30.9395 30.1154 31.5821 30.4292C31.691 30.4835 31.8133 30.5649 31.9154 30.6056C32.0686 30.6668 31.9554 30.6587 31.8949 30.5369C31.8663 30.4794 31.6412 29.9533 31.6183 29.9623C31.5689 29.9817 31.4483 30.2149 31.3895 30.2703C30.5473 31.0372 28.7642 31.0455 27.6562 31.0032C27.0129 30.9807 26.333 30.9119 25.7507 30.6553C25.6452 30.6077 25.5106 30.5473 25.4334 30.4927C25.5017 30.5387 25.2993 30.3877 25.3048 30.3896C25.1934 30.3484 25.2939 30.3494 25.3048 30.3896C25.3157 30.4298 25.4029 30.5411 25.4184 30.5633C25.458 30.6246 25.4214 30.7157 25.4365 30.6087C25.4524 30.4853 25.4047 30.2978 25.3966 30.1717C25.3024 28.6281 24.6937 27.1288 23.1658 26.2689C22.1424 25.6922 20.7335 25.5294 19.6159 25.98C18.1879 26.5563 17.9788 27.9197 17.7028 29.1396C17.4269 30.3594 16.5518 31.2888 15.1589 31.6978C13.9684 32.0476 12.5138 31.9391 11.5922 31.2011L12.2353 33.3459C13.7426 32.8193 13.9737 31.1158 13.7516 29.873C13.505 28.4984 12.4133 27.1805 12.6677 25.8074C12.8899 24.6167 13.7536 23.518 14.9227 22.9058C16.3177 22.1807 18.1119 22.4874 19.4454 21.6934C20.7789 20.8995 20.7908 19.4962 20.3186 18.2991C19.8169 17.0245 18.8052 15.849 17.4601 15.1923C14.9788 13.9789 11.6135 15.0767 9.40813 13.3023C9.26352 13.1852 9.21379 13.14 9.13459 13.0539C9.08866 13.0072 8.85317 12.7439 8.94414 12.8537C8.84981 12.7371 8.76353 12.6093 8.67893 12.4848C8.67389 12.4747 8.57797 12.3183 8.64106 12.4269C8.71088 12.5491 8.57213 12.2882 8.56036 12.2646C8.557 12.2578 8.47294 12.0887 8.5301 12.2037C8.59231 12.3288 8.47258 12.0605 8.46081 12.0368C8.4394 11.9846 8.32746 11.6405 8.36684 11.7746C8.28685 11.4947 8.2443 11.281 8.22759 11.0369C8.13624 9.89246 8.49236 8.70584 9.39256 7.86361L7.96187 6.30271C7.95982 7.79911 8.92111 9.22077 10.2843 10.0603C11.4725 10.7948 12.9769 11.0858 14.399 11.1747C15.8212 11.2635 17.1482 11.1795 18.5179 11.4466C19.1171 11.5632 19.7317 11.7384 20.2709 11.9999C20.4507 12.087 20.6603 12.2069 20.767 12.3025C20.8382 12.3634 20.9164 12.5025 20.8277 12.3514C20.9522 12.5653 20.8338 12.2722 20.8994 12.5415C20.9939 12.9329 21.2556 13.5417 21.7123 13.7102C22.1689 13.8787 22.1916 13.4211 22.1399 13.1342L22.1302 13.142Z" fill="#FDFCF3"/>
<path d="M23.878 23.063C24.4318 23.0519 25.0336 22.9452 25.4994 22.6655C25.9652 22.3857 26.3543 22.0431 26.6607 21.644C27.4681 20.5876 27.7687 18.9417 26.7414 17.9178C26.6036 17.7778 26.4384 17.6284 26.2123 17.6767C26.1878 17.6823 26.167 17.6864 26.1408 17.6885C26.0431 17.739 25.9868 17.8177 25.97 17.9213C25.9304 18.0702 25.9541 18.2186 25.9609 18.3695C25.9637 18.4209 25.9644 18.4773 25.9634 18.5302C25.9621 18.555 25.9575 18.7104 25.9637 18.5948C25.9699 18.4792 25.956 18.6342 25.9547 18.6589C25.9482 18.71 25.9396 18.7659 25.9293 18.8184C25.9088 18.9235 25.8806 19.0316 25.8491 19.1329C25.8338 19.1752 25.8202 19.221 25.8049 19.2634C25.8002 19.2814 25.7381 19.4311 25.7657 19.3677C25.7955 19.2994 25.7343 19.4325 25.728 19.4472C25.7029 19.4974 25.6779 19.5477 25.6511 19.5945C25.548 19.7805 25.4268 19.9574 25.289 20.1287C25.006 20.4741 24.7457 20.6733 24.375 20.9157C24.0044 21.1581 23.6047 21.3513 23.1587 21.4696C23.0264 21.5054 23.0013 21.7294 23.0041 21.8173C23.0134 21.9915 23.0641 22.1575 23.1376 22.3146C23.214 22.4868 23.3108 22.663 23.4507 22.7981C23.5514 22.9001 23.7119 23.0675 23.878 23.063Z" fill="#FDFCF3"/>
<path d="M40.021 30.8011C40.1454 31.0879 40.2359 31.3798 40.3357 31.6721C40.204 31.2791 40.3055 31.5748 40.3323 31.6653C40.3478 31.7239 40.3612 31.7874 40.3766 31.846C40.4113 31.9981 40.4367 32.1498 40.4621 32.3016C40.5003 32.5614 40.4432 32.0988 40.4638 32.305C40.4741 32.3898 40.4828 32.4713 40.4894 32.5577C40.5038 32.7056 40.5144 32.8551 40.5212 33.006C40.528 33.1569 40.5217 33.309 40.5285 33.4599C40.5329 33.5511 40.5318 33.6405 40.5363 33.7317C40.5439 33.9025 40.5777 34.0712 40.6398 34.2327C40.67 34.33 40.6632 34.3165 40.6289 34.1926C40.7214 34.516 40.8521 34.8245 41.1028 35.0819C41.2174 35.2026 41.5048 35.4699 41.7214 35.3566C41.7979 35.3185 41.8842 35.2725 41.9359 35.2118C42.0016 35.1335 42.0256 34.9988 42.0512 34.9039C42.1108 34.6945 42.1223 34.4798 42.1393 34.267C42.1758 33.8646 42.1481 33.4794 42.0988 33.0783C41.9936 32.2263 41.713 31.4147 41.3361 30.6289C41.2155 30.3771 40.9759 30.0506 40.7263 29.8778C40.5791 29.7738 40.4188 29.6709 40.2198 29.7005C39.7245 29.7654 39.9114 30.5531 40.021 30.8011Z" fill="#FDFCF3"/>
<path d="M26.4244 40.3185C27.0094 40.8368 27.5924 41.36 28.1774 41.8783C28.7625 42.3966 29.352 42.9697 30.1195 43.1779C30.3766 43.2469 30.44 42.8986 30.4416 42.7646C30.4424 42.4369 30.2763 42.1301 30.1012 41.8512C29.5997 41.0616 28.8511 40.3973 28.1345 39.7608C27.5478 39.2392 26.9611 38.7175 26.3705 38.1973C26.2335 38.0772 25.9433 37.9324 25.7395 38.0164C25.5356 38.1004 25.4846 38.3912 25.4939 38.5654C25.5235 39.2289 25.9051 39.8593 26.4261 40.3219L26.4244 40.3185Z" fill="#FDFCF3"/>
<path d="M20.5417 45.8397C21.0427 46.1889 21.5314 46.559 22.0523 46.8842C22.5732 47.2094 23.1236 47.5392 23.6813 47.8378C23.81 47.9045 24.0132 47.9016 24.098 47.7794C24.1828 47.6572 24.1845 47.4868 24.1663 47.3403C24.1125 46.8845 23.8529 46.4446 23.4786 46.1307C22.9938 45.7226 22.4989 45.3307 21.9887 44.9447C21.5105 44.5866 20.9989 44.2618 20.4992 43.9242C20.3554 43.8271 20.1247 43.6831 19.9246 43.7656C19.7246 43.8481 19.6923 44.1033 19.697 44.2591C19.7072 44.5542 19.8028 44.8563 19.9508 45.1176C20.0989 45.3788 20.2739 45.6578 20.5362 45.8378L20.5417 45.8397Z" fill="#FDFCF3"/>
<path d="M39.3043 51.3821L39.3177 50.9241L39.2281 51.2745C39.4839 50.8467 39.3561 50.242 39.3349 49.7693C39.3137 49.2966 39.2706 48.8164 39.2401 48.3433L39.1447 46.9619C39.0855 46.1201 38.9912 45.1708 38.1972 44.589C38.0884 44.4982 37.9593 44.4398 37.8098 44.4135C37.5982 44.3995 37.4936 44.5093 37.5014 44.7447C37.3749 45.0207 37.3549 45.0811 37.3762 45.3435C37.3916 45.576 37.4164 45.8088 37.4319 46.0412L37.5471 47.435C37.5852 47.9051 37.6271 48.3737 37.6783 48.8427C37.7065 49.0823 37.7329 49.3185 37.7572 49.5596C37.764 49.7469 37.8045 49.9291 37.8695 50.1057C37.9076 50.2282 37.9144 50.2417 37.8931 50.1531C37.9193 50.2883 37.9397 50.4299 37.9621 50.5666C38.0279 50.9733 38.3202 51.4973 38.7218 51.7197C39.0744 51.9169 39.2996 51.7477 39.3098 51.3839L39.3043 51.3821Z" fill="#FDFCF3"/>
<path d="M46.7461 42.7027C46.949 42.2876 47.1659 41.8913 47.3452 41.4652C47.5245 41.0391 47.6903 40.6224 47.8511 40.1956C48.0118 39.7687 48.1679 39.3599 48.3244 38.9428C48.4809 38.5257 48.7059 38.0817 48.802 37.6438C48.9157 37.1222 48.6286 36.5356 48.2913 36.1222C48.1565 35.9608 47.9775 35.7562 47.7618 35.6791C47.5955 35.619 47.3502 35.5738 47.2492 35.7549C47.0108 36.1718 46.8874 36.6648 46.7258 37.1082C46.5642 37.5516 46.4111 37.9754 46.2537 38.409C46.0963 38.8427 45.9491 39.2602 45.8086 39.6912C45.7375 39.905 45.6343 40.1274 45.6038 40.3496L45.5813 40.5605L45.5704 40.5203C45.5508 40.5724 45.5422 40.6284 45.5265 40.679C45.4877 40.8114 45.4544 40.9458 45.4156 41.0782C45.2992 41.5119 45.5801 42.0404 45.8581 42.38C45.9718 42.5173 46.1264 42.6911 46.307 42.7617C46.4404 42.8105 46.6633 42.8564 46.7406 42.7008L46.7461 42.7027Z" fill="#FDFCF3"/>
</svg>
