<svg width="95" height="61" viewBox="0 0 95 61" fill="none" xmlns="http://www.w3.org/2000/svg">
<path d="M29.4942 30.3066L29.8068 30.2917C29.9527 30.2842 30.0861 30.2433 30.2236 30.1987C30.4195 30.1355 30.6196 30.0797 30.8155 30.0127C31.0114 29.9458 31.2031 29.8379 31.3948 29.7524C31.4948 29.7078 31.5907 29.6594 31.6824 29.6036C31.8408 29.5069 31.9491 29.3544 32.0617 29.2168C32.1742 29.0792 32.2201 28.9118 32.2492 28.7519C32.2867 28.5473 32.2951 28.3279 32.2576 28.1233C32.2284 27.9783 32.1909 27.8332 32.12 27.6993C32.045 27.5506 31.9408 27.4576 31.7657 27.4241C31.6657 27.4055 31.5699 27.3795 31.4698 27.3869C31.3406 27.3981 31.1864 27.4725 31.0655 27.5208C30.8655 27.6026 30.6529 27.677 30.4653 27.7774C30.2778 27.8779 30.0861 27.9932 29.8985 28.101C29.6818 28.2238 29.5109 28.3911 29.3275 28.5511C29.19 28.6738 29.1108 28.7928 29.0691 28.9676C29.0233 29.1573 29.0149 29.347 29.0316 29.5367C29.0483 29.704 29.0774 29.8974 29.1691 30.0462C29.2358 30.1541 29.3317 30.3066 29.4942 30.2991V30.3066Z" fill="#FDFCF3"/>
<path d="M34.9167 27.5692C35.4001 27.1972 35.9795 26.7956 36.3546 26.3344C36.7672 25.8248 37.1215 25.2855 37.4549 24.7314C38.151 23.5709 38.6219 22.3101 39.0554 21.0567C39.9015 18.628 40.4225 16.2923 41.5353 14.0123C43.8151 9.35951 48.4373 5.31664 53.8806 3.69503C56.8107 2.82099 59.9825 2.83587 62.6916 4.24177C65.0423 5.46169 66.7762 7.46267 67.3638 9.7612C67.4055 9.92856 67.3722 9.79838 67.3638 9.76491C67.3847 9.86533 67.4055 9.96947 67.4222 10.0699C67.4514 10.2224 67.4722 10.3786 67.493 10.5311C67.5347 10.8249 67.493 10.4307 67.5139 10.7282C67.5264 10.9365 67.5305 11.1411 67.5347 11.3493C67.5389 11.6506 67.5514 11.2489 67.5347 11.5465C67.5222 11.7287 67.5055 11.9072 67.4847 12.0895C67.4764 12.1676 67.4639 12.2457 67.4555 12.3201C67.4555 12.3163 67.418 12.5693 67.4389 12.4354C67.4597 12.3015 67.4138 12.5544 67.4138 12.5507C67.3847 12.6771 67.3597 12.8036 67.3263 12.93C67.0179 14.1574 66.3052 15.3215 65.6175 16.5043C64.8089 17.8916 64.1879 19.3458 64.1879 20.9302C64.1879 22.3994 64.7756 23.9354 66.1551 24.8169C68.1807 26.1075 70.9691 25.4789 73.2364 26.0629C74.3909 26.3604 75.4412 26.9778 76.2331 27.7812C76.6666 28.2238 76.9083 28.5473 77.1876 29.0606C77.2168 29.1164 77.3501 29.3767 77.3168 29.3098C77.2876 29.2503 77.4168 29.5664 77.4418 29.6259C77.4835 29.745 77.521 29.8677 77.5585 29.9867C77.4793 29.7264 77.5794 30.0834 77.596 30.1727C77.621 30.2917 77.6586 30.6339 77.6336 30.3289C77.6419 30.4553 77.6502 30.5818 77.6544 30.7045C77.6544 30.9277 77.6127 31.188 77.5627 31.4484C77.4668 31.9431 77.571 32.8357 78.0754 33.1518C78.5797 33.468 78.9673 32.9584 79.0632 32.5344C79.6842 29.8082 78.8964 26.8067 76.6958 24.776C75.7163 23.8685 74.5326 23.2027 73.1656 22.8903C71.911 22.6002 70.6023 22.589 69.3228 22.4626C68.2641 22.3584 66.9637 22.1576 66.2552 21.4695C66.0509 21.2687 65.9509 21.1385 65.8592 20.9377C65.7925 20.7889 65.8509 20.9116 65.8634 20.9377C65.8342 20.8707 65.8175 20.6624 65.8634 20.9302C65.8634 20.9525 65.8675 21.2203 65.8717 21.0306C65.8759 20.7852 65.8259 21.3059 65.8634 21.0604C65.8675 21.0195 65.9051 20.7331 65.8759 20.9116C65.8467 21.0753 65.8926 20.8484 65.8967 20.8298C65.9342 20.6885 65.9717 20.5471 66.0218 20.4095C65.9676 20.5657 66.0551 20.3314 66.0593 20.3203C66.0885 20.2496 66.1176 20.1789 66.151 20.1083C66.2343 19.9186 66.326 19.7289 66.4219 19.5429C67.1179 18.1854 67.9598 16.9283 68.4475 15.4926C68.9643 13.9752 69.181 12.3461 69.081 10.7617C68.8935 7.76765 67.7014 4.86289 65.2382 2.76521C63.0584 0.905558 60.1325 -0.147007 57.1024 0.0166417C53.8431 0.195168 50.688 1.55271 48.0873 3.25243C45.6782 4.82569 43.5943 6.83039 42.023 9.09544C40.4517 11.3605 39.4305 14.0533 38.6178 16.7163C37.8759 19.1524 37.2465 21.5514 35.7127 23.742C35.2918 24.3408 34.9208 24.9434 34.4248 25.4975C34.1039 25.8546 34.1289 26.5054 34.2331 26.9183C34.279 27.1043 34.5457 27.8407 34.9167 27.558V27.5692Z" fill="#FDFCF3"/>
<path d="M54.3933 10.4269C55.3895 10.929 56.4731 11.234 57.4609 11.7659C57.8777 11.9928 58.2653 12.2457 58.5445 12.6102C58.5612 12.6325 58.7655 12.9672 58.6696 12.811C58.7988 13.023 58.6696 12.8036 58.6696 12.6957C58.6696 12.6176 58.6779 12.5395 58.7029 12.4651C58.6612 12.6064 58.6612 12.6288 58.6988 12.5321C58.3945 13.4656 57.1483 14.1314 56.1897 14.4884C54.9226 14.9645 53.5514 15.1988 52.3302 15.7678C51.78 16.0245 51.2507 16.3481 50.8464 16.7758C50.2171 17.449 50.0087 18.4048 50.042 19.2603C50.092 20.629 50.7131 21.9791 52.0176 22.7676C53.1721 23.4631 54.6267 23.5523 55.8813 24.0507C56.3898 24.2553 56.8899 24.5193 57.2442 24.9099C57.5026 25.1963 57.1733 24.7908 57.3901 25.0958C57.4484 25.1739 57.4151 25.2706 57.4151 25.1405C57.4151 24.9917 57.3484 24.8578 57.3692 24.7016C57.4067 24.4412 57.4526 24.4598 57.3317 24.6904C57.1816 24.9843 56.8107 25.4938 56.4439 25.8137C56.2605 25.9736 56.0521 26.1112 55.8688 26.2711C55.5603 26.5389 55.3978 26.896 55.1019 27.1675C54.7143 27.5208 54.31 27.8184 53.9932 28.2275C53.6223 28.7036 53.3597 29.2168 53.168 29.7673C53.0096 30.2173 52.947 30.6897 53.0262 31.1583C53.1221 31.7459 53.4014 32.0695 53.839 32.4786C54.0599 32.6832 54.2141 32.9361 54.4808 33.1035C54.7476 33.2708 55.0769 33.3155 55.4061 33.3452C56.1063 33.4159 56.8274 33.3936 57.5317 33.3899C60.4493 33.3787 63.4919 32.9845 66.2927 33.9515C66.8262 34.1337 67.3805 34.3606 67.814 34.7028C67.9974 34.8478 68.1474 34.9966 68.2391 35.1491L68.2183 35.0821C68.2766 35.2421 68.2766 35.2495 68.2266 35.1045C68.1849 34.9408 68.1891 34.7846 68.2433 34.6321C68.1974 34.7809 68.1891 34.8181 68.2099 34.7437C67.9724 35.2197 67.5931 35.6103 67.1888 35.9822C66.722 36.4099 66.2385 36.8451 65.7009 37.2058C61.0786 40.3412 54.8143 39.9581 49.346 40.278C48.8167 40.3077 48.8625 41.5946 49.3835 41.6578C52.0343 41.974 54.7726 42.0484 57.4401 41.8438C60.1075 41.6392 62.5999 41.152 64.934 40.1553C66.0843 39.6643 67.2055 39.0767 68.1432 38.303C69.4603 37.2207 70.1313 35.7181 69.8062 34.1114C69.2061 31.1509 65.3674 30.3958 62.4916 30.4107C60.9369 30.4181 59.374 30.5744 57.8319 30.7603C57.1066 30.8459 56.3856 30.9723 55.6604 31.0318C55.3478 31.0579 55.0185 31.0021 54.7142 31.0318C54.335 31.069 54.0849 31.2959 53.8181 30.9277C53.2888 30.2024 54.6809 29.2094 55.2644 28.8858C55.5186 28.7445 55.7021 28.7742 55.9855 28.7333C56.2689 28.6924 56.5106 28.5325 56.7523 28.3837C57.2108 28.101 57.8027 27.7663 58.1486 27.372C59.1948 26.1781 59.1656 24.192 58.4487 22.8866C57.8193 21.741 56.594 21.0827 55.2811 20.6959C54.0682 20.3389 52.4386 20.1008 51.705 19.052C51.755 19.1226 51.58 18.84 51.5883 18.8325C51.5966 18.8251 51.6717 19.2268 51.6717 19.2268C51.6633 19.0631 51.6925 19.7252 51.5675 19.7884C51.6592 19.7438 51.7634 19.5355 51.8467 19.4611C52.3219 19.0371 53.0054 18.747 53.6098 18.509C55.0435 17.9511 56.6357 17.6647 57.9069 16.8092C59.3406 15.8422 60.1534 14.4103 60.1117 12.7961C60.0742 11.4163 59.4573 10.1034 58.0777 9.40042C57.5359 9.12148 56.9232 8.98386 56.3147 8.88716C56.0105 8.83881 55.6895 8.78673 55.3811 8.77557C55.0727 8.76441 54.7643 8.84996 54.46 8.92063C53.9348 9.03593 53.9849 10.2261 54.4016 10.4344L54.3933 10.4269Z" fill="#FDFCF3"/>
<path d="M23.8092 28.5957C18.7118 29.0085 15.3358 33.6093 15.0107 37.8828C14.8107 40.5235 15.5859 43.1084 17.3448 45.2507C18.9202 47.1698 21.2126 48.6315 23.6592 49.5353C26.6225 50.6251 29.8777 50.9635 33.062 50.9933C36.2462 51.023 39.3846 50.8222 42.5231 50.5693C48.5332 50.0821 54.5225 49.2006 60.3201 47.6794C63.2001 46.9244 66.0343 46.0355 68.7684 44.9345C71.4609 43.8522 74.1492 42.6137 76.5707 41.0925C77.2459 40.6685 77.8628 40.2222 78.4588 39.7127C79.0215 39.2329 78.8881 36.5885 77.7753 37.0831C76.4915 37.6559 75.312 38.3997 74.0783 39.0543C72.8446 39.7089 71.6526 40.2891 70.4064 40.8433C67.8515 41.9777 65.2007 42.9447 62.504 43.7667C57.1191 45.4032 51.5091 46.426 45.8699 47.062C43.0608 47.3818 40.2432 47.6013 37.4174 47.7463C34.2748 47.91 31.0905 47.9918 27.9729 47.5306C25.3346 47.1401 22.7964 46.307 20.6332 44.8862C19.6538 44.2428 18.7868 43.4803 18.0616 42.61C17.3364 41.7397 16.8696 40.8322 16.582 39.8466C16.4695 39.4597 16.6154 40.1181 16.557 39.7238C16.532 39.5639 16.5028 39.4002 16.4778 39.2403C16.4361 38.9576 16.4778 39.2217 16.4778 39.2738C16.4695 39.1101 16.4612 38.9502 16.4612 38.7866C16.4612 38.7196 16.4945 38.3179 16.4612 38.701C16.4737 38.5374 16.4862 38.3774 16.507 38.2138C16.5112 38.1729 16.5779 37.7749 16.5195 38.091C16.5487 37.9311 16.5862 37.7712 16.6279 37.6113C16.8488 36.7335 17.3072 35.7628 17.9616 34.8925C19.3287 33.07 21.5043 31.6195 23.8759 31.0132C24.401 30.8793 24.4594 30.1987 24.451 29.7859C24.4427 29.5069 24.3302 28.5436 23.8092 28.5883V28.5957Z" fill="#FDFCF3"/>
<path d="M37.8134 18.2895C34.1581 19.0892 30.532 19.9818 26.9101 20.8968C23.2882 21.8117 19.9497 22.5965 16.6321 23.8499C10.7595 26.074 5.48707 30.0388 2.33613 35.0264C0.577273 37.8121 -0.498043 41.1074 0.231341 44.3097C0.860696 47.0694 2.63205 49.2861 5.02026 51.0751C7.3793 52.8455 10.1676 54.1435 12.9435 55.3002C15.9402 56.5499 19.0494 57.5764 22.2337 58.3761C28.6273 59.9865 35.2751 60.7155 41.9146 60.4589C48.8167 60.1911 55.5311 58.7926 62.0164 56.7061C65.4091 55.6164 68.7267 54.3592 72.0152 53.0463C75.287 51.7409 78.5922 50.454 81.7681 48.9811C87.2739 46.426 92.2546 42.4352 93.8967 36.9083C94.8137 33.8139 94.401 30.6562 93.084 27.7105C91.8878 25.0363 90.2165 22.351 88.0492 20.205C85.8819 18.0589 83.2269 16.627 80.0885 15.9761C76.95 15.3253 73.599 15.4703 70.3689 15.7716C68.7767 15.9203 67.1346 15.9799 65.7217 16.7237C64.8964 17.1552 65.2924 19.8591 66.1593 19.4053C66.8137 19.0631 67.5847 18.985 68.3266 18.9181C69.1227 18.8437 69.9188 18.7916 70.7148 18.7396C72.2611 18.6391 73.8158 18.5685 75.3662 18.5796C78.4422 18.602 81.5431 19.0408 84.2022 20.4913C86.6196 21.808 88.4868 23.8238 89.9122 25.981C90.6958 27.16 91.4127 28.3986 91.9753 29.678C92.2337 30.2694 92.488 30.9686 92.6297 31.5302C92.7172 31.8687 92.7714 32.2183 92.8173 32.5642C92.8548 32.8394 92.8173 32.46 92.8339 32.7353C92.8423 32.8989 92.8506 33.0588 92.8548 33.2225C92.8881 35.5582 91.7878 37.7452 90.2748 39.6308C88.6452 41.6616 86.5696 43.3687 84.2147 44.7077C81.3305 46.3442 78.1546 47.5418 75.0495 48.7989C71.9444 50.056 68.7684 51.3169 65.5716 52.4587C59.399 54.6642 53.0346 56.4197 46.4076 57.1004C39.7806 57.781 33.6913 57.5169 27.4645 56.4644C21.271 55.4192 15.2316 53.5112 9.70082 50.811C7.32511 49.6506 4.99943 48.2745 3.30309 46.359C2.51119 45.4627 1.97354 44.5254 1.67345 43.5138C1.54424 43.0823 1.48172 42.4463 1.51089 41.9777C1.54424 41.4793 1.65677 40.8842 1.84849 40.2668C2.64873 37.7042 4.51595 35.4132 6.4832 33.4605C8.45046 31.5079 10.8345 29.8045 13.3936 28.4395C16.2361 26.9257 19.3495 25.9029 22.5088 25.0475C25.9057 24.1288 29.3358 23.3031 32.7327 22.3882C34.454 21.927 36.1712 21.4584 37.8842 20.9674C38.4636 20.8 38.5386 20.086 38.5261 19.6173C38.5177 19.3681 38.3635 18.1742 37.8092 18.297L37.8134 18.2895Z" fill="#FDFCF3"/>
</svg>
