<svg width="38" height="38" viewBox="0 0 38 38" fill="none" xmlns="http://www.w3.org/2000/svg">
<path d="M19.0665 13.4753C20.2319 9.62375 18.6476 4.97501 15.1244 2.49216C11.9664 0.268645 6.89646 0.316666 3.89961 2.75149C0.618106 5.41203 0.0810515 9.68139 0.693312 13.4129C1.01018 15.3578 1.67076 17.2548 2.55156 19.0509C3.43235 20.847 4.57634 22.4702 5.66659 24.1367C6.92871 26.0576 8.26599 28.0986 9.02863 30.1253C9.11993 30.3702 9.20588 30.6151 9.28644 30.8648C9.32404 30.9897 9.36161 31.1146 9.39921 31.2346C9.57644 31.8205 9.37237 31.0858 9.45293 31.4267C9.51738 31.7101 9.57646 31.9934 9.61942 32.2816C9.64091 32.4112 9.65701 32.5361 9.67312 32.6657C9.64626 32.4544 9.67312 32.5985 9.67312 32.7282C9.67312 32.8578 9.68925 32.9875 9.68925 33.1172C9.68925 33.1892 9.64629 33.7175 9.69462 33.3957C9.7537 33.0211 9.63554 33.655 9.69462 33.3477C9.7537 33.0403 9.59257 33.6791 9.71609 33.2997C9.70535 33.3333 9.57644 33.5302 9.69997 33.3765C9.64089 33.4485 9.58719 33.5398 9.512 33.5974C9.47441 33.6262 9.27033 33.6935 9.11458 33.6983L10.178 36.1187C10.1887 36.0178 10.1995 35.917 10.2156 35.8113C10.2156 35.8305 10.1618 36.0995 10.2048 35.9026C10.2209 35.8305 10.2424 35.7585 10.2693 35.6865C10.1833 35.9362 10.2693 35.7009 10.2908 35.6577C10.4787 35.3167 10.5324 35.2206 10.8332 34.9133C11.3219 34.4138 11.9449 34.0296 12.5787 33.6935C14.0825 32.9011 15.742 32.4064 17.3747 31.8637C21.4081 30.5239 25.2267 28.6365 28.621 26.2737C32.0153 23.9109 35.5814 21.0391 36.9563 17.2788C38.3473 13.4849 36.9563 8.9274 32.7779 7.09288C30.8176 6.23325 28.6478 6.16121 26.5855 6.74711C24.2438 7.41464 22.536 8.78813 21.2201 10.6131C20.7475 11.2662 20.7099 12.1834 20.9677 12.9182C21.1289 13.3888 21.6605 14.09 22.1922 13.4945C23.2717 12.2843 24.9152 11.2758 26.5156 10.6947C28.1161 10.1136 29.9422 10.0031 31.548 10.5122C33.0142 10.9732 34.416 11.8761 35.1142 13.0815C35.1732 13.1823 35.2269 13.2832 35.2753 13.384C35.2592 13.3504 35.2055 13.216 35.2753 13.3889C35.3075 13.4705 35.3344 13.5473 35.3612 13.629C35.3612 13.6434 35.4418 13.9075 35.3988 13.7298C35.3505 13.5329 35.4633 14.3109 35.4364 13.9315C35.4418 14.0276 35.4418 14.1236 35.4471 14.2197C35.4471 14.5366 35.4794 13.9699 35.4418 14.2821C35.431 14.3781 35.4203 14.4694 35.4042 14.5654C35.4096 14.527 35.4472 14.3733 35.4042 14.5798C35.3559 14.796 35.2914 15.0169 35.2162 15.2282C35.1142 15.5019 34.8832 15.9581 34.7006 16.2799C33.8198 17.8119 32.4557 19.1133 31.0915 20.3091C29.6521 21.5722 28.0893 22.7247 26.4512 23.7765C23.2073 25.8607 19.6734 27.4551 15.9246 28.6605C14.2543 29.1984 12.5357 29.7699 11.091 30.716C9.41533 31.8157 8.43785 33.2997 8.15858 35.139C8.07264 35.7153 8.17471 37.5402 9.222 37.5594C11.6227 37.5978 11.859 34.2505 11.7731 32.7762C11.6442 30.5719 11.0158 28.4732 10.0705 26.4466C8.41637 22.8976 5.7149 19.8433 3.96405 16.3423C3.28197 14.9784 2.78252 13.4801 2.57306 12.0826C2.55695 11.9913 2.49248 11.3094 2.52471 11.7608C2.51397 11.5687 2.49786 11.3718 2.49249 11.1797C2.48712 10.9876 2.48711 10.7955 2.48711 10.6034C2.48711 10.565 2.50859 10.2913 2.48711 10.5362C2.46563 10.8148 2.50324 10.3633 2.50861 10.3057C2.52473 10.1184 2.55155 9.93111 2.58378 9.74382C2.616 9.53731 2.57305 9.78704 2.56768 9.81585C2.58917 9.7102 2.61602 9.60935 2.63751 9.5037C2.68047 9.32601 2.73954 9.14832 2.79324 8.97063C2.86843 8.7161 2.7127 9.16753 2.80937 8.9178C2.84697 8.82175 2.88992 8.7209 2.93289 8.62485C4.27556 5.60413 8.13712 4.13459 11.7409 4.85495C13.6904 5.24395 15.4896 6.37732 16.5637 7.88048C16.8377 8.25987 17.0739 8.67768 17.2566 9.10029C17.2673 9.1195 17.3801 9.42686 17.4284 9.56132C17.4553 9.64296 17.4821 9.7246 17.509 9.80624C17.5251 9.85907 17.6164 10.176 17.5681 9.98874C17.7775 10.8244 17.799 11.5687 17.697 12.4476C17.6432 12.9278 17.6755 13.7538 18.1696 14.0756C18.6637 14.3974 18.9591 13.8595 19.0719 13.4897L19.0665 13.4753Z" fill="#FDFCF3"/>
</svg>
