<svg width="26" height="26" viewBox="0 0 26 26" fill="none" xmlns="http://www.w3.org/2000/svg">
<path d="M25.454 12.9203C25.454 14.7468 25.4623 16.5734 25.454 18.3999C25.4334 22.1345 22.8938 25.1334 19.2504 25.7207C18.8956 25.7771 18.5325 25.8001 18.1735 25.8001C14.5466 25.8064 10.9218 25.8105 7.29498 25.8001C3.20187 25.7917 -0.00206206 22.5274 9.95763e-07 18.3832C9.95763e-07 14.7406 9.95763e-07 11.0959 9.95763e-07 7.45325C9.95763e-07 3.69569 2.55407 0.661217 6.216 0.0823275C6.58942 0.0238116 6.97315 0.00500286 7.35275 0.00500286C10.9383 -0.00126671 14.5239 -0.00126671 18.1116 0.002913C21.8746 0.00709271 24.9011 2.69047 25.4004 6.46475C25.4458 6.81584 25.452 7.17321 25.454 7.52848C25.4582 9.32367 25.4561 11.1209 25.4561 12.9182L25.454 12.9203ZM12.7394 2.22443C10.9466 2.22443 9.1538 2.22234 7.361 2.22652C7.07217 2.22652 6.77715 2.23488 6.49245 2.28295C3.96727 2.69465 2.18478 4.80331 2.18066 7.39473C2.17447 11.0373 2.17859 14.6821 2.18066 18.3247C2.18066 21.3403 4.39226 23.5828 7.36306 23.5848C10.9383 23.5869 14.5157 23.5869 18.091 23.5848C21.0659 23.5848 23.2672 21.3445 23.2672 18.3247C23.2672 14.7113 23.2672 11.1 23.2672 7.48669C23.2672 4.46893 21.0639 2.2307 18.0889 2.22652C16.3064 2.22443 14.5219 2.22652 12.7394 2.22652V2.22443Z" fill="white"/>
<path d="M12.7146 19.5075C9.1146 19.4971 6.1995 16.5358 6.20363 12.8952C6.20775 9.25679 9.1538 6.28502 12.7353 6.30383C16.3601 6.32264 19.2545 9.27978 19.2401 12.9475C19.2257 16.5734 16.2982 19.518 12.7146 19.5075ZM8.3946 12.9036C8.3946 15.3341 10.3318 17.2986 12.7291 17.2965C15.1222 17.2965 17.0615 15.3236 17.0595 12.8952C17.0595 10.4898 15.1119 8.52116 12.7332 8.51907C10.3339 8.51698 8.39253 10.4773 8.39253 12.9057L8.3946 12.9036Z" fill="white"/>
<path d="M19.5392 7.50758C18.6666 7.51594 17.9651 6.82002 17.9589 5.94019C17.9528 5.06036 18.6418 4.34563 19.5062 4.33309C20.3645 4.32055 21.0804 5.0332 21.0907 5.90675C21.101 6.7824 20.4057 7.49922 19.5392 7.50758Z" fill="white"/>
</svg>
