<svg width="77" height="75" viewBox="0 0 77 75" fill="none" xmlns="http://www.w3.org/2000/svg">
<path d="M63.9315 27.5349C56.9732 11.2935 38.4791 2.5593 22.081 8.78817C3.36063 15.9093 -5.02288 38.6284 3.09235 56.9719C11.7693 76.5851 37.3558 77.9064 54.4497 70.1589C62.565 66.4782 69.9424 60.5239 73.5641 52.03C77.8565 41.9745 76.2971 30.3147 71.1078 20.9456C62.1793 4.81576 43.8614 -2.95746 26.1805 1.03211C24.3529 1.44393 24.8308 7.11513 26.3147 6.78052C39.4684 3.81194 54.7515 7.26098 64.0656 17.5395C69.6658 23.7255 74.2935 32.3138 73.5306 40.9621C72.7006 50.4255 65.9771 57.7097 58.2642 62.2484C53.6281 64.9768 48.4723 67.0359 43.2074 68.0483C33.4826 69.9101 21.1672 68.9749 12.8675 63.012C6.20264 58.2245 2.26239 49.9022 2.37976 41.6056C2.53066 30.7866 9.74886 21.0915 18.8282 16.1667C34.6395 7.59559 55.0869 14.8369 62.2883 31.6531C63.4788 34.4244 64.5518 29.002 63.9231 27.5434L63.9315 27.5349Z" fill="#BD56BF"/>
<path d="M32 21.5L30.6959 21.7604C29.9615 21.9071 29.3723 22.4466 29.1743 23.1688C28.3883 26.0357 26.3869 33.6083 25.5 39.4993C25.2407 41.2217 26.3263 42.7233 27.4316 43.7698C28.6656 44.9382 30.3918 45.3203 32.0913 45.3203H37L43.5913 44.8809C44.1063 44.8466 44.5599 45.2064 44.6174 45.7194C44.8649 47.9264 45.2465 53.6054 43 55.9993C39.5234 59.7041 33.6255 57.9652 29.5 55C28.0902 53.9867 26.8429 52.0575 26.0212 50.5629C25.5998 49.7965 24.42 49.8049 24.0648 50.6042L23.2104 52.5267C23.0784 52.8235 23.0979 53.1641 23.2721 53.4383C23.9879 54.565 26.0063 57.574 28 59C33.7175 63.0894 44 62.0007 46 59C48 55.9993 48 46.5 48 46.5C48 46.5 47.5 40 46.5 39.5C45.5 39 33.5 40.4993 32 40C30.8137 39.6051 31 39.2503 31 38C31 37.223 32.5092 30.1076 33.1824 26.9722C33.3698 26.0992 34.1106 25.4603 35.0011 25.396C38.8915 25.1151 49 24.3076 49 23.5C49 20.624 45.6161 19.3039 42.7767 19.7618L32 21.5Z" fill="#BD56BF"/>
</svg>
