<svg width="25" height="26" viewBox="0 0 25 26" fill="none" xmlns="http://www.w3.org/2000/svg">
<path d="M23.5613 9.71808C21.2959 9.40441 19.2704 8.61425 17.6009 6.91284V7.21064C17.6009 10.5003 17.6068 13.79 17.6009 17.0796C17.595 19.7836 16.6059 22.0627 14.5312 23.7741C12.0043 25.8586 9.1254 26.3589 6.0813 25.1856C3.04507 24.0143 1.22608 21.7093 0.720697 18.4614C-0.000998139 13.8177 3.12766 9.51558 7.71937 8.7294C8.69474 8.56263 9.67798 8.62616 10.6711 8.61425V13.1189C10.6042 13.1189 10.5373 13.1189 10.4705 13.1189C9.90413 13.1249 9.33385 13.0991 8.76947 13.1427C6.65944 13.3055 5.04694 15.1082 5.07447 17.2444C5.102 19.3707 6.7499 21.1177 8.85796 21.2507C11.1804 21.3957 13.135 19.5454 13.135 17.1967C13.135 11.5585 13.135 5.92019 13.135 0.283899V0.00397062H13.3455C14.6945 0.00397062 16.0435 0.00595592 17.3925 0C17.5419 0 17.6147 0.0476474 17.6815 0.178678C18.2557 1.29839 18.9617 2.3248 19.8604 3.20826C21.0285 4.35378 22.3971 5.09827 24.0273 5.31864C24.1453 5.33452 24.2613 5.36033 24.4128 5.38813C24.1276 6.84336 23.8484 8.27476 23.5672 9.72007L23.5613 9.71808Z" fill="white"/>
</svg>
