<svg width="26" height="23" viewBox="0 0 26 23" fill="none" xmlns="http://www.w3.org/2000/svg">
<path d="M24.0651 5.6448C23.4647 6.11386 23.3212 6.62386 23.274 7.34607C22.8492 13.8329 19.9661 18.8175 13.7429 21.4383C9.34553 23.2885 4.92362 22.8957 0.69052 20.6882C0.550801 20.6156 0.437513 20.4965 0.0976562 20.234C2.96378 20.3141 5.36921 19.67 7.6538 17.9204C5.23327 17.5109 3.56986 16.4387 2.75798 14.1884C3.50378 14.1567 4.09475 14.1307 4.68761 14.1046C2.32372 13.0548 1.0266 11.3312 0.747161 8.73649C1.50806 8.92635 2.18966 9.09573 3.06951 9.31537C0.682963 6.43401 0.226049 4.08127 1.60436 2.13058C4.50258 5.42888 8.08618 7.3926 12.6233 7.66808C12.3268 5.24088 12.9612 3.266 14.9664 1.87929C16.7865 0.621025 19.2146 0.593105 20.9384 1.97981C21.7635 2.64245 22.4414 2.6834 23.3042 2.30182C23.8518 2.05985 24.4144 1.84765 25.2338 1.51633C24.8468 2.17153 24.624 2.64245 24.3162 3.04822C23.999 3.46516 23.5969 3.82254 23.0437 4.40328C24.0651 4.15944 24.8354 3.97703 25.9041 3.72203C25.1715 4.50565 24.6882 5.16085 24.067 5.64666L24.0651 5.6448Z" fill="white"/>
</svg>
