<svg width="26" height="20" viewBox="0 0 26 20" fill="none" xmlns="http://www.w3.org/2000/svg">
<path d="M25.9827 8.94106C25.9792 8.7924 25.9826 8.64549 25.9757 8.49682C25.9531 8.00186 25.9323 7.5069 25.8992 7.01193C25.8732 6.61666 25.8349 6.22314 25.7915 5.82962C25.7081 5.08805 25.6195 4.34298 25.4022 3.62765C25.0668 2.51704 24.33 1.79121 23.23 1.43442C22.8425 1.30849 22.4428 1.25602 22.0431 1.21405C21.6087 1.16858 21.1725 1.13185 20.7364 1.09512C20.5052 1.07588 20.2724 1.06189 20.0395 1.05139C19.3705 1.01991 18.6997 0.98843 18.0307 0.960446C17.5893 0.942956 17.1496 0.927216 16.7082 0.92022C15.3441 0.899232 13.9782 0.874746 12.6141 0.869499C11.5905 0.866001 10.5687 0.888738 9.54519 0.909726C8.9474 0.921969 8.34787 0.944706 7.75008 0.97094C7.25135 0.991928 6.75261 1.01816 6.25388 1.05314C5.69084 1.09337 5.12781 1.13709 4.56825 1.19831C4.10253 1.24903 3.64028 1.32249 3.17804 1.39594C2.73491 1.4659 2.33523 1.65479 1.97204 1.91539C1.34644 2.36313 0.924171 2.95954 0.727805 3.7046C0.649605 4.00368 0.597471 4.30975 0.552289 4.61582C0.482779 5.10204 0.420222 5.59001 0.369827 6.07973C0.328121 6.48724 0.303787 6.8965 0.27772 7.30402C0.197784 8.51781 0.182147 9.73161 0.204738 10.9472C0.215164 11.4806 0.234277 12.014 0.267294 12.5457C0.302049 13.0949 0.348977 13.6441 0.406323 14.1915C0.474096 14.8491 0.555761 15.5068 0.733012 16.1434C1.06145 17.3327 1.82433 18.1075 3.0008 18.4538C3.26146 18.5308 3.53602 18.5622 3.80711 18.5972C4.24502 18.6532 4.68294 18.6969 5.12259 18.7389C5.44929 18.7686 5.77773 18.7896 6.10443 18.8088C6.68484 18.8421 7.26526 18.8736 7.84567 18.9033C8.02639 18.912 8.20711 18.9208 8.38958 18.926C9.00474 18.9435 9.61991 18.961 10.2368 18.975C10.7599 18.9872 11.283 18.9925 11.806 19.003C11.8564 19.003 11.9068 19.0135 11.9572 19.0187H14.9131C14.9531 19.0135 14.9931 19.0047 15.0348 19.003C15.2642 18.9995 15.4935 18.9977 15.7229 18.9925C16.4006 18.9785 17.0766 18.9662 17.7544 18.9435C18.3626 18.9243 18.9708 18.898 19.579 18.8613C20.2133 18.8228 20.8476 18.7739 21.4819 18.7161C21.9997 18.6689 22.5141 18.6042 23.0232 18.494C24.198 18.2404 25.1624 17.3239 25.4474 16.1399C25.543 15.7464 25.6073 15.3441 25.6646 14.9436C25.7376 14.4329 25.7967 13.9204 25.8471 13.4062C25.8888 12.9847 25.9149 12.5632 25.9357 12.14C25.9583 11.6695 25.967 11.1973 25.9844 10.7268C25.9844 10.6796 25.9966 10.6323 26.0018 10.5851V9.0565C25.9948 9.01627 25.9844 8.97604 25.9844 8.93582L25.9827 8.94106ZM10.6052 13.8347C10.5965 13.8015 10.5896 13.7805 10.5878 13.7578C10.5844 13.7298 10.5878 13.7036 10.5878 13.6756C10.5878 11.1868 10.5878 8.69621 10.5878 6.2074V6.07623C10.6035 6.06573 10.607 6.06224 10.6104 6.06049C10.6139 6.06049 10.6174 6.06049 10.6209 6.06049C12.84 7.33899 15.0591 8.6175 17.28 9.89776C17.2973 9.90825 17.313 9.9205 17.3477 9.94498C15.0939 11.2462 12.8556 12.537 10.607 13.8347H10.6052Z" fill="white"/>
</svg>
